  0
SECTION
  2
HEADER
  9
$ACADVER
  1
AC1014
  9
$HANDSEED
  5
FFFF
  9
$INSUNITS
 70
     0
  9
$MEASUREMENT
 70
     1
  0
ENDSEC
  0
SECTION
  2
TABLES
  0
TABLE
  2
VPORT
  5
8
330
0
100
AcDbSymbolTable
 70
     4
  0
VPORT
  5
2E
330
8
100
AcDbSymbolTableRecord
100
AcDbViewportTableRecord
  2
*ACTIVE
 70
     0
 10
0.0
 20
0.0
 11
1.0
 21
1.0
 12
210.0
 22
148.5
 13
0.0
 23
0.0
 14
10.0
 24
10.0
 15
10.0
 25
10.0
 16
0.0
 26
0.0
 36
1.0
 17
0.0
 27
0.0
 37
0.0
 40
341.0
 41
1.24
 42
50.0
 43
0.0
 44
0.0
 50
0.0
 51
0.0
 71
     0
 72
   100
 73
     1
 74
     3
 75
     0
 76
     0
 77
     0
 78
     0
  0
ENDTAB
  0
TABLE
  2
LTYPE
  5
5
330
0
100
AcDbSymbolTable
 70
     1
  0
LTYPE
  5
14
330
5
100
AcDbSymbolTableRecord
100
AcDbLinetypeTableRecord
  2
BYBLOCK
 70
     0
  3

 72
    65
 73
     0
 40
0.0
  0
LTYPE
  5
15
330
5
100
AcDbSymbolTableRecord
100
AcDbLinetypeTableRecord
  2
BYLAYER
 70
     0
  3

 72
    65
 73
     0
 40
0.0
  0
LTYPE
  5
16
330
5
100
AcDbSymbolTableRecord
100
AcDbLinetypeTableRecord
  2
CONTINUOUS
 70
     0
  3
Solid line
 72
    65
 73
     0
 40
0.0
  0
ENDTAB
  0
TABLE
  2
LAYER
  5
2
100
AcDbSymbolTable
 70
1
  0
LAYER
  5
50
100
AcDbSymbolTableRecord
100
AcDbLayerTableRecord
  2
0
 70
0
  6
CONTINUOUS
  0
ENDTAB
  0
TABLE
  2
STYLE
  5
3
330
0
100
AcDbSymbolTable
 70
     1
  0
STYLE
  5
11
330
3
100
AcDbSymbolTableRecord
100
AcDbTextStyleTableRecord
  2
STANDARD
 70
     0
 40
0.0
 41
1.0
 50
0.0
 71
     0
 42
2.5
  3
txt
  4

  0
ENDTAB
  0
TABLE
  2
VIEW
  5
6
330
0
100
AcDbSymbolTable
 70
     0
  0
ENDTAB
  0
TABLE
  2
UCS
  5
7
330
0
100
AcDbSymbolTable
 70
     0
  0
ENDTAB
  0
TABLE
  2
APPID
  5
9
330
0
100
AcDbSymbolTable
 70
     2
  0
APPID
  5
12
330
9
100
AcDbSymbolTableRecord
100
AcDbRegAppTableRecord
  2
ACAD
 70
     0
  0
ENDTAB
  0
TABLE
  2
DIMSTYLE
  5
A
330
0
100
AcDbSymbolTable
 70
     1
  0
DIMSTYLE
105
27
330
A
100
AcDbSymbolTableRecord
100
AcDbDimStyleTableRecord
  2
ISO-25
 70
     0
  3

  4

  5

  6

  7

 40
1.0
 41
2.5
 42
0.625
 43
3.75
 44
1.25
 45
0.0
 46
0.0
 47
0.0
 48
0.0
140
2.5
141
2.5
142
0.0
143
0.03937007874016
144
1.0
145
0.0
146
1.0
147
0.625
 71
     0
 72
     0
 73
     0
 74
     0
 75
     0
 76
     0
 77
     1
 78
     8
170
     0
171
     3
172
     1
173
     0
174
     0
175
     0
176
     0
177
     0
178
     0
270
     2
271
     2
272
     2
273
     2
274
     3
340
11
275
     0
280
     0
281
     0
282
     0
283
     0
284
     8
285
     0
286
     0
287
     3
288
     0
  0
ENDTAB
  0
TABLE
  2
BLOCK_RECORD
  5
1
330
0
100
AcDbSymbolTable
 70
     1
  0
BLOCK_RECORD
  5
1F
330
1
100
AcDbSymbolTableRecord
100
AcDbBlockTableRecord
  2
*MODEL_SPACE
  0
BLOCK_RECORD
  5
1B
330
1
100
AcDbSymbolTableRecord
100
AcDbBlockTableRecord
  2
*PAPER_SPACE
  0
ENDTAB
  0
ENDSEC
  0
SECTION
  2
BLOCKS
  0
BLOCK
  5
20
330
1F
100
AcDbEntity
  8
0
100
AcDbBlockBegin
  2
*MODEL_SPACE
 70
     0
 10
0.0
 20
0.0
 30
0.0
  3
*MODEL_SPACE
  1

  0
ENDBLK
  5
21
330
1F
100
AcDbEntity
  8
0
100
AcDbBlockEnd
  0
BLOCK
  5
1C
330
1B
100
AcDbEntity
 67
     1
  8
0
100
AcDbBlockBegin
  2
*PAPER_SPACE
  1

  0
ENDBLK
  5
1D
330
1B
100
AcDbEntity
 67
     1
  8
0
100
AcDbBlockEnd
  0
ENDSEC
  0
SECTION
  2
ENTITIES
  0
SPLINE
  5
100
100
AcDbEntity
  8
0
 62
7
100
AcDbSpline
 70
8
 71
3
 72
8
 73
4
 74
0
 40
0
 40
0
 40
0
 40
0
 40
1
 40
1
 40
1
 40
1
 10
188.660000
 20
555.920000
 30
0.0
 10
264.492930
 20
562.334495
 30
0.0
 10
342.779080
 20
524.887394
 30
0.0
 10
382.564400
 20
459.476831
 30
0.0
  0
SPLINE
  5
101
100
AcDbEntity
  8
0
 62
7
100
AcDbSpline
 70
8
 71
3
 72
8
 73
4
 74
0
 40
0
 40
0
 40
0
 40
0
 40
1
 40
1
 40
1
 40
1
 10
382.564400
 20
459.476831
 30
0.0
 10
437.652000
 20
373.448350
 30
0.0
 10
418.636070
 20
248.869400
 30
0.0
 10
339.710880
 20
183.752110
 30
0.0
  0
SPLINE
  5
102
100
AcDbEntity
  8
0
 62
7
100
AcDbSpline
 70
8
 71
3
 72
8
 73
4
 74
0
 40
0
 40
0
 40
0
 40
0
 40
1
 40
1
 40
1
 40
1
 10
339.710880
 20
183.752110
 30
0.0
 10
278.128040
 20
130.212050
 30
0.0
 10
183.477250
 20
117.861930
 30
0.0
 10
111.546910
 20
157.601870
 30
0.0
  0
SPLINE
  5
103
100
AcDbEntity
  8
0
 62
7
100
AcDbSpline
 70
8
 71
3
 72
8
 73
4
 74
0
 40
0
 40
0
 40
0
 40
0
 40
1
 40
1
 40
1
 40
1
 10
111.546910
 20
157.601870
 30
0.0
 10
42.426768
 20
193.683580
 30
0.0
 10
-2.428204
 20
270.317130
 30
0.0
 10
0.026034
 20
348.264980
 30
0.0
  0
SPLINE
  5
104
100
AcDbEntity
  8
0
 62
7
100
AcDbSpline
 70
8
 71
3
 72
8
 73
4
 74
0
 40
0
 40
0
 40
0
 40
0
 40
1
 40
1
 40
1
 40
1
 10
0.026034
 20
348.264980
 30
0.0
 10
0.334386
 20
432.089600
 30
0.0
 10
52.485323
 20
516.298911
 30
0.0
 10
133.141560
 20
544.421700
 30
0.0
  0
SPLINE
  5
105
100
AcDbEntity
  8
0
 62
7
100
AcDbSpline
 70
8
 71
3
 72
8
 73
4
 74
0
 40
0
 40
0
 40
0
 40
0
 40
1
 40
1
 40
1
 40
1
 10
133.141560
 20
544.421700
 30
0.0
 10
150.975890
 20
550.877037
 30
0.0
 10
169.745820
 20
554.651883
 30
0.0
 10
188.660000
 20
555.920000
 30
0.0
  0
SPLINE
  5
106
100
AcDbEntity
  8
0
 62
7
100
AcDbSpline
 70
8
 71
3
 72
8
 73
4
 74
0
 40
0
 40
0
 40
0
 40
0
 40
1
 40
1
 40
1
 40
1
 10
331.860000
 20
487.210000
 30
0.0
 10
267.875880
 20
548.628480
 30
0.0
 10
158.679580
 20
551.186916
 30
0.0
 10
90.963795
 20
494.368606
 30
0.0
  0
SPLINE
  5
107
100
AcDbEntity
  8
0
 62
7
100
AcDbSpline
 70
8
 71
3
 72
8
 73
4
 74
0
 40
0
 40
0
 40
0
 40
0
 40
1
 40
1
 40
1
 40
1
 10
90.963795
 20
494.368606
 30
0.0
 10
51.711254
 20
463.893746
 30
0.0
 10
26.909336
 20
416.745580
 30
0.0
 10
22.120000
 20
367.480000
 30
0.0
  0
SPLINE
  5
108
100
AcDbEntity
  8
0
 62
7
100
AcDbSpline
 70
8
 71
3
 72
8
 73
4
 74
0
 40
0
 40
0
 40
0
 40
0
 40
1
 40
1
 40
1
 40
1
 10
22.120000
 20
367.480000
 30
0.0
 10
36.643725
 20
360.673010
 30
0.0
 10
35.617350
 20
339.638530
 30
0.0
 10
41.342581
 20
332.017630
 30
0.0
  0
SPLINE
  5
109
100
AcDbEntity
  8
0
 62
7
100
AcDbSpline
 70
8
 71
3
 72
8
 73
4
 74
0
 40
0
 40
0
 40
0
 40
0
 40
1
 40
1
 40
1
 40
1
 10
41.342581
 20
332.017630
 30
0.0
 10
62.780494
 20
332.561560
 30
0.0
 10
61.883765
 20
302.061110
 30
0.0
 10
70.419082
 20
296.554060
 30
0.0
  0
SPLINE
  5
10a
100
AcDbEntity
  8
0
 62
7
100
AcDbSpline
 70
8
 71
3
 72
8
 73
4
 74
0
 40
0
 40
0
 40
0
 40
0
 40
1
 40
1
 40
1
 40
1
 10
70.419082
 20
296.554060
 30
0.0
 10
94.725349
 20
297.715600
 30
0.0
 10
101.336430
 20
269.551880
 30
0.0
 10
96.170937
 20
250.666250
 30
0.0
  0
SPLINE
  5
10b
100
AcDbEntity
  8
0
 62
7
100
AcDbSpline
 70
8
 71
3
 72
8
 73
4
 74
0
 40
0
 40
0
 40
0
 40
0
 40
1
 40
1
 40
1
 40
1
 10
96.170937
 20
250.666250
 30
0.0
 10
93.492654
 20
224.752140
 30
0.0
 10
126.951900
 20
207.559540
 30
0.0
 10
147.336650
 20
222.612550
 30
0.0
  0
SPLINE
  5
10c
100
AcDbEntity
  8
0
 62
7
100
AcDbSpline
 70
8
 71
3
 72
8
 73
4
 74
0
 40
0
 40
0
 40
0
 40
0
 40
1
 40
1
 40
1
 40
1
 10
147.336650
 20
222.612550
 30
0.0
 10
161.694210
 20
236.500800
 30
0.0
 10
184.477030
 20
232.478340
 30
0.0
 10
195.777500
 20
216.902500
 30
0.0
  0
SPLINE
  5
10d
100
AcDbEntity
  8
0
 62
7
100
AcDbSpline
 70
8
 71
3
 72
8
 73
4
 74
0
 40
0
 40
0
 40
0
 40
0
 40
1
 40
1
 40
1
 40
1
 10
195.777500
 20
216.902500
 30
0.0
 10
215.246540
 20
199.345100
 30
0.0
 10
234.488980
 20
234.993830
 30
0.0
 10
256.020230
 20
220.836480
 30
0.0
  0
SPLINE
  5
10e
100
AcDbEntity
  8
0
 62
7
100
AcDbSpline
 70
8
 71
3
 72
8
 73
4
 74
0
 40
0
 40
0
 40
0
 40
0
 40
1
 40
1
 40
1
 40
1
 10
256.020230
 20
220.836480
 30
0.0
 10
286.456730
 20
208.457160
 30
0.0
 10
323.095090
 20
226.855220
 30
0.0
 10
334.076110
 20
257.245200
 30
0.0
  0
SPLINE
  5
10f
100
AcDbEntity
  8
0
 62
7
100
AcDbSpline
 70
8
 71
3
 72
8
 73
4
 74
0
 40
0
 40
0
 40
0
 40
0
 40
1
 40
1
 40
1
 40
1
 10
334.076110
 20
257.245200
 30
0.0
 10
336.627880
 20
276.444980
 30
0.0
 10
358.780700
 20
279.313620
 30
0.0
 10
367.050160
 20
288.548400
 30
0.0
  0
SPLINE
  5
110
100
AcDbEntity
  8
0
 62
7
100
AcDbSpline
 70
8
 71
3
 72
8
 73
4
 74
0
 40
0
 40
0
 40
0
 40
0
 40
1
 40
1
 40
1
 40
1
 10
367.050160
 20
288.548400
 30
0.0
 10
367.375930
 20
308.365980
 30
0.0
 10
393.464320
 20
308.523650
 30
0.0
 10
392.084110
 20
326.463270
 30
0.0
  0
SPLINE
  5
111
100
AcDbEntity
  8
0
 62
7
100
AcDbSpline
 70
8
 71
3
 72
8
 73
4
 74
0
 40
0
 40
0
 40
0
 40
0
 40
1
 40
1
 40
1
 40
1
 10
392.084110
 20
326.463270
 30
0.0
 10
398.779130
 20
375.859750
 30
0.0
 10
384.219050
 20
427.810680
 30
0.0
 10
352.350000
 20
466.210000
 30
0.0
  0
SPLINE
  5
112
100
AcDbEntity
  8
0
 62
7
100
AcDbSpline
 70
8
 71
3
 72
8
 73
4
 74
0
 40
0
 40
0
 40
0
 40
0
 40
1
 40
1
 40
1
 40
1
 10
352.350000
 20
466.210000
 30
0.0
 10
358.571630
 20
433.537570
 30
0.0
 10
322.805070
 20
440.030380
 30
0.0
 10
302.274940
 20
440.833270
 30
0.0
  0
SPLINE
  5
113
100
AcDbEntity
  8
0
 62
7
100
AcDbSpline
 70
8
 71
3
 72
8
 73
4
 74
0
 40
0
 40
0
 40
0
 40
0
 40
1
 40
1
 40
1
 40
1
 10
302.274940
 20
440.833270
 30
0.0
 10
280.037460
 20
441.240560
 30
0.0
 10
280.452690
 20
415.660380
 30
0.0
 10
276.314260
 20
391.943160
 30
0.0
  0
SPLINE
  5
114
100
AcDbEntity
  8
0
 62
7
100
AcDbSpline
 70
8
 71
3
 72
8
 73
4
 74
0
 40
0
 40
0
 40
0
 40
0
 40
1
 40
1
 40
1
 40
1
 10
276.314260
 20
391.943160
 30
0.0
 10
271.734880
 20
356.469530
 30
0.0
 10
263.059720
 20
320.542730
 30
0.0
 10
273.243390
 20
285.670990
 30
0.0
  0
SPLINE
  5
115
100
AcDbEntity
  8
0
 62
7
100
AcDbSpline
 70
8
 71
3
 72
8
 73
4
 74
0
 40
0
 40
0
 40
0
 40
0
 40
1
 40
1
 40
1
 40
1
 10
273.243390
 20
285.670990
 30
0.0
 10
278.960910
 20
266.092070
 30
0.0
 10
303.687910
 20
266.651150
 30
0.0
 10
314.652770
 20
282.554020
 30
0.0
  0
SPLINE
  5
116
100
AcDbEntity
  8
0
 62
7
100
AcDbSpline
 70
8
 71
3
 72
8
 73
4
 74
0
 40
0
 40
0
 40
0
 40
0
 40
1
 40
1
 40
1
 40
1
 10
314.652770
 20
282.554020
 30
0.0
 10
323.041380
 20
298.273800
 30
0.0
 10
340.057480
 20
297.200750
 30
0.0
 10
333.008160
 20
279.378010
 30
0.0
  0
SPLINE
  5
117
100
AcDbEntity
  8
0
 62
7
100
AcDbSpline
 70
8
 71
3
 72
8
 73
4
 74
0
 40
0
 40
0
 40
0
 40
0
 40
1
 40
1
 40
1
 40
1
 10
333.008160
 20
279.378010
 30
0.0
 10
326.187900
 20
250.612460
 30
0.0
 10
299.531020
 20
220.595410
 30
0.0
 10
267.121980
 20
227.142260
 30
0.0
  0
SPLINE
  5
118
100
AcDbEntity
  8
0
 62
7
100
AcDbSpline
 70
8
 71
3
 72
8
 73
4
 74
0
 40
0
 40
0
 40
0
 40
0
 40
1
 40
1
 40
1
 40
1
 10
267.121980
 20
227.142260
 30
0.0
 10
237.456920
 20
234.752560
 30
0.0
 10
229.580440
 20
269.198770
 30
0.0
 10
230.346880
 20
295.827660
 30
0.0
  0
SPLINE
  5
119
100
AcDbEntity
  8
0
 62
7
100
AcDbSpline
 70
8
 71
3
 72
8
 73
4
 74
0
 40
0
 40
0
 40
0
 40
0
 40
1
 40
1
 40
1
 40
1
 10
230.346880
 20
295.827660
 30
0.0
 10
228.955400
 20
344.856080
 30
0.0
 10
240.811810
 20
392.753060
 30
0.0
 10
245.850000
 20
441.230000
 30
0.0
  0
LWPOLYLINE
  5
11a
100
AcDbEntity
  8
0
 62
7
100
AcDbPolyline
 90
1
 70
1
 10
188.660000
 20
555.920000
 30
0.0
  0
SPLINE
  5
11b
100
AcDbEntity
  8
0
 62
7
100
AcDbSpline
 70
8
 71
3
 72
8
 73
4
 74
0
 40
0
 40
0
 40
0
 40
0
 40
1
 40
1
 40
1
 40
1
 10
184.850000
 20
441.230000
 30
0.0
 10
176.377600
 20
382.102320
 30
0.0
 10
172.767030
 20
322.144690
 30
0.0
 10
160.140230
 20
263.691810
 30
0.0
  0
SPLINE
  5
11c
100
AcDbEntity
  8
0
 62
7
100
AcDbSpline
 70
8
 71
3
 72
8
 73
4
 74
0
 40
0
 40
0
 40
0
 40
0
 40
1
 40
1
 40
1
 40
1
 10
160.140230
 20
263.691810
 30
0.0
 10
155.841840
 20
247.296200
 30
0.0
 10
147.570640
 20
222.877950
 30
0.0
 10
126.432640
 20
224.975980
 30
0.0
  0
SPLINE
  5
11d
100
AcDbEntity
  8
0
 62
7
100
AcDbSpline
 70
8
 71
3
 72
8
 73
4
 74
0
 40
0
 40
0
 40
0
 40
0
 40
1
 40
1
 40
1
 40
1
 10
126.432640
 20
224.975980
 30
0.0
 10
104.882220
 20
227.817730
 30
0.0
 10
98.876245
 20
255.890470
 30
0.0
 10
109.546520
 20
272.223830
 30
0.0
  0
SPLINE
  5
11e
100
AcDbEntity
  8
0
 62
7
100
AcDbSpline
 70
8
 71
3
 72
8
 73
4
 74
0
 40
0
 40
0
 40
0
 40
0
 40
1
 40
1
 40
1
 40
1
 10
109.546520
 20
272.223830
 30
0.0
 10
141.726610
 20
322.580780
 30
0.0
 10
141.800530
 20
384.129630
 30
0.0
 10
150.860000
 20
441.220000
 30
0.0
  0
SPLINE
  5
11f
100
AcDbEntity
  8
0
 62
7
100
AcDbSpline
 70
8
 71
3
 72
8
 73
4
 74
0
 40
0
 40
0
 40
0
 40
0
 40
1
 40
1
 40
1
 40
1
 10
150.860000
 20
441.220000
 30
0.0
 10
134.249690
 20
441.454320
 30
0.0
 10
115.827860
 20
443.607020
 30
0.0
 10
101.929740
 20
432.498360
 30
0.0
  0
SPLINE
  5
120
100
AcDbEntity
  8
0
 62
7
100
AcDbSpline
 70
8
 71
3
 72
8
 73
4
 74
0
 40
0
 40
0
 40
0
 40
0
 40
1
 40
1
 40
1
 40
1
 10
101.929740
 20
432.498360
 30
0.0
 10
90.120504
 20
424.089450
 30
0.0
 10
79.340857
 20
390.378730
 30
0.0
 10
68.815749
 20
408.831770
 30
0.0
  0
SPLINE
  5
121
100
AcDbEntity
  8
0
 62
7
100
AcDbSpline
 70
8
 71
3
 72
8
 73
4
 74
0
 40
0
 40
0
 40
0
 40
0
 40
1
 40
1
 40
1
 40
1
 10
68.815749
 20
408.831770
 30
0.0
 10
76.868445
 20
438.799780
 30
0.0
 10
93.422953
 20
474.048568
 30
0.0
 10
125.944620
 20
485.162411
 30
0.0
  0
SPLINE
  5
122
100
AcDbEntity
  8
0
 62
7
100
AcDbSpline
 70
8
 71
3
 72
8
 73
4
 74
0
 40
0
 40
0
 40
0
 40
0
 40
1
 40
1
 40
1
 40
1
 10
125.944620
 20
485.162411
 30
0.0
 10
147.378970
 20
489.158706
 30
0.0
 10
169.478690
 20
486.422730
 30
0.0
 10
191.218840
 20
487.230000
 30
0.0
  0
SPLINE
  5
123
100
AcDbEntity
  8
0
 62
7
100
AcDbSpline
 70
8
 71
3
 72
8
 73
4
 74
0
 40
0
 40
0
 40
0
 40
0
 40
1
 40
1
 40
1
 40
1
 10
191.218840
 20
487.230000
 30
0.0
 10
238.095110
 20
487.216670
 30
0.0
 10
285.004340
 20
487.256660
 30
0.0
 10
331.860000
 20
487.210000
 30
0.0
  0
LWPOLYLINE
  5
124
100
AcDbEntity
  8
0
 62
7
100
AcDbPolyline
 90
2
 70
0
 10
245.850000
 20
441.230000
 30
0.0
 10
184.850000
 20
441.230000
 30
0.0
  0
SPLINE
  5
125
100
AcDbEntity
  8
0
 62
7
100
AcDbSpline
 70
8
 71
3
 72
8
 73
4
 74
0
 40
0
 40
0
 40
0
 40
0
 40
1
 40
1
 40
1
 40
1
 10
20.860000
 20
347.210000
 30
0.0
 10
21.892142
 20
339.926290
 30
0.0
 10
17.958625
 20
322.520520
 30
0.0
 10
25.360000
 20
323.220000
 30
0.0
  0
SPLINE
  5
126
100
AcDbEntity
  8
0
 62
7
100
AcDbSpline
 70
8
 71
3
 72
8
 73
4
 74
0
 40
0
 40
0
 40
0
 40
0
 40
1
 40
1
 40
1
 40
1
 10
25.360000
 20
323.220000
 30
0.0
 10
29.039964
 20
330.581770
 30
0.0
 10
26.220171
 20
341.332540
 30
0.0
 10
20.860000
 20
347.210000
 30
0.0
  0
LWPOLYLINE
  5
127
100
AcDbEntity
  8
0
 62
7
100
AcDbPolyline
 90
1
 70
1
 10
331.860000
 20
487.210000
 30
0.0
  0
SPLINE
  5
128
100
AcDbEntity
  8
0
 62
7
100
AcDbSpline
 70
8
 71
3
 72
8
 73
4
 74
0
 40
0
 40
0
 40
0
 40
0
 40
1
 40
1
 40
1
 40
1
 10
49.620000
 20
288.450000
 30
0.0
 10
59.287582
 20
302.216060
 30
0.0
 10
29.026178
 20
320.240190
 30
0.0
 10
36.038750
 20
296.933110
 30
0.0
  0
SPLINE
  5
129
100
AcDbEntity
  8
0
 62
7
100
AcDbSpline
 70
8
 71
3
 72
8
 73
4
 74
0
 40
0
 40
0
 40
0
 40
0
 40
1
 40
1
 40
1
 40
1
 10
36.038750
 20
296.933110
 30
0.0
 10
37.536354
 20
291.880820
 30
0.0
 10
43.615410
 20
282.659820
 30
0.0
 10
49.620000
 20
288.450000
 30
0.0
  0
LWPOLYLINE
  5
12a
100
AcDbEntity
  8
0
 62
7
100
AcDbPolyline
 90
1
 70
1
 10
20.860000
 20
347.210000
 30
0.0
  0
SPLINE
  5
12b
100
AcDbEntity
  8
0
 62
7
100
AcDbSpline
 70
8
 71
3
 72
8
 73
4
 74
0
 40
0
 40
0
 40
0
 40
0
 40
1
 40
1
 40
1
 40
1
 10
379.850000
 20
275.210000
 30
0.0
 10
382.183330
 20
283.543330
 30
0.0
 10
384.516670
 20
291.876670
 30
0.0
 10
386.850000
 20
300.210000
 30
0.0
  0
SPLINE
  5
12c
100
AcDbEntity
  8
0
 62
7
100
AcDbSpline
 70
8
 71
3
 72
8
 73
4
 74
0
 40
0
 40
0
 40
0
 40
0
 40
1
 40
1
 40
1
 40
1
 10
386.850000
 20
300.210000
 30
0.0
 10
380.900950
 20
296.122980
 30
0.0
 10
373.809830
 20
278.565590
 30
0.0
 10
379.850000
 20
275.210000
 30
0.0
  0
LWPOLYLINE
  5
12d
100
AcDbEntity
  8
0
 62
7
100
AcDbPolyline
 90
1
 70
1
 10
49.620000
 20
288.450000
 30
0.0
  0
SPLINE
  5
12e
100
AcDbEntity
  8
0
 62
7
100
AcDbSpline
 70
8
 71
3
 72
8
 73
4
 74
0
 40
0
 40
0
 40
0
 40
0
 40
1
 40
1
 40
1
 40
1
 10
80.620000
 20
251.460000
 30
0.0
 10
90.649738
 20
266.293950
 30
0.0
 10
54.612326
 20
285.638410
 30
0.0
 10
64.489922
 20
261.325230
 30
0.0
  0
SPLINE
  5
12f
100
AcDbEntity
  8
0
 62
7
100
AcDbSpline
 70
8
 71
3
 72
8
 73
4
 74
0
 40
0
 40
0
 40
0
 40
0
 40
1
 40
1
 40
1
 40
1
 10
64.489922
 20
261.325230
 30
0.0
 10
67.220985
 20
256.290270
 30
0.0
 10
74.168908
 20
246.620000
 30
0.0
 10
80.620000
 20
251.460000
 30
0.0
  0
LWPOLYLINE
  5
130
100
AcDbEntity
  8
0
 62
7
100
AcDbPolyline
 90
1
 70
1
 10
379.850000
 20
275.210000
 30
0.0
  0
SPLINE
  5
131
100
AcDbEntity
  8
0
 62
7
100
AcDbSpline
 70
8
 71
3
 72
8
 73
4
 74
0
 40
0
 40
0
 40
0
 40
0
 40
1
 40
1
 40
1
 40
1
 10
48.860000
 20
248.220000
 30
0.0
 10
49.301372
 20
259.100780
 30
0.0
 10
29.912926
 20
273.555640
 30
0.0
 10
41.297500
 20
255.140000
 30
0.0
  0
SPLINE
  5
132
100
AcDbEntity
  8
0
 62
7
100
AcDbSpline
 70
8
 71
3
 72
8
 73
4
 74
0
 40
0
 40
0
 40
0
 40
0
 40
1
 40
1
 40
1
 40
1
 10
41.297500
 20
255.140000
 30
0.0
 10
43.226829
 20
253.144690
 30
0.0
 10
45.055322
 20
246.912560
 30
0.0
 10
48.860000
 20
248.220000
 30
0.0
  0
LWPOLYLINE
  5
133
100
AcDbEntity
  8
0
 62
7
100
AcDbPolyline
 90
1
 70
1
 10
80.620000
 20
251.460000
 30
0.0
  0
SPLINE
  5
134
100
AcDbEntity
  8
0
 62
7
100
AcDbSpline
 70
8
 71
3
 72
8
 73
4
 74
0
 40
0
 40
0
 40
0
 40
0
 40
1
 40
1
 40
1
 40
1
 10
357.540000
 20
262.080000
 30
0.0
 10
342.625730
 20
260.034670
 30
0.0
 10
341.650730
 20
226.714840
 30
0.0
 10
355.762500
 20
248.102500
 30
0.0
  0
SPLINE
  5
135
100
AcDbEntity
  8
0
 62
7
100
AcDbSpline
 70
8
 71
3
 72
8
 73
4
 74
0
 40
0
 40
0
 40
0
 40
0
 40
1
 40
1
 40
1
 40
1
 10
355.762500
 20
248.102500
 30
0.0
 10
357.151200
 20
251.484270
 30
0.0
 10
363.315860
 20
259.821570
 30
0.0
 10
357.540000
 20
262.080000
 30
0.0
  0
LWPOLYLINE
  5
136
100
AcDbEntity
  8
0
 62
7
100
AcDbPolyline
 90
1
 70
1
 10
48.860000
 20
248.220000
 30
0.0
  0
SPLINE
  5
137
100
AcDbEntity
  8
0
 62
7
100
AcDbSpline
 70
8
 71
3
 72
8
 73
4
 74
0
 40
0
 40
0
 40
0
 40
0
 40
1
 40
1
 40
1
 40
1
 10
78.860000
 20
214.210000
 30
0.0
 10
82.946291
 20
226.606060
 30
0.0
 10
54.249602
 20
238.593120
 30
0.0
 10
68.106250
 20
220.447500
 30
0.0
  0
SPLINE
  5
138
100
AcDbEntity
  8
0
 62
7
100
AcDbSpline
 70
8
 71
3
 72
8
 73
4
 74
0
 40
0
 40
0
 40
0
 40
0
 40
1
 40
1
 40
1
 40
1
 10
68.106250
 20
220.447500
 30
0.0
 10
70.877588
 20
217.648290
 30
0.0
 10
74.360055
 20
213.332790
 30
0.0
 10
78.860000
 20
214.210000
 30
0.0
  0
LWPOLYLINE
  5
139
100
AcDbEntity
  8
0
 62
7
100
AcDbPolyline
 90
1
 70
1
 10
357.540000
 20
262.080000
 30
0.0
  0
SPLINE
  5
13a
100
AcDbEntity
  8
0
 62
7
100
AcDbSpline
 70
8
 71
3
 72
8
 73
4
 74
0
 40
0
 40
0
 40
0
 40
0
 40
1
 40
1
 40
1
 40
1
 10
319.600000
 20
212.010000
 30
0.0
 10
306.356060
 20
210.042050
 30
0.0
 10
300.836860
 20
188.687840
 30
0.0
 10
318.565000
 20
201.524530
 30
0.0
  0
SPLINE
  5
13b
100
AcDbEntity
  8
0
 62
7
100
AcDbSpline
 70
8
 71
3
 72
8
 73
4
 74
0
 40
0
 40
0
 40
0
 40
0
 40
1
 40
1
 40
1
 40
1
 10
318.565000
 20
201.524530
 30
0.0
 10
321.973520
 20
203.383060
 30
0.0
 10
329.491060
 20
214.377420
 30
0.0
 10
319.600000
 20
212.010000
 30
0.0
  0
LWPOLYLINE
  5
13c
100
AcDbEntity
  8
0
 62
7
100
AcDbPolyline
 90
1
 70
1
 10
78.860000
 20
214.210000
 30
0.0
  0
SPLINE
  5
13d
100
AcDbEntity
  8
0
 62
7
100
AcDbSpline
 70
8
 71
3
 72
8
 73
4
 74
0
 40
0
 40
0
 40
0
 40
0
 40
1
 40
1
 40
1
 40
1
 10
153.210000
 20
195.560000
 30
0.0
 10
162.287450
 20
183.894310
 30
0.0
 10
184.075280
 20
198.094050
 30
0.0
 10
164.801720
 20
205.341870
 30
0.0
  0
SPLINE
  5
13e
100
AcDbEntity
  8
0
 62
7
100
AcDbSpline
 70
8
 71
3
 72
8
 73
4
 74
0
 40
0
 40
0
 40
0
 40
0
 40
1
 40
1
 40
1
 40
1
 10
164.801720
 20
205.341870
 30
0.0
 10
158.609920
 20
208.553070
 30
0.0
 10
144.579980
 20
203.783550
 30
0.0
 10
153.210000
 20
195.560000
 30
0.0
  0
LWPOLYLINE
  5
13f
100
AcDbEntity
  8
0
 62
7
100
AcDbPolyline
 90
1
 70
1
 10
319.600000
 20
212.010000
 30
0.0
  0
SPLINE
  5
140
100
AcDbEntity
  8
0
 62
7
100
AcDbSpline
 70
8
 71
3
 72
8
 73
4
 74
0
 40
0
 40
0
 40
0
 40
0
 40
1
 40
1
 40
1
 40
1
 10
227.110000
 20
189.450000
 30
0.0
 10
239.443860
 20
178.352680
 30
0.0
 10
260.293840
 20
202.999170
 30
0.0
 10
236.557500
 20
199.965000
 30
0.0
  0
SPLINE
  5
141
100
AcDbEntity
  8
0
 62
7
100
AcDbSpline
 70
8
 71
3
 72
8
 73
4
 74
0
 40
0
 40
0
 40
0
 40
0
 40
1
 40
1
 40
1
 40
1
 10
236.557500
 20
199.965000
 30
0.0
 10
232.105900
 20
199.468850
 30
0.0
 10
223.011400
 20
195.259160
 30
0.0
 10
227.110000
 20
189.450000
 30
0.0
  0
LWPOLYLINE
  5
142
100
AcDbEntity
  8
0
 62
7
100
AcDbPolyline
 90
1
 70
1
 10
153.210000
 20
195.560000
 30
0.0
  0
SPLINE
  5
143
100
AcDbEntity
  8
0
 62
7
100
AcDbSpline
 70
8
 71
3
 72
8
 73
4
 74
0
 40
0
 40
0
 40
0
 40
0
 40
1
 40
1
 40
1
 40
1
 10
124.870000
 20
185.220000
 30
0.0
 10
127.180620
 20
201.489350
 30
0.0
 10
91.642557
 20
202.920040
 30
0.0
 10
111.603750
 20
187.840000
 30
0.0
  0
SPLINE
  5
144
100
AcDbEntity
  8
0
 62
7
100
AcDbSpline
 70
8
 71
3
 72
8
 73
4
 74
0
 40
0
 40
0
 40
0
 40
0
 40
1
 40
1
 40
1
 40
1
 10
111.603750
 20
187.840000
 30
0.0
 10
115.637340
 20
185.724290
 30
0.0
 10
120.321190
 20
184.650840
 30
0.0
 10
124.870000
 20
185.220000
 30
0.0
  0
LWPOLYLINE
  5
145
100
AcDbEntity
  8
0
 62
7
100
AcDbPolyline
 90
1
 70
1
 10
227.110000
 20
189.450000
 30
0.0
  0
SPLINE
  5
146
100
AcDbEntity
  8
0
 62
7
100
AcDbSpline
 70
8
 71
3
 72
8
 73
4
 74
0
 40
0
 40
0
 40
0
 40
0
 40
1
 40
1
 40
1
 40
1
 10
274.580000
 20
182.990000
 30
0.0
 10
260.055680
 20
180.921320
 30
0.0
 10
263.115920
 20
163.793930
 30
0.0
 10
277.327810
 20
173.833910
 30
0.0
  0
SPLINE
  5
147
100
AcDbEntity
  8
0
 62
7
100
AcDbSpline
 70
8
 71
3
 72
8
 73
4
 74
0
 40
0
 40
0
 40
0
 40
0
 40
1
 40
1
 40
1
 40
1
 10
277.327810
 20
173.833910
 30
0.0
 10
286.184190
 20
177.910930
 30
0.0
 10
284.776110
 20
186.441200
 30
0.0
 10
274.580000
 20
182.990000
 30
0.0
  0
LWPOLYLINE
  5
148
100
AcDbEntity
  8
0
 62
7
100
AcDbPolyline
 90
1
 70
1
 10
124.870000
 20
185.220000
 30
0.0
  0
SPLINE
  5
149
100
AcDbEntity
  8
0
 62
7
100
AcDbSpline
 70
8
 71
3
 72
8
 73
4
 74
0
 40
0
 40
0
 40
0
 40
0
 40
1
 40
1
 40
1
 40
1
 10
188.140000
 20
175.950000
 30
0.0
 10
182.226540
 20
158.260450
 30
0.0
 10
225.527700
 20
170.565770
 30
0.0
 10
200.823750
 20
178.020000
 30
0.0
  0
SPLINE
  5
14a
100
AcDbEntity
  8
0
 62
7
100
AcDbSpline
 70
8
 71
3
 72
8
 73
4
 74
0
 40
0
 40
0
 40
0
 40
0
 40
1
 40
1
 40
1
 40
1
 10
200.823750
 20
178.020000
 30
0.0
 10
196.641490
 20
178.552120
 30
0.0
 10
191.588330
 20
178.898090
 30
0.0
 10
188.140000
 20
175.950000
 30
0.0
  0
LWPOLYLINE
  5
14b
100
AcDbEntity
  8
0
 62
7
100
AcDbPolyline
 90
1
 70
1
 10
274.580000
 20
182.990000
 30
0.0
  0
SPLINE
  5
14c
100
AcDbEntity
  8
0
 62
7
100
AcDbSpline
 70
8
 71
3
 72
8
 73
4
 74
0
 40
0
 40
0
 40
0
 40
0
 40
1
 40
1
 40
1
 40
1
 10
299.860000
 20
143.210000
 30
0.0
 10
299.840000
 20
138.330000
 30
0.0
 10
297.730000
 20
130.840000
 30
0.0
 10
294.400000
 20
127.160000
 30
0.0
  0
SPLINE
  5
14d
100
AcDbEntity
  8
0
 62
7
100
AcDbSpline
 70
8
 71
3
 72
8
 73
4
 74
0
 40
0
 40
0
 40
0
 40
0
 40
1
 40
1
 40
1
 40
1
 10
294.400000
 20
127.160000
 30
0.0
 10
287.120000
 20
119.100000
 30
0.0
 10
269.240000
 20
110.000000
 30
0.0
 10
259.840000
 20
101.720000
 30
0.0
  0
SPLINE
  5
14e
100
AcDbEntity
  8
0
 62
7
100
AcDbSpline
 70
8
 71
3
 72
8
 73
4
 74
0
 40
0
 40
0
 40
0
 40
0
 40
1
 40
1
 40
1
 40
1
 10
259.840000
 20
101.720000
 30
0.0
 10
230.470000
 20
75.840000
 30
0.0
 10
232.360000
 20
36.810000
 30
0.0
 10
220.860000
 20
1.950000
 30
0.0
  0
SPLINE
  5
14f
100
AcDbEntity
  8
0
 62
7
100
AcDbSpline
 70
8
 71
3
 72
8
 73
4
 74
0
 40
0
 40
0
 40
0
 40
0
 40
1
 40
1
 40
1
 40
1
 10
220.860000
 20
1.950000
 30
0.0
 10
219.950000
 20
0.250000
 30
0.0
 10
217.040000
 20
0.280000
 30
0.0
 10
215.400000
 20
0.160000
 30
0.0
  0
SPLINE
  5
150
100
AcDbEntity
  8
0
 62
7
100
AcDbSpline
 70
8
 71
3
 72
8
 73
4
 74
0
 40
0
 40
0
 40
0
 40
0
 40
1
 40
1
 40
1
 40
1
 10
215.400000
 20
0.160000
 30
0.0
 10
211.970000
 20
-0.080000
 30
0.0
 10
192.450000
 20
-0.320000
 30
0.0
 10
191.330000
 20
1.180000
 30
0.0
  0
SPLINE
  5
151
100
AcDbEntity
  8
0
 62
7
100
AcDbSpline
 70
8
 71
3
 72
8
 73
4
 74
0
 40
0
 40
0
 40
0
 40
0
 40
1
 40
1
 40
1
 40
1
 10
191.330000
 20
1.180000
 30
0.0
 10
182.700000
 20
33.460000
 30
0.0
 10
183.150000
 20
74.820000
 30
0.0
 10
156.870000
 20
98.720000
 30
0.0
  0
SPLINE
  5
152
100
AcDbEntity
  8
0
 62
7
100
AcDbSpline
 70
8
 71
3
 72
8
 73
4
 74
0
 40
0
 40
0
 40
0
 40
0
 40
1
 40
1
 40
1
 40
1
 10
156.870000
 20
98.720000
 30
0.0
 10
146.330000
 20
108.310000
 30
0.0
 10
126.610000
 20
117.980000
 30
0.0
 10
118.310000
 20
127.160000
 30
0.0
  0
SPLINE
  5
153
100
AcDbEntity
  8
0
 62
7
100
AcDbSpline
 70
8
 71
3
 72
8
 73
4
 74
0
 40
0
 40
0
 40
0
 40
0
 40
1
 40
1
 40
1
 40
1
 10
118.310000
 20
127.160000
 30
0.0
 10
115.760000
 20
129.990000
 30
0.0
 10
112.810000
 20
137.900000
 30
0.0
 10
112.820000
 20
141.700000
 30
0.0
  0
SPLINE
  5
154
100
AcDbEntity
  8
0
 62
7
100
AcDbSpline
 70
8
 71
3
 72
8
 73
4
 74
0
 40
0
 40
0
 40
0
 40
0
 40
1
 40
1
 40
1
 40
1
 10
112.820000
 20
141.700000
 30
0.0
 10
112.820000
 20
144.320000
 30
0.0
 10
117.330000
 20
143.400000
 30
0.0
 10
119.130000
 20
142.980000
 30
0.0
  0
SPLINE
  5
155
100
AcDbEntity
  8
0
 62
7
100
AcDbSpline
 70
8
 71
3
 72
8
 73
4
 74
0
 40
0
 40
0
 40
0
 40
0
 40
1
 40
1
 40
1
 40
1
 10
119.130000
 20
142.980000
 30
0.0
 10
122.410000
 20
142.210000
 30
0.0
 10
125.330000
 20
139.260000
 30
0.0
 10
128.170000
 20
138.030000
 30
0.0
  0
SPLINE
  5
156
100
AcDbEntity
  8
0
 62
7
100
AcDbSpline
 70
8
 71
3
 72
8
 73
4
 74
0
 40
0
 40
0
 40
0
 40
0
 40
1
 40
1
 40
1
 40
1
 10
128.170000
 20
138.030000
 30
0.0
 10
173.990000
 20
118.060000
 30
0.0
 10
221.860000
 20
115.660000
 30
0.0
 10
269.360000
 20
132.190000
 30
0.0
  0
SPLINE
  5
157
100
AcDbEntity
  8
0
 62
7
100
AcDbSpline
 70
8
 71
3
 72
8
 73
4
 74
0
 40
0
 40
0
 40
0
 40
0
 40
1
 40
1
 40
1
 40
1
 10
269.360000
 20
132.190000
 30
0.0
 10
276.640000
 20
134.720000
 30
0.0
 10
286.770000
 20
141.120000
 30
0.0
 10
292.810000
 20
142.740000
 30
0.0
  0
SPLINE
  5
158
100
AcDbEntity
  8
0
 62
7
100
AcDbSpline
 70
8
 71
3
 72
8
 73
4
 74
0
 40
0
 40
0
 40
0
 40
0
 40
1
 40
1
 40
1
 40
1
 10
292.810000
 20
142.740000
 30
0.0
 10
295.180000
 20
143.370000
 30
0.0
 10
297.440000
 20
143.310000
 30
0.0
 10
299.850000
 20
143.210000
 30
0.0
  0
LWPOLYLINE
  5
159
100
AcDbEntity
  8
0
 62
7
100
AcDbPolyline
 90
1
 70
1
 10
188.140000
 20
175.950000
 30
0.0
  0
SPLINE
  5
15a
100
AcDbEntity
  8
0
 62
7
100
AcDbSpline
 70
8
 71
3
 72
8
 73
4
 74
0
 40
0
 40
0
 40
0
 40
0
 40
1
 40
1
 40
1
 40
1
 10
95.870000
 20
320.220000
 30
0.0
 10
94.710000
 20
323.800000
 30
0.0
 10
91.260000
 20
329.840000
 30
0.0
 10
88.370000
 20
332.230000
 30
0.0
  0
SPLINE
  5
15b
100
AcDbEntity
  8
0
 62
7
100
AcDbSpline
 70
8
 71
3
 72
8
 73
4
 74
0
 40
0
 40
0
 40
0
 40
0
 40
1
 40
1
 40
1
 40
1
 10
88.370000
 20
332.230000
 30
0.0
 10
84.460000
 20
335.460000
 30
0.0
 10
80.720000
 20
334.950000
 30
0.0
 10
76.200000
 20
336.080000
 30
0.0
  0
SPLINE
  5
15c
100
AcDbEntity
  8
0
 62
7
100
AcDbSpline
 70
8
 71
3
 72
8
 73
4
 74
0
 40
0
 40
0
 40
0
 40
0
 40
1
 40
1
 40
1
 40
1
 10
76.200000
 20
336.080000
 30
0.0
 10
75.180000
 20
336.330000
 30
0.0
 10
73.040000
 20
335.700000
 30
0.0
 10
73.870000
 20
337.710000
 30
0.0
  0
SPLINE
  5
15d
100
AcDbEntity
  8
0
 62
7
100
AcDbSpline
 70
8
 71
3
 72
8
 73
4
 74
0
 40
0
 40
0
 40
0
 40
0
 40
1
 40
1
 40
1
 40
1
 10
73.870000
 20
337.710000
 30
0.0
 10
76.380000
 20
343.820000
 30
0.0
 10
87.230000
 20
340.540000
 30
0.0
 10
91.360000
 20
337.220000
 30
0.0
  0
SPLINE
  5
15e
100
AcDbEntity
  8
0
 62
7
100
AcDbSpline
 70
8
 71
3
 72
8
 73
4
 74
0
 40
0
 40
0
 40
0
 40
0
 40
1
 40
1
 40
1
 40
1
 10
91.360000
 20
337.220000
 30
0.0
 10
95.260000
 20
334.090000
 30
0.0
 10
100.940000
 20
323.990000
 30
0.0
 10
95.870000
 20
320.220000
 30
0.0
  0
LWPOLYLINE
  5
15f
100
AcDbEntity
  8
0
 62
7
100
AcDbPolyline
 90
2
 70
0
 10
299.850000
 20
143.210000
 30
0.0
 10
299.860000
 20
143.210000
 30
0.0
  0
SPLINE
  5
160
100
AcDbEntity
  8
0
 62
7
100
AcDbSpline
 70
8
 71
3
 72
8
 73
4
 74
0
 40
0
 40
0
 40
0
 40
0
 40
1
 40
1
 40
1
 40
1
 10
226.850000
 20
239.210000
 30
0.0
 10
219.010000
 20
246.350000
 30
0.0
 10
211.620000
 20
249.330000
 30
0.0
 10
202.350000
 20
242.220000
 30
0.0
  0
SPLINE
  5
161
100
AcDbEntity
  8
0
 62
7
100
AcDbSpline
 70
8
 71
3
 72
8
 73
4
 74
0
 40
0
 40
0
 40
0
 40
0
 40
1
 40
1
 40
1
 40
1
 10
202.350000
 20
242.220000
 30
0.0
 10
202.530000
 20
257.310000
 30
0.0
 10
228.200000
 20
253.390000
 30
0.0
 10
226.850000
 20
239.210000
 30
0.0
  0
LWPOLYLINE
  5
162
100
AcDbEntity
  8
0
 62
7
100
AcDbPolyline
 90
1
 70
1
 10
95.870000
 20
320.220000
 30
0.0
  0
SPLINE
  5
163
100
AcDbEntity
  8
0
 62
7
100
AcDbSpline
 70
8
 71
3
 72
8
 73
4
 74
0
 40
0
 40
0
 40
0
 40
0
 40
1
 40
1
 40
1
 40
1
 10
350.850000
 20
297.210000
 30
0.0
 10
344.190000
 20
302.050000
 30
0.0
 10
349.170000
 20
315.670000
 30
0.0
 10
354.900000
 20
319.670000
 30
0.0
  0
SPLINE
  5
164
100
AcDbEntity
  8
0
 62
7
100
AcDbSpline
 70
8
 71
3
 72
8
 73
4
 74
0
 40
0
 40
0
 40
0
 40
0
 40
1
 40
1
 40
1
 40
1
 10
354.900000
 20
319.670000
 30
0.0
 10
357.930000
 20
321.790000
 30
0.0
 10
362.600000
 20
323.570000
 30
0.0
 10
364.840000
 20
319.710000
 30
0.0
  0
SPLINE
  5
165
100
AcDbEntity
  8
0
 62
7
100
AcDbSpline
 70
8
 71
3
 72
8
 73
4
 74
0
 40
0
 40
0
 40
0
 40
0
 40
1
 40
1
 40
1
 40
1
 10
364.840000
 20
319.710000
 30
0.0
 10
355.900000
 20
315.270000
 30
0.0
 10
351.070000
 20
307.180000
 30
0.0
 10
350.850000
 20
297.210000
 30
0.0
  0
LWPOLYLINE
  5
166
100
AcDbEntity
  8
0
 62
7
100
AcDbPolyline
 90
1
 70
1
 10
226.850000
 20
239.210000
 30
0.0
  0
SPLINE
  5
167
100
AcDbEntity
  8
0
 62
7
100
AcDbSpline
 70
8
 71
3
 72
8
 73
4
 74
0
 40
0
 40
0
 40
0
 40
0
 40
1
 40
1
 40
1
 40
1
 10
63.850000
 20
349.210000
 30
0.0
 10
60.020000
 20
352.730000
 30
0.0
 10
59.070000
 20
358.310000
 30
0.0
 10
55.250000
 20
362.100000
 30
0.0
  0
SPLINE
  5
168
100
AcDbEntity
  8
0
 62
7
100
AcDbSpline
 70
8
 71
3
 72
8
 73
4
 74
0
 40
0
 40
0
 40
0
 40
0
 40
1
 40
1
 40
1
 40
1
 10
55.250000
 20
362.100000
 30
0.0
 10
52.780000
 20
364.550000
 30
0.0
 10
48.150000
 20
365.080000
 30
0.0
 10
48.860000
 20
369.200000
 30
0.0
  0
SPLINE
  5
169
100
AcDbEntity
  8
0
 62
7
100
AcDbSpline
 70
8
 71
3
 72
8
 73
4
 74
0
 40
0
 40
0
 40
0
 40
0
 40
1
 40
1
 40
1
 40
1
 10
48.860000
 20
369.200000
 30
0.0
 10
59.310000
 20
369.850000
 30
0.0
 10
65.450000
 20
358.630000
 30
0.0
 10
63.850000
 20
349.210000
 30
0.0
  0
LWPOLYLINE
  5
16a
100
AcDbEntity
  8
0
 62
7
100
AcDbPolyline
 90
1
 70
1
 10
350.850000
 20
297.210000
 30
0.0
  0
SPLINE
  5
16b
100
AcDbEntity
  8
0
 62
7
100
AcDbSpline
 70
8
 71
3
 72
8
 73
4
 74
0
 40
0
 40
0
 40
0
 40
0
 40
1
 40
1
 40
1
 40
1
 10
199.850000
 20
268.210000
 30
0.0
 10
195.966690
 20
270.168270
 30
0.0
 10
192.127930
 20
272.518450
 30
0.0
 10
187.743790
 20
273.128710
 30
0.0
  0
SPLINE
  5
16c
100
AcDbEntity
  8
0
 62
7
100
AcDbSpline
 70
8
 71
3
 72
8
 73
4
 74
0
 40
0
 40
0
 40
0
 40
0
 40
1
 40
1
 40
1
 40
1
 10
187.743790
 20
273.128710
 30
0.0
 10
186.161900
 20
273.413640
 30
0.0
 10
184.521230
 20
273.316020
 30
0.0
 10
182.992130
 20
272.818240
 30
0.0
  0
SPLINE
  5
16d
100
AcDbEntity
  8
0
 62
7
100
AcDbSpline
 70
8
 71
3
 72
8
 73
4
 74
0
 40
0
 40
0
 40
0
 40
0
 40
1
 40
1
 40
1
 40
1
 10
182.992130
 20
272.818240
 30
0.0
 10
181.767110
 20
272.517930
 30
0.0
 10
180.489550
 20
272.182500
 30
0.0
 10
179.224830
 20
272.438430
 30
0.0
  0
SPLINE
  5
16e
100
AcDbEntity
  8
0
 62
7
100
AcDbSpline
 70
8
 71
3
 72
8
 73
4
 74
0
 40
0
 40
0
 40
0
 40
0
 40
1
 40
1
 40
1
 40
1
 10
179.224830
 20
272.438430
 30
0.0
 10
178.398770
 20
272.907860
 30
0.0
 10
178.858670
 20
273.945170
 30
0.0
 10
179.260430
 20
274.550400
 30
0.0
  0
SPLINE
  5
16f
100
AcDbEntity
  8
0
 62
7
100
AcDbSpline
 70
8
 71
3
 72
8
 73
4
 74
0
 40
0
 40
0
 40
0
 40
0
 40
1
 40
1
 40
1
 40
1
 10
179.260430
 20
274.550400
 30
0.0
 10
180.543420
 20
276.834480
 30
0.0
 10
183.270890
 20
277.881320
 30
0.0
 10
185.790060
 20
277.853980
 30
0.0
  0
SPLINE
  5
170
100
AcDbEntity
  8
0
 62
7
100
AcDbSpline
 70
8
 71
3
 72
8
 73
4
 74
0
 40
0
 40
0
 40
0
 40
0
 40
1
 40
1
 40
1
 40
1
 10
185.790060
 20
277.853980
 30
0.0
 10
190.060810
 20
277.874780
 30
0.0
 10
194.255300
 20
276.281820
 30
0.0
 10
197.654610
 20
273.743370
 30
0.0
  0
SPLINE
  5
171
100
AcDbEntity
  8
0
 62
7
100
AcDbSpline
 70
8
 71
3
 72
8
 73
4
 74
0
 40
0
 40
0
 40
0
 40
0
 40
1
 40
1
 40
1
 40
1
 10
197.654610
 20
273.743370
 30
0.0
 10
198.864340
 20
272.765690
 30
0.0
 10
200.091300
 20
271.528010
 30
0.0
 10
200.323250
 20
269.922660
 30
0.0
  0
SPLINE
  5
172
100
AcDbEntity
  8
0
 62
7
100
AcDbSpline
 70
8
 71
3
 72
8
 73
4
 74
0
 40
0
 40
0
 40
0
 40
0
 40
1
 40
1
 40
1
 40
1
 10
200.323250
 20
269.922660
 30
0.0
 10
200.374350
 20
269.321480
 30
0.0
 10
200.234650
 20
268.685900
 30
0.0
 10
199.850000
 20
268.210000
 30
0.0
  0
LWPOLYLINE
  5
173
100
AcDbEntity
  8
0
 62
7
100
AcDbPolyline
 90
1
 70
1
 10
63.850000
 20
349.210000
 30
0.0
  0
SPLINE
  5
174
100
AcDbEntity
  8
0
 62
7
100
AcDbSpline
 70
8
 71
3
 72
8
 73
4
 74
0
 40
0
 40
0
 40
0
 40
0
 40
1
 40
1
 40
1
 40
1
 10
376.860000
 20
355.210000
 30
0.0
 10
374.840000
 20
348.170000
 30
0.0
 10
375.120000
 20
341.840000
 30
0.0
 10
374.860000
 20
334.710000
 30
0.0
  0
SPLINE
  5
175
100
AcDbEntity
  8
0
 62
7
100
AcDbSpline
 70
8
 71
3
 72
8
 73
4
 74
0
 40
0
 40
0
 40
0
 40
0
 40
1
 40
1
 40
1
 40
1
 10
374.860000
 20
334.710000
 30
0.0
 10
374.820000
 20
333.500000
 30
0.0
 10
375.610000
 20
330.990000
 30
0.0
 10
373.870000
 20
331.230000
 30
0.0
  0
SPLINE
  5
176
100
AcDbEntity
  8
0
 62
7
100
AcDbSpline
 70
8
 71
3
 72
8
 73
4
 74
0
 40
0
 40
0
 40
0
 40
0
 40
1
 40
1
 40
1
 40
1
 10
373.870000
 20
331.230000
 30
0.0
 10
371.270000
 20
338.620000
 30
0.0
 10
370.160000
 20
343.950000
 30
0.0
 10
373.140000
 20
351.460000
 30
0.0
  0
SPLINE
  5
177
100
AcDbEntity
  8
0
 62
7
100
AcDbSpline
 70
8
 71
3
 72
8
 73
4
 74
0
 40
0
 40
0
 40
0
 40
0
 40
1
 40
1
 40
1
 40
1
 10
373.140000
 20
351.460000
 30
0.0
 10
373.700000
 20
352.860000
 30
0.0
 10
374.710000
 20
355.900000
 30
0.0
 10
376.850000
 20
355.220000
 30
0.0
  0
LWPOLYLINE
  5
178
100
AcDbEntity
  8
0
 62
7
100
AcDbPolyline
 90
1
 70
1
 10
199.850000
 20
268.210000
 30
0.0
  0
LWPOLYLINE
  5
179
100
AcDbEntity
  8
0
 62
7
100
AcDbPolyline
 90
2
 70
0
 10
376.850000
 20
355.220000
 30
0.0
 10
376.860000
 20
355.210000
 30
0.0
  0
SPLINE
  5
17a
100
AcDbEntity
  8
0
 62
7
100
AcDbSpline
 70
8
 71
3
 72
8
 73
4
 74
0
 40
0
 40
0
 40
0
 40
0
 40
1
 40
1
 40
1
 40
1
 10
38.850000
 20
394.200000
 30
0.0
 10
41.240000
 20
386.350000
 30
0.0
 10
40.130000
 20
376.100000
 30
0.0
 10
32.870000
 20
371.210000
 30
0.0
  0
LWPOLYLINE
  5
17b
100
AcDbEntity
  8
0
 62
7
100
AcDbPolyline
 90
2
 70
0
 10
32.870000
 20
371.210000
 30
0.0
 10
38.850000
 20
394.200000
 30
0.0
  0
LWPOLYLINE
  5
17c
100
AcDbEntity
  8
0
 62
7
100
AcDbPolyline
 90
1
 70
1
 10
32.870000
 20
371.210000
 30
0.0
  0
ENDSEC
  0
SECTION
  2
OBJECTS
  0
DICTIONARY
  5
C
330
0
100
AcDbDictionary
  3
ACAD_GROUP
350
D
  3
ACAD_MLINESTYLE
350
17
  0
DICTIONARY
  5
D
330
C
100
AcDbDictionary
  0
DICTIONARY
  5
1A
330
C
100
AcDbDictionary
  0
DICTIONARY
  5
17
330
C
100
AcDbDictionary
  3
STANDARD
350
18
  0
DICTIONARY
  5
19
330
C
100
AcDbDictionary
  0
ENDSEC
  0
EOF
