<?xml version="1.0" encoding="UTF-8" standalone="no"?>
<svg
   width="1189mm"
   height="841mm"
   viewBox="0 0 1189 841"
   version="1.1"
   id="svg"
   sodipodi:docname="PiTrac_A0_Landscape_ISO5457_minimal.svg"
   inkscape:version="1.4.2 (f4327f4, 2025-05-13)"
   xmlns:inkscape="http://www.inkscape.org/namespaces/inkscape"
   xmlns:sodipodi="http://sodipodi.sourceforge.net/DTD/sodipodi-0.dtd"
   xmlns="http://www.w3.org/2000/svg"
   xmlns:svg="http://www.w3.org/2000/svg"
   xmlns:rdf="http://www.w3.org/1999/02/22-rdf-syntax-ns#"
   xmlns:cc="http://creativecommons.org/ns#"
   xmlns:dc="http://purl.org/dc/elements/1.1/"
   xmlns:freecad="https://www.freecad.org/wiki/index.php?title=Svg_Namespace">
  <defs
     id="defs16" />
  <sodipodi:namedview
     id="namedview16"
     pagecolor="#ffffff"
     bordercolor="#000000"
     borderopacity="0.25"
     inkscape:showpageshadow="2"
     inkscape:pageopacity="0.0"
     inkscape:pagecheckerboard="0"
     inkscape:deskcolor="#d1d1d1"
     inkscape:document-units="mm"
     inkscape:zoom="1.4362003"
     inkscape:cx="3792.9946"
     inkscape:cy="2960.938"
     inkscape:window-width="1920"
     inkscape:window-height="1009"
     inkscape:window-x="1912"
     inkscape:window-y="-8"
     inkscape:window-maximized="1"
     inkscape:current-layer="title_block_data_fields" />
  <title
     id="title">Drawing sheet ISO 5457 - A0T - Minimal</title>
  <metadata
     id="metadata">
    <rdf:RDF>
      <cc:Work
         rdf:about="">
        <cc:license
           rdf:resource="http://creativecommons.org/publicdomain/zero/1.0/" />
        <dc:title>Drawing sheet ISO 5457 - A0T - Minimal</dc:title>
        <dc:creator>
          <cc:Agent>
            <dc:title>Benjamin May</dc:title>
          </cc:Agent>
        </dc:creator>
      </cc:Work>
      <cc:License
         rdf:about="http://creativecommons.org/publicdomain/zero/1.0/">
        <cc:permits
           rdf:resource="http://creativecommons.org/ns#Reproduction" />
        <cc:permits
           rdf:resource="http://creativecommons.org/ns#Distribution" />
        <cc:permits
           rdf:resource="http://creativecommons.org/ns#DerivativeWorks" />
      </cc:License>
    </rdf:RDF>
  </metadata>
  <rect
     id="drawing_space_frame"
     x="20"
     y="10"
     width="1159"
     height="821"
     style="fill:none;stroke:#000000;stroke-width:0.7;stroke-linecap:round;stroke-linejoin:round" />
  <g
     id="centring_marks"
     style="fill:none;stroke:#000000;stroke-width:0.7;stroke-linecap:round">
    <path
       id="top_centering"
       d="m 594.5,5 v 10" />
    <path
       id="right_centering"
       d="m 1184,420.5 h -10" />
    <path
       id="bottom_centering"
       d="m 594.5,836 v -10" />
    <path
       id="left_centering"
       d="m 15,420.5 h 10" />
  </g>
  <g
     id="grid_reference_system">
    <g
       id="grid_reference_borders"
       style="fill:none;stroke:#000000;stroke-width:0.35;stroke-linecap:round;stroke-linejoin:round">
      <rect
         id="grid_reference_border"
         x="15"
         y="5"
         width="1169"
         height="831" />
      <path
         id="upper_border_1"
         d="m 44.5,5 v 5" />
      <path
         id="upper_border_2"
         d="m 94.5,5 v 5" />
      <path
         id="upper_border_3"
         d="m 144.5,5 v 5" />
      <path
         id="upper_border_4"
         d="m 194.5,5 v 5" />
      <path
         id="upper_border_5"
         d="m 244.5,5 v 5" />
      <path
         id="upper_border_6"
         d="m 294.5,5 v 5" />
      <path
         id="upper_border_7"
         d="m 344.5,5 v 5" />
      <path
         id="upper_border_8"
         d="m 394.5,5 v 5" />
      <path
         id="upper_border_9"
         d="m 444.5,5 v 5" />
      <path
         id="upper_border_10"
         d="m 494.5,5 v 5" />
      <path
         id="upper_border_11"
         d="m 544.5,5 v 5" />
      <path
         id="upper_border_13"
         d="m 644.5,5 v 5" />
      <path
         id="upper_border_14"
         d="m 694.5,5 v 5" />
      <path
         id="upper_border_15"
         d="m 744.5,5 v 5" />
      <path
         id="upper_border_16"
         d="m 794.5,5 v 5" />
      <path
         id="upper_border_17"
         d="m 844.5,5 v 5" />
      <path
         id="upper_border_18"
         d="m 894.5,5 v 5" />
      <path
         id="upper_border_19"
         d="m 944.5,5 v 5" />
      <path
         id="upper_border_20"
         d="m 994.5,5 v 5" />
      <path
         id="upper_border_21"
         d="m 1044.5,5 v 5" />
      <path
         id="upper_border_22"
         d="m 1094.5,5 v 5" />
      <path
         id="upper_border_23"
         d="m 1144.5,5 v 5" />
      <path
         id="right_border_1"
         d="m 1184,70.5 h -5" />
      <path
         id="right_border_2"
         d="m 1184,120.5 h -5" />
      <path
         id="right_border_3"
         d="m 1184,170.5 h -5" />
      <path
         id="right_border_4"
         d="m 1184,220.5 h -5" />
      <path
         id="right_border_5"
         d="m 1184,270.5 h -5" />
      <path
         id="right_border_6"
         d="m 1184,320.5 h -5" />
      <path
         id="right_border_7"
         d="m 1184,370.5 h -5" />
      <path
         id="right_border_9"
         d="m 1184,470.5 h -5" />
      <path
         id="right_border_10"
         d="m 1184,520.5 h -5" />
      <path
         id="right_border_11"
         d="m 1184,570.5 h -5" />
      <path
         id="right_border_12"
         d="m 1184,620.5 h -5" />
      <path
         id="right_border_13"
         d="m 1184,670.5 h -5" />
      <path
         id="right_border_14"
         d="m 1184,720.5 h -5" />
      <path
         id="right_border_15"
         d="m 1184,770.5 h -5" />
      <path
         id="lower_border_1"
         d="m 44.5,836 v -5" />
      <path
         id="lower_border_2"
         d="m 94.5,836 v -5" />
      <path
         id="lower_border_3"
         d="m 144.5,836 v -5" />
      <path
         id="lower_border_4"
         d="m 194.5,836 v -5" />
      <path
         id="lower_border_5"
         d="m 244.5,836 v -5" />
      <path
         id="lower_border_6"
         d="m 294.5,836 v -5" />
      <path
         id="lower_border_7"
         d="m 344.5,836 v -5" />
      <path
         id="lower_border_8"
         d="m 394.5,836 v -5" />
      <path
         id="lower_border_9"
         d="m 444.5,836 v -5" />
      <path
         id="lower_border_10"
         d="m 494.5,836 v -5" />
      <path
         id="lower_border_11"
         d="m 544.5,836 v -5" />
      <path
         id="lower_border_13"
         d="m 644.5,836 v -5" />
      <path
         id="lower_border_14"
         d="m 694.5,836 v -5" />
      <path
         id="lower_border_15"
         d="m 744.5,836 v -5" />
      <path
         id="lower_border_16"
         d="m 794.5,836 v -5" />
      <path
         id="lower_border_17"
         d="m 844.5,836 v -5" />
      <path
         id="lower_border_18"
         d="m 894.5,836 v -5" />
      <path
         id="lower_border_19"
         d="m 944.5,836 v -5" />
      <path
         id="lower_border_20"
         d="m 994.5,836 v -5" />
      <path
         id="lower_border_21"
         d="m 1044.5,836 v -5" />
      <path
         id="lower_border_22"
         d="m 1094.5,836 v -5" />
      <path
         id="lower_border_23"
         d="m 1144.5,836 v -5" />
      <path
         id="left_border_1"
         d="m 15,70.5 h 5" />
      <path
         id="left_border_2"
         d="m 15,120.5 h 5" />
      <path
         id="left_border_3"
         d="m 15,170.5 h 5" />
      <path
         id="left_border_4"
         d="m 15,220.5 h 5" />
      <path
         id="left_border_5"
         d="m 15,270.5 h 5" />
      <path
         id="left_border_6"
         d="m 15,320.5 h 5" />
      <path
         id="left_border_7"
         d="m 15,370.5 h 5" />
      <path
         id="left_border_9"
         d="m 15,470.5 h 5" />
      <path
         id="left_border_10"
         d="m 15,520.5 h 5" />
      <path
         id="left_border_11"
         d="m 15,570.5 h 5" />
      <path
         id="left_border_12"
         d="m 15,620.5 h 5" />
      <path
         id="left_border_13"
         d="m 15,670.5 h 5" />
      <path
         id="left_border_14"
         d="m 15,720.5 h 5" />
      <path
         id="left_border_15"
         d="m 15,770.5 h 5" />
    </g>
    <g
       id="grid_reference_markers"
       style="font-size:3.5px;font-family:osifont;text-align:center;text-anchor:middle;fill:#000000;stroke:none">
      <text
         id="upper_marker_1"
         x="19.5"
         y="8.8">1</text>
      <text
         id="upper_marker_2"
         x="69.5"
         y="8.8">2</text>
      <text
         id="upper_marker_3"
         x="119.5"
         y="8.8">3</text>
      <text
         id="upper_marker_4"
         x="169.5"
         y="8.8">4</text>
      <text
         id="upper_marker_5"
         x="219.5"
         y="8.8">5</text>
      <text
         id="upper_marker_6"
         x="269.5"
         y="8.8">6</text>
      <text
         id="upper_marker_7"
         x="319.5"
         y="8.8">7</text>
      <text
         id="upper_marker_8"
         x="369.5"
         y="8.8">8</text>
      <text
         id="upper_marker_9"
         x="419.5"
         y="8.8">9</text>
      <text
         id="upper_marker_10"
         x="469.5"
         y="8.8">10</text>
      <text
         id="upper_marker_11"
         x="519.5"
         y="8.8">11</text>
      <text
         id="upper_marker_12"
         x="569.5"
         y="8.8">12</text>
      <text
         id="upper_marker_13"
         x="619.5"
         y="8.8">13</text>
      <text
         id="upper_marker_14"
         x="669.5"
         y="8.8">14</text>
      <text
         id="upper_marker_15"
         x="719.5"
         y="8.8">15</text>
      <text
         id="upper_marker_16"
         x="769.5"
         y="8.8">16</text>
      <text
         id="upper_marker_17"
         x="819.5"
         y="8.8">17</text>
      <text
         id="upper_marker_18"
         x="869.5"
         y="8.8">18</text>
      <text
         id="upper_marker_19"
         x="919.5"
         y="8.8">19</text>
      <text
         id="upper_marker_20"
         x="969.5"
         y="8.8">20</text>
      <text
         id="upper_marker_21"
         x="1019.5"
         y="8.8">21</text>
      <text
         id="upper_marker_22"
         x="1069.5"
         y="8.8">22</text>
      <text
         id="upper_marker_23"
         x="1119.5"
         y="8.8">23</text>
      <text
         id="upper_marker_24"
         x="1169.5"
         y="8.8">24</text>
      <text
         id="right_marker_1"
         x="1181.5"
         y="46.8">A</text>
      <text
         id="right_marker_2"
         x="1181.5"
         y="96.8">B</text>
      <text
         id="right_marker_3"
         x="1181.5"
         y="146.8">C</text>
      <text
         id="right_marker_4"
         x="1181.5"
         y="196.8">D</text>
      <text
         id="right_marker_5"
         x="1181.5"
         y="246.8">E</text>
      <text
         id="right_marker_6"
         x="1181.5"
         y="296.8">F</text>
      <text
         id="right_marker_7"
         x="1181.5"
         y="346.8">G</text>
      <text
         id="right_marker_8"
         x="1181.5"
         y="396.8">H</text>
      <text
         id="right_marker_9"
         x="1181.5"
         y="446.8">J</text>
      <text
         id="right_marker_10"
         x="1181.5"
         y="496.8">K</text>
      <text
         id="right_marker_11"
         x="1181.5"
         y="546.8">L</text>
      <text
         id="right_marker_12"
         x="1181.5"
         y="596.8">M</text>
      <text
         id="right_marker_13"
         x="1181.5"
         y="646.8">N</text>
      <text
         id="right_marker_14"
         x="1181.5"
         y="696.8">P</text>
      <text
         id="right_marker_15"
         x="1181.5"
         y="746.8">Q</text>
      <text
         id="right_marker_16"
         x="1181.5"
         y="796.8">R</text>
      <text
         id="lower_marker_1"
         x="19.5"
         y="834.8">1</text>
      <text
         id="lower_marker_2"
         x="69.5"
         y="834.8">2</text>
      <text
         id="lower_marker_3"
         x="119.5"
         y="834.8">3</text>
      <text
         id="lower_marker_4"
         x="169.5"
         y="834.8">4</text>
      <text
         id="lower_marker_5"
         x="219.5"
         y="834.8">5</text>
      <text
         id="lower_marker_6"
         x="269.5"
         y="834.8">6</text>
      <text
         id="lower_marker_7"
         x="319.5"
         y="834.8">7</text>
      <text
         id="lower_marker_8"
         x="369.5"
         y="834.8">8</text>
      <text
         id="lower_marker_9"
         x="419.5"
         y="834.8">9</text>
      <text
         id="lower_marker_10"
         x="469.5"
         y="834.8">10</text>
      <text
         id="lower_marker_11"
         x="519.5"
         y="834.8">11</text>
      <text
         id="lower_marker_12"
         x="569.5"
         y="834.8">12</text>
      <text
         id="lower_marker_13"
         x="619.5"
         y="834.8">13</text>
      <text
         id="lower_marker_14"
         x="669.5"
         y="834.8">14</text>
      <text
         id="lower_marker_15"
         x="719.5"
         y="834.8">15</text>
      <text
         id="lower_marker_16"
         x="769.5"
         y="834.8">16</text>
      <text
         id="lower_marker_17"
         x="819.5"
         y="834.8">17</text>
      <text
         id="lower_marker_18"
         x="869.5"
         y="834.8">18</text>
      <text
         id="lower_marker_19"
         x="919.5"
         y="834.8">19</text>
      <text
         id="lower_marker_20"
         x="969.5"
         y="834.8">20</text>
      <text
         id="lower_marker_21"
         x="1019.5"
         y="834.8">21</text>
      <text
         id="lower_marker_22"
         x="1069.5"
         y="834.8">22</text>
      <text
         id="lower_marker_23"
         x="1119.5"
         y="834.8">23</text>
      <text
         id="lower_marker_24"
         x="1169.5"
         y="834.8">A0</text>
      <text
         id="left_marker_1"
         x="17.5"
         y="46.8">A</text>
      <text
         id="left_marker_2"
         x="17.5"
         y="96.8">B</text>
      <text
         id="left_marker_3"
         x="17.5"
         y="146.8">C</text>
      <text
         id="left_marker_4"
         x="17.5"
         y="196.8">D</text>
      <text
         id="left_marker_5"
         x="17.5"
         y="246.8">E</text>
      <text
         id="left_marker_6"
         x="17.5"
         y="296.8">F</text>
      <text
         id="left_marker_7"
         x="17.5"
         y="346.8">G</text>
      <text
         id="left_marker_8"
         x="17.5"
         y="396.8">H</text>
      <text
         id="left_marker_9"
         x="17.5"
         y="446.8">J</text>
      <text
         id="left_marker_10"
         x="17.5"
         y="496.8">K</text>
      <text
         id="left_marker_11"
         x="17.5"
         y="546.8">L</text>
      <text
         id="left_marker_12"
         x="17.5"
         y="596.8">M</text>
      <text
         id="left_marker_13"
         x="17.5"
         y="646.8">N</text>
      <text
         id="left_marker_14"
         x="17.5"
         y="696.8">P</text>
      <text
         id="left_marker_15"
         x="17.5"
         y="746.8">Q</text>
      <text
         id="left_marker_16"
         x="17.5"
         y="796.8">R</text>
    </g>
  </g>
  <g
     id="trimming_marks"
     style="fill:#000000;stroke:none">
    <path
       id="top_left_trimming"
       d="m 0,0 h 10 v 5 h -5 v 5 h -5 z" />
    <path
       id="top_right_trimming"
       d="m 1189,0 h -10 v 5 h 5 v 5 h 5 z" />
    <path
       id="bottom_right_trimming"
       d="m 1189,841 h -10 v -5 h 5 v -5 h 5 z" />
    <path
       id="bottom_left_trimming"
       d="m 0,841 h 10 v -5 h -5 v -5 h -5 z" />
  </g>
  <!-- Title block -->
  <g
     id="title_block_borders"
     style="fill:none;stroke:#000000;stroke-width:0.35;stroke-linecap:round;stroke-linejoin:round">
    <rect
       id="title_block_frame"
       x="999"
       y="795"
       width="180"
       height="36"
       style="stroke-width:0.7" />
    <rect
       id="legal_owner_border"
       x="1139"
       y="795"
       width="40"
       height="24" />
    <rect
       id="identification_number_border"
       x="999"
       y="819"
       width="80"
       height="12" />
    <rect
       id="revision_index_border"
       x="1139"
       y="819"
       width="20"
       height="12" />
    <rect
       id="date_of_issue_border"
       x="1099"
       y="819"
       width="40"
       height="12" />
    <rect
       id="sheet_number_border"
       x="1159"
       y="819"
       width="20"
       height="12" />
    <rect
       id="language_code_border"
       x="1079"
       y="819"
       width="20"
       height="12" />
    <rect
       id="title_border"
       x="999"
       y="795"
       width="80"
       height="12" />
    <rect
       id="approval_person_border"
       x="1079"
       y="807"
       width="60"
       height="12" />
    <rect
       id="creator_border"
       x="1079"
       y="795"
       width="60"
       height="12" />
    <rect
       id="document_type_border"
       x="999"
       y="807"
       width="80"
       height="12" />
  </g>
  <g
     id="title_block_labels"
     style="font-size:3.5px;font-family:osifont;text-anchor:start;fill:#000000;stroke:none">
    <text
       id="legal_owner label"
       x="1139.5"
       y="798.59998" />
    <text
       id="identification_number_label"
       x="999.5"
       y="822.6">Drawing number:</text>
    <text
       id="revision_index_label"
       x="1139.5"
       y="822.6">Revision:</text>
    <text
       id="date_of_issue_label"
       x="1099.5"
       y="822.6">Issue date:</text>
    <text
       id="sheet_number_label"
       x="1159.5"
       y="822.6">Sheet:</text>
    <text
       id="language_code_label"
       x="1079.5"
       y="822.6">Language:</text>
    <text
       id="title_label"
       x="999.5"
       y="798.6">Title:</text>
    <text
       id="approval_person_label"
       x="1079.5"
       y="810.6">Approved by:</text>
    <text
       id="creator_label"
       x="1079.5"
       y="798.6">Created by:</text>
    <text
       id="document_type_label"
       x="999.5"
       y="810.6">Document type:</text>
    <text
       id="sheet_scale_label"
       x="1119.5"
       y="786.6">Scale:</text>
    <text
       id="general_tolerances_label"
       x="1079.5"
       y="786.6">General tolerances:</text>
    <text
       id="part_material_label"
       x="999.5"
       y="786.6">Part Material:</text>
  </g>
  <g
     id="title_block_data_fields"
     style="font-size:5px;font-family:osifont;text-anchor:start;fill:#000000;stroke:none">
    <text
       id="legal_owner_1_data_field"
       x="1159"
       y="804.1"
       freecad:editable="legal_owner_1"
       freecad:autofill="organization"
       style="font-size:3.5px;text-align:center;text-anchor:middle"><tspan
         id="tspan1" /></text>
    <text
       id="legal_owner_2_data_field"
       x="1159"
       y="808.1"
       freecad:editable="legal_owner_2"
       style="font-size:3.5px;text-align:center;text-anchor:middle"><tspan
         id="tspan2" /></text>
    <text
       id="legal_owner_3_data_field"
       x="1159"
       y="812.1"
       freecad:editable="legal_owner_3"
       style="font-size:3.5px;text-align:center;text-anchor:middle"><tspan
         id="tspan3" /></text>
    <text
       id="legal_owner_4_data_field"
       x="1159"
       y="816.1"
       freecad:editable="legal_owner_4"
       style="font-size:3.5px;text-align:center;text-anchor:middle"><tspan
         id="tspan4" /></text>
    <text
       id="identification_number_data_field"
       x="1000"
       y="828.20001"
       freecad:editable="identification_number"><tspan
         id="tspan5">na</tspan></text>
    <text
       id="revision_index_data_field"
       x="1149"
       y="828.2"
       freecad:editable="revision_index"
       style="text-align:center;text-anchor:middle"><tspan
         id="tspan6">AAA</tspan></text>
    <text
       id="date_of_issue_data_field"
       x="1100"
       y="828.2"
       freecad:editable="date_of_issue"
       freecad:autofill="date"><tspan
         id="tspan7">YYYY-MM-DD</tspan></text>
    <text
       id="sheet_number_data_field"
       x="1169"
       y="828.2"
       freecad:editable="sheet_number"
       freecad:autofill="sheet"
       style="text-align:center;text-anchor:middle"><tspan
         id="tspan8">X / Y</tspan></text>
    <text
       id="language_code_data_field"
       x="1089"
       y="828.2"
       freecad:editable="language_code"
       style="text-align:center;text-anchor:middle"><tspan
         id="tspan9">EN</tspan></text>
    <text
       id="title_data_field"
       x="1000"
       y="804.2"
       freecad:editable="title"
       freecad:autofill="title"><tspan
         id="tspan10">ISO 5457 template</tspan></text>
    <text
       id="approval_person_data_field"
       x="1080"
       y="816.20001"
       freecad:editable="approval_person"><tspan
         id="tspan11">GitHub PR</tspan></text>
    <text
       id="creator_data_field"
       x="1080"
       y="804.2"
       freecad:editable="creator"
       freecad:autofill="author"><tspan
         id="tspan12">A. Nemesis</tspan></text>
    <text
       id="document_type_data_field"
       x="1000"
       y="816.2"
       freecad:editable="document_type"><tspan
         id="tspan13">Component Drawing</tspan></text>
    <text
       id="sheet_scale_data_field"
       x="1129"
       y="792.2"
       freecad:editable="scale"
       freecad:autofill="scale"
       style="text-align:center;text-anchor:middle"><tspan
         id="tspan14">1 : 1</tspan></text>
    <text
       id="general_tolerances_data_field"
       x="1080"
       y="792.20001"
       freecad:editable="general_tolerances"><tspan
         id="tspan15">na</tspan></text>
    <text
       id="part_material_data_field"
       x="1000"
       y="792.20001"
       freecad:editable="part_material"><tspan
         id="tspan16">na</tspan></text>
  </g>
  <g
     id="extras_outlines"
     style="fill:none;stroke:#000000;stroke-width:0.5;stroke-linecap:round;stroke-linejoin:round">
    <path
       id="first_angle_trapezoid"
       d="m 1158,778 -10,2.5 v 5 l 10,2.5 z" />
    <circle
       id="first_angle_inner circle"
       cx="1165"
       cy="783"
       r="2.5" />
    <circle
       id="first_angle_outer circle"
       cx="1165"
       cy="783"
       r="5" />
  </g>
  <g
     id="extras_centre_lines"
     style="fill:none;stroke:#000000;stroke-width:0.25;stroke-linecap:round;stroke-linejoin:round;stroke-dasharray:6, 0.75, 0.125, 0.75">
    <path
       id="first_angle_horizontal"
       d="m 1147,783 h 24"
       style="stroke-dashoffset:0.25" />
    <path
       id="first_angle_vertical"
       d="m 1165,789 v -12"
       style="stroke-dashoffset:4.625" />
  </g>
  <g
     id="g16"
     transform="matrix(0.03347177,0,0,0.03347177,1141.0143,797.96345)"
     style="font-size:5px;font-family:osifont;text-anchor:start;fill:#000000;stroke:none">
    <g
       id="g4">
      <path
         d="m 893.86,385.24 h -38 c -1.11,-3.47 -1.33,-21.02 -3.51,-22 -27.51,39.44 -107.85,35.61 -113.37,-19.63 -3.32,-33.23 8.22,-56.33 41.12,-65.64 3.89,-1.1 13.78,-3.74 17.26,-3.74 h 53.5 v -15.5 c 0,-4.44 -6.34,-13.31 -10.06,-15.94 -20.12,-14.17 -63.62,-4.08 -83.94,7.44 v -43 c 40.43,-12.47 112.23,-22.52 131.76,26.74 1.82,4.59 5.24,16.23 5.24,20.76 v 130.5 z m -42,-83 h -28.5 c -9.63,0 -30.02,7.04 -36.5,14.5 -10.25,11.81 -4.3,28.97 9.72,34.27 16.42,6.2 38.93,-2.65 49.27,-16.27 8.32,-10.96 3.19,-20.26 6,-32.5 z"
         id="path1" />
      <path
         d="m 621.86,139.24 v 42 h -64 v 204 h -46.5 c -0.3,0 -0.77,1.27 -1.5,1 v -205 h -63 v -42 z"
         id="path2" />
      <path
         d="m 1064.85,207.28 -6,40.95 c -51.8,-27.41 -95.65,-5.96 -91.03,55.54 3.16,41.95 40.71,55.85 77.02,41.94 5.91,-2.26 11.23,-5.98 17.01,-8.48 l 7.87,37.83 c -42.51,24.5 -110.96,20.02 -137.04,-26.16 -17.16,-30.4 -16.42,-80.79 1.75,-110.59 26.69,-43.78 86.4,-50.93 130.41,-31.03 z"
         id="path3" />
      <path
         d="m 658.86,200.24 c 0.6,8.44 1.59,17.14 3.05,25.47 0.24,1.39 -0.98,2.94 1.44,2.54 12.61,-23.59 43.18,-34.5 68.57,-28.39 l -4.06,44.39 c -18.39,-3.15 -39.07,0.56 -53.01,13.49 -1.7,1.57 -9.99,11.71 -9.99,13.01 v 114.5 h -46 v -185 h 40 z"
         id="path4" />
    </g>
    <g
       id="g13">
      <path
         d="M 188.66,0.53 C 331.49,-9.11 438.29,113.81 409.37,254.24 376.92,411.84 186.81,478.6 66.85,366.74 -63.33,245.36 6.91,12.8 188.66,0.53 Z m 143.2,68.71 C 270.05,11.12 171.48,5.2 101.97,53.84 61.54,82.13 34.84,121.26 25.16,170.03 c -0.92,4.64 -3.12,14.79 -3.04,18.94 0.04,2.33 7.58,7.02 9.77,9.74 5.71,7.09 6.31,16.71 5.98,25.52 19.13,-0.09 28.51,18.97 27.99,36.01 12.55,-1.62 21.97,2.31 28.03,13.47 8.66,15.92 -1.15,27.39 3.67,43.33 4.57,15.12 20.24,23.82 35.69,22.09 18.11,-2.02 23.19,-19.96 45.58,-12.36 15.14,5.14 17.52,23.42 37.6,16.54 5.18,-1.77 10.03,-6.56 15.45,-8.55 15.43,-5.65 24.23,2.91 38.6,4.36 20.84,2.11 40.19,-6.5 53.35,-22.41 13.92,-16.82 13.91,-43.29 41.82,-43.67 3.43,-13.81 8.97,-27.16 24.3,-30.43 11.05,-53.66 -2.9,-110.33 -37.6,-152.37 -2.36,10.5 2.51,23.68 -11.96,25.03 -17.9,1.67 -38.35,-1.33 -56.53,-0.03 -2.84,18.55 -6.35,37.02 -8.87,55.63 -3.43,25.39 -12.57,83.17 0.44,104.28 8.17,13.25 22.77,14.39 34.43,4.59 6.35,-5.34 8.76,-12.59 12.66,-19.55 13.32,-1.8 11.57,11.14 8.79,19.99 -20.95,66.5 -95.22,69.35 -100.45,-6.47 -1.14,-16.57 -0.34,-37.36 1,-53.98 2.82,-34.98 10.7,-69.57 13.99,-104.51 h -61 c -5.6,40.35 -9.3,81.03 -15.14,121.36 -3.37,23.26 -8.2,77.98 -28.52,91.48 -12.34,8.19 -28.58,1.61 -34.11,-11.56 -9.1,-21.66 6.61,-37.04 14.95,-55.6 19.84,-44.2 21.18,-98.34 28.83,-145.67 h -22.5 c -11.75,0 -30.64,10.91 -37.92,20.08 -2.48,3.13 -9.15,16.73 -10.58,17.42 -2.54,1.23 -8.16,0.54 -11.07,0.06 -3.89,-2.73 5.02,-22.96 6.89,-27.24 11.49,-26.35 32.09,-56.33 64.67,-56.33 h 191.5 z m -311,140 v 16.5 c 0,1.57 2.09,5.81 1.01,8.49 1.61,0.16 2.3,0.22 3.49,-1 3.83,-3.89 0.42,-20.59 -4.5,-24 z M 49.62,268 c 5.04,-5.03 -4.17,-25.51 -13.12,-19.85 -5.54,6.63 4.86,28.09 13.12,19.85 z m 330.23,13.24 7,-25 c -6.17,4.22 -9.95,16.4 -8.99,23.52 0.18,1.36 0.58,3 1.99,1.48 z M 80.62,304.99 c 5.68,-5.8 -7.4,-27.24 -16.36,-21.85 -7.11,7.31 9.45,28.9 16.36,21.85 z m -31.76,3.24 c 1.05,-1.07 -6.94,-18.76 -11.99,-16.99 -0.85,0.8 8.66,20.39 11.99,16.99 z m 308.68,-13.86 c -7.4,0.68 -17.11,20.68 -11.15,21.86 5.67,1.12 14.87,-15.36 13.36,-20.34 l -2.21,-1.51 z M 78.86,342.24 c 3.02,-5.17 -10.41,-19.09 -14.03,-16.54 -4.53,3.2 8.59,18.76 14.03,16.54 z m 240.74,2.2 c -3.77,0.76 -17.68,11.06 -12.78,14.34 4.59,1.72 11.73,-3.2 14.58,-6.51 3.37,-3.92 5.75,-9.34 -1.8,-7.83 z m -166.39,16.45 c 6.26,6.54 24.23,5.34 18.7,-4.21 -6.48,-11.17 -29.03,-6.58 -18.7,4.21 z m 73.9,6.11 c 5.26,5.19 23.32,0.31 21.35,-6.79 -1.97,-7.1 -22.29,-4.27 -22.44,4.31 0.27,0.82 0.48,1.88 1.09,2.48 z m -102.24,4.23 c 2.92,-7.18 -15.94,-18.07 -19.58,-13.07 -1.57,9.3 11.88,14.21 19.58,13.07 z m 149.71,2.23 c -7.16,1.49 -17.34,12.54 -5.25,11.8 11.16,-0.68 22.81,-15.45 5.25,-11.8 z m -86.44,7.04 c -7.72,8.39 18.23,13.29 20.59,5.04 2.2,-7.71 -16.42,-9.57 -20.59,-5.04 z"
         id="path5" />
      <path
         d="m 299.86,413.24 c -0.02,4.88 -2.13,12.37 -5.46,16.05 -7.28,8.06 -25.16,17.16 -34.56,25.44 -29.37,25.88 -27.48,64.91 -38.98,99.77 -0.91,1.7 -3.82,1.67 -5.46,1.79 -3.43,0.24 -22.95,0.48 -24.07,-1.02 -8.63,-32.28 -8.18,-73.64 -34.46,-97.54 -10.54,-9.59 -30.26,-19.26 -38.56,-28.44 -2.55,-2.83 -5.5,-10.74 -5.49,-14.54 0,-2.62 4.51,-1.7 6.31,-1.28 3.28,0.77 6.2,3.72 9.04,4.95 45.82,19.97 93.69,22.37 141.19,5.84 7.28,-2.53 17.41,-8.93 23.45,-10.55 2.37,-0.63 4.63,-0.57 7.04,-0.47 z"
         id="path6" />
      <path
         d="m 95.87,236.23 c -1.16,-3.58 -4.61,-9.62 -7.5,-12.01 -3.91,-3.23 -7.65,-2.72 -12.17,-3.85 -1.02,-0.25 -3.16,0.38 -2.33,-1.63 2.51,-6.11 13.36,-2.83 17.49,0.49 3.9,3.13 9.58,13.23 4.51,17 z"
         id="path7" />
      <path
         d="m 226.85,317.24 c -7.84,-7.14 -15.23,-10.12 -24.5,-3.01 0.18,-15.09 25.85,-11.17 24.5,3.01 z"
         id="path8" />
      <path
         d="m 350.85,259.24 c -6.66,-4.84 -1.68,-18.46 4.05,-22.46 3.03,-2.12 7.7,-3.9 9.94,-0.04 -8.94,4.44 -13.77,12.53 -13.99,22.5 z"
         id="path9" />
      <path
         d="m 63.85,207.24 c -3.83,-3.52 -4.78,-9.1 -8.6,-12.89 -2.47,-2.45 -7.1,-2.98 -6.39,-7.1 10.45,-0.65 16.59,10.57 14.99,19.99 z"
         id="path10" />
      <path
         d="m 199.85,288.24 c -4.77,-2.4 -8.93,-5.08 -14.5,-5.09 -1.26,0 -7.62,2.42 -6.49,-0.4 3.95,-9.83 24.97,0.14 20.98,5.49 z"
         id="path11" />
      <path
         d="m 376.86,201.24 c -2.02,7.04 -1.74,13.37 -2,20.5 -0.04,1.21 0.75,3.72 -0.99,3.48 -2.6,-7.39 -3.71,-12.72 -0.73,-20.23 0.56,-1.4 1.57,-4.44 3.71,-3.76 z"
         id="path12" />
      <path
         d="m 32.87,185.24 5.98,-22.99 c 2.39,7.85 1.28,18.1 -5.98,22.99 z"
         id="path13" />
    </g>
  </g>
</svg>
