<?xml version="1.0" encoding="UTF-8"?>
<svg id="Layer_1" data-name="Layer 1" xmlns="http://www.w3.org/2000/svg" viewBox="0 0 414.12 556.45">
  <path d="M188.66.53c142.83-9.64,249.63,113.28,220.71,253.71-32.45,157.6-222.56,224.36-342.52,112.5C-63.33,245.36,6.91,12.8,188.66.53ZM331.86,69.24C270.05,11.12,171.48,5.2,101.97,53.84c-40.43,28.29-67.13,67.42-76.81,116.19-.92,4.64-3.12,14.79-3.04,18.94.04,2.33,7.58,7.02,9.77,9.74,5.71,7.09,6.31,16.71,5.98,25.52,19.13-.09,28.51,18.97,27.99,36.01,12.55-1.62,21.97,2.31,28.03,13.47,8.66,15.92-1.15,27.39,3.67,43.33,4.57,15.12,20.24,23.82,35.69,22.09,18.11-2.02,23.19-19.96,45.58-12.36,15.14,5.14,17.52,23.42,37.6,16.54,5.18-1.77,10.03-6.56,15.45-8.55,15.43-5.65,24.23,2.91,38.6,4.36,20.84,2.11,40.19-6.5,53.35-22.41,13.92-16.82,13.91-43.29,41.82-43.67,3.43-13.81,8.97-27.16,24.3-30.43,11.05-53.66-2.9-110.33-37.6-152.37-2.36,10.5,2.51,23.68-11.96,25.03-17.9,1.67-38.35-1.33-56.53-.03-2.84,18.55-6.35,37.02-8.87,55.63-3.43,25.39-12.57,83.17.44,104.28,8.17,13.25,22.77,14.39,34.43,4.59,6.35-5.34,8.76-12.59,12.66-19.55,13.32-1.8,11.57,11.14,8.79,19.99-20.95,66.5-95.22,69.35-100.45-6.47-1.14-16.57-.34-37.36,1-53.98,2.82-34.98,10.7-69.57,13.99-104.51h-61c-5.6,40.35-9.3,81.03-15.14,121.36-3.37,23.26-8.2,77.98-28.52,91.48-12.34,8.19-28.58,1.61-34.11-11.56-9.1-21.66,6.61-37.04,14.95-55.6,19.84-44.2,21.18-98.34,28.83-145.67h-22.5c-11.75,0-30.64,10.91-37.92,20.08-2.48,3.13-9.15,16.73-10.58,17.42-2.54,1.23-8.16.54-11.07.06-3.89-2.73,5.02-22.96,6.89-27.24,11.49-26.35,32.09-56.33,64.67-56.33h191.5ZM20.86,209.24v16.5c0,1.57,2.09,5.81,1.01,8.49,1.61.16,2.3.22,3.49-1,3.83-3.89.42-20.59-4.5-24ZM49.62,268c5.04-5.03-4.17-25.51-13.12-19.85-5.54,6.63,4.86,28.09,13.12,19.85ZM379.85,281.24l7-25c-6.17,4.22-9.95,16.4-8.99,23.52.18,1.36.58,3,1.99,1.48ZM80.62,304.99c5.68-5.8-7.4-27.24-16.36-21.85-7.11,7.31,9.45,28.9,16.36,21.85ZM48.86,308.23c1.05-1.07-6.94-18.76-11.99-16.99-.85.8,8.66,20.39,11.99,16.99ZM357.54,294.37c-7.4.68-17.11,20.68-11.15,21.86,5.67,1.12,14.87-15.36,13.36-20.34l-2.21-1.51ZM78.86,342.24c3.02-5.17-10.41-19.09-14.03-16.54-4.53,3.2,8.59,18.76,14.03,16.54ZM319.6,344.44c-3.77.76-17.68,11.06-12.78,14.34,4.59,1.72,11.73-3.2,14.58-6.51,3.37-3.92,5.75-9.34-1.8-7.83ZM153.21,360.89c6.26,6.54,24.23,5.34,18.7-4.21-6.48-11.17-29.03-6.58-18.7,4.21ZM227.11,367c5.26,5.19,23.32.31,21.35-6.79s-22.29-4.27-22.44,4.31c.27.82.48,1.88,1.09,2.48ZM124.87,371.23c2.92-7.18-15.94-18.07-19.58-13.07-1.57,9.3,11.88,14.21,19.58,13.07ZM274.58,373.46c-7.16,1.49-17.34,12.54-5.25,11.8,11.16-.68,22.81-15.45,5.25-11.8ZM188.14,380.5c-7.72,8.39,18.23,13.29,20.59,5.04,2.2-7.71-16.42-9.57-20.59-5.04Z"/>
  <path d="M299.86,413.24c-.02,4.88-2.13,12.37-5.46,16.05-7.28,8.06-25.16,17.16-34.56,25.44-29.37,25.88-27.48,64.91-38.98,99.77-.91,1.7-3.82,1.67-5.46,1.79-3.43.24-22.95.48-24.07-1.02-8.63-32.28-8.18-73.64-34.46-97.54-10.54-9.59-30.26-19.26-38.56-28.44-2.55-2.83-5.5-10.74-5.49-14.54,0-2.62,4.51-1.7,6.31-1.28,3.28.77,6.2,3.72,9.04,4.95,45.82,19.97,93.69,22.37,141.19,5.84,7.28-2.53,17.41-8.93,23.45-10.55,2.37-.63,4.63-.57,7.04-.47Z"/>
  <path d="M95.87,236.23c-1.16-3.58-4.61-9.62-7.5-12.01-3.91-3.23-7.65-2.72-12.17-3.85-1.02-.25-3.16.38-2.33-1.63,2.51-6.11,13.36-2.83,17.49.49,3.9,3.13,9.58,13.23,4.51,17Z"/>
  <path d="M226.85,317.24c-7.84-7.14-15.23-10.12-24.5-3.01.18-15.09,25.85-11.17,24.5,3.01Z"/>
  <path d="M350.85,259.24c-6.66-4.84-1.68-18.46,4.05-22.46,3.03-2.12,7.7-3.9,9.94-.04-8.94,4.44-13.77,12.53-13.99,22.5Z"/>
  <path d="M63.85,207.24c-3.83-3.52-4.78-9.1-8.6-12.89-2.47-2.45-7.1-2.98-6.39-7.1,10.45-.65,16.59,10.57,14.99,19.99Z"/>
  <path d="M199.85,288.24c-4.77-2.4-8.93-5.08-14.5-5.09-1.26,0-7.62,2.42-6.49-.4,3.95-9.83,24.97.14,20.98,5.49Z"/>
  <path d="M376.86,201.24c-2.02,7.04-1.74,13.37-2,20.5-.04,1.21.75,3.72-.99,3.48-2.6-7.39-3.71-12.72-.73-20.23.56-1.4,1.57-4.44,3.71-3.76Z"/>
  <path d="M32.87,185.24l5.98-22.99c2.39,7.85,1.28,18.1-5.98,22.99Z"/>
</svg>