%TF.GenerationSoftware,KiCad,Pcbnew,9.0.4*%
%TF.CreationDate,2025-09-04T23:05:58-07:00*%
%TF.ProjectId,PiTrac Pi Connector,50695472-6163-4205-9069-20436f6e6e65,rev?*%
%TF.SameCoordinates,Original*%
%TF.FileFunction,Soldermask,Top*%
%TF.FilePolarity,Negative*%
%FSLAX46Y46*%
G04 Gerber Fmt 4.6, Leading zero omitted, Abs format (unit mm)*
G04 Created by KiCad (PCBNEW 9.0.4) date 2025-09-04 23:05:58*
%MOMM*%
%LPD*%
G01*
G04 APERTURE LIST*
G04 Aperture macros list*
%AMRoundRect*
0 Rectangle with rounded corners*
0 $1 Rounding radius*
0 $2 $3 $4 $5 $6 $7 $8 $9 X,Y pos of 4 corners*
0 Add a 4 corners polygon primitive as box body*
4,1,4,$2,$3,$4,$5,$6,$7,$8,$9,$2,$3,0*
0 Add four circle primitives for the rounded corners*
1,1,$1+$1,$2,$3*
1,1,$1+$1,$4,$5*
1,1,$1+$1,$6,$7*
1,1,$1+$1,$8,$9*
0 Add four rect primitives between the rounded corners*
20,1,$1+$1,$2,$3,$4,$5,0*
20,1,$1+$1,$4,$5,$6,$7,0*
20,1,$1+$1,$6,$7,$8,$9,0*
20,1,$1+$1,$8,$9,$2,$3,0*%
G04 Aperture macros list end*
%ADD10C,3.500000*%
%ADD11RoundRect,0.162500X-0.162500X0.617500X-0.162500X-0.617500X0.162500X-0.617500X0.162500X0.617500X0*%
%ADD12C,0.654000*%
%ADD13O,2.400000X0.900000*%
%ADD14O,1.700000X0.900000*%
%ADD15RoundRect,0.150000X0.587500X0.150000X-0.587500X0.150000X-0.587500X-0.150000X0.587500X-0.150000X0*%
%ADD16RoundRect,0.237500X-0.237500X0.300000X-0.237500X-0.300000X0.237500X-0.300000X0.237500X0.300000X0*%
%ADD17C,1.000000*%
%ADD18RoundRect,0.237500X0.300000X0.237500X-0.300000X0.237500X-0.300000X-0.237500X0.300000X-0.237500X0*%
%ADD19C,2.600000*%
%ADD20RoundRect,0.237500X0.237500X-0.300000X0.237500X0.300000X-0.237500X0.300000X-0.237500X-0.300000X0*%
%ADD21RoundRect,0.250000X-0.475000X0.337500X-0.475000X-0.337500X0.475000X-0.337500X0.475000X0.337500X0*%
%ADD22RoundRect,0.237500X-0.250000X-0.237500X0.250000X-0.237500X0.250000X0.237500X-0.250000X0.237500X0*%
%ADD23RoundRect,0.237500X0.237500X-0.250000X0.237500X0.250000X-0.237500X0.250000X-0.237500X-0.250000X0*%
%ADD24RoundRect,0.237500X-0.237500X0.250000X-0.237500X-0.250000X0.237500X-0.250000X0.237500X0.250000X0*%
%ADD25RoundRect,0.250000X-0.750000X0.750000X-0.750000X-0.750000X0.750000X-0.750000X0.750000X0.750000X0*%
%ADD26C,2.000000*%
%ADD27RoundRect,0.237500X0.250000X0.237500X-0.250000X0.237500X-0.250000X-0.237500X0.250000X-0.237500X0*%
%ADD28RoundRect,0.150000X-0.512500X-0.150000X0.512500X-0.150000X0.512500X0.150000X-0.512500X0.150000X0*%
%ADD29RoundRect,0.150000X0.150000X-0.975000X0.150000X0.975000X-0.150000X0.975000X-0.150000X-0.975000X0*%
%ADD30RoundRect,0.150000X0.150000X-0.512500X0.150000X0.512500X-0.150000X0.512500X-0.150000X-0.512500X0*%
%ADD31RoundRect,0.237500X-0.300000X-0.237500X0.300000X-0.237500X0.300000X0.237500X-0.300000X0.237500X0*%
%ADD32RoundRect,0.300000X0.400000X0.300000X-0.400000X0.300000X-0.400000X-0.300000X0.400000X-0.300000X0*%
%ADD33RoundRect,0.250000X0.450000X-0.350000X0.450000X0.350000X-0.450000X0.350000X-0.450000X-0.350000X0*%
%ADD34C,1.500000*%
%ADD35RoundRect,0.250000X0.650000X-0.412500X0.650000X0.412500X-0.650000X0.412500X-0.650000X-0.412500X0*%
%ADD36RoundRect,0.150000X-0.975000X-0.150000X0.975000X-0.150000X0.975000X0.150000X-0.975000X0.150000X0*%
%ADD37RoundRect,0.162500X0.617500X0.162500X-0.617500X0.162500X-0.617500X-0.162500X0.617500X-0.162500X0*%
%ADD38RoundRect,0.250000X0.750000X-0.750000X0.750000X0.750000X-0.750000X0.750000X-0.750000X-0.750000X0*%
%ADD39RoundRect,0.150000X0.975000X0.150000X-0.975000X0.150000X-0.975000X-0.150000X0.975000X-0.150000X0*%
%ADD40RoundRect,0.250000X-0.400000X-0.625000X0.400000X-0.625000X0.400000X0.625000X-0.400000X0.625000X0*%
%ADD41R,1.700000X1.700000*%
%ADD42C,1.700000*%
%ADD43RoundRect,0.250000X1.500000X0.650000X-1.500000X0.650000X-1.500000X-0.650000X1.500000X-0.650000X0*%
%ADD44RoundRect,0.162500X0.162500X-0.617500X0.162500X0.617500X-0.162500X0.617500X-0.162500X-0.617500X0*%
G04 APERTURE END LIST*
D10*
%TO.C,H2*%
X148000000Y-50500000D03*
%TD*%
D11*
%TO.C,U7*%
X111400000Y-62900000D03*
X110450000Y-62900000D03*
X109500000Y-62900000D03*
X109500000Y-65600000D03*
X111400000Y-65600000D03*
%TD*%
D12*
%TO.C,J4*%
X100060000Y-82700000D03*
X100060000Y-83550000D03*
X100060000Y-84400000D03*
X100060000Y-85250000D03*
X100060000Y-86100000D03*
X100060000Y-86950000D03*
X100060000Y-87800000D03*
X100060000Y-88650000D03*
X98710000Y-88650000D03*
X98710000Y-87800000D03*
X98710000Y-86950000D03*
X98710000Y-86100000D03*
X98710000Y-85250000D03*
X98710000Y-84400000D03*
X98710000Y-83550000D03*
X98710000Y-82700000D03*
D13*
X99080000Y-81350000D03*
X99080000Y-90000000D03*
D14*
X95700000Y-81350000D03*
X95700000Y-90000000D03*
%TD*%
D15*
%TO.C,Q5*%
X123937500Y-124700000D03*
X123937500Y-122800000D03*
X122062500Y-123750000D03*
%TD*%
D10*
%TO.C,H3*%
X148000000Y-138500000D03*
%TD*%
D16*
%TO.C,C23*%
X134000000Y-127525000D03*
X134000000Y-129250000D03*
%TD*%
D17*
%TO.C,TP13*%
X138750000Y-96000000D03*
%TD*%
D16*
%TO.C,C3*%
X128500000Y-64137500D03*
X128500000Y-65862500D03*
%TD*%
D17*
%TO.C,TP6*%
X150250000Y-92250000D03*
%TD*%
D18*
%TO.C,C27*%
X130862500Y-55000000D03*
X129137500Y-55000000D03*
%TD*%
D10*
%TO.C,H4*%
X100000000Y-138500000D03*
%TD*%
D19*
%TO.C,L1*%
X115980000Y-108500000D03*
X115980000Y-113500000D03*
%TD*%
D17*
%TO.C,TP14*%
X118500000Y-102250000D03*
%TD*%
D20*
%TO.C,C11*%
X116500000Y-100362500D03*
X116500000Y-98637500D03*
%TD*%
D17*
%TO.C,RV2*%
X147960000Y-76420000D03*
X150500000Y-78960000D03*
X147960000Y-81500000D03*
%TD*%
D20*
%TO.C,C26*%
X135750000Y-57362500D03*
X135750000Y-55637500D03*
%TD*%
D21*
%TO.C,C18*%
X111250000Y-117962500D03*
X111250000Y-120037500D03*
%TD*%
D22*
%TO.C,R15*%
X129587500Y-131500000D03*
X131412500Y-131500000D03*
%TD*%
D23*
%TO.C,R9*%
X136500000Y-97662500D03*
X136500000Y-95837500D03*
%TD*%
D24*
%TO.C,R4*%
X124500000Y-82087500D03*
X124500000Y-83912500D03*
%TD*%
D16*
%TO.C,C7*%
X126500000Y-85637500D03*
X126500000Y-87362500D03*
%TD*%
D20*
%TO.C,C22*%
X129500000Y-129250000D03*
X129500000Y-127525000D03*
%TD*%
D25*
%TO.C,C17*%
X148000000Y-119632323D03*
D26*
X148000000Y-124632323D03*
%TD*%
D23*
%TO.C,R12*%
X116250000Y-133705000D03*
X116250000Y-131880000D03*
%TD*%
D27*
%TO.C,R27*%
X135662500Y-135500000D03*
X133837500Y-135500000D03*
%TD*%
D28*
%TO.C,U10*%
X131000000Y-57250000D03*
X131000000Y-58200000D03*
X131000000Y-59150000D03*
X133275000Y-59150000D03*
X133275000Y-58200000D03*
X133275000Y-57250000D03*
%TD*%
D17*
%TO.C,TP10*%
X120000000Y-56000000D03*
%TD*%
D18*
%TO.C,C16*%
X118362500Y-135750000D03*
X116637500Y-135750000D03*
%TD*%
D22*
%TO.C,R6*%
X118587500Y-100250000D03*
X120412500Y-100250000D03*
%TD*%
D29*
%TO.C,Q4*%
X114210000Y-123350000D03*
X115480000Y-123350000D03*
X116750000Y-123350000D03*
X118020000Y-123350000D03*
X118020000Y-118100000D03*
X116750000Y-118100000D03*
X115480000Y-118100000D03*
X114210000Y-118100000D03*
%TD*%
D30*
%TO.C,Q3*%
X120800000Y-137887500D03*
X122700000Y-137887500D03*
X121750000Y-135612500D03*
%TD*%
D31*
%TO.C,C21*%
X128887500Y-125250000D03*
X130612500Y-125250000D03*
%TD*%
D32*
%TO.C,D1*%
X121900000Y-76500000D03*
X118100000Y-76500000D03*
%TD*%
D10*
%TO.C,J1*%
X99460000Y-63560000D03*
X99460000Y-71180000D03*
%TD*%
D24*
%TO.C,R24*%
X137000000Y-60587500D03*
X137000000Y-62412500D03*
%TD*%
D33*
%TO.C,R11*%
X115615000Y-128000000D03*
X115615000Y-126000000D03*
%TD*%
D17*
%TO.C,TP4*%
X150500000Y-87250000D03*
%TD*%
D18*
%TO.C,Z1*%
X131362500Y-135500000D03*
X129637500Y-135500000D03*
%TD*%
D23*
%TO.C,R21*%
X126500000Y-126912500D03*
X126500000Y-125087500D03*
%TD*%
D16*
%TO.C,C1*%
X126000000Y-64137500D03*
X126000000Y-65862500D03*
%TD*%
D22*
%TO.C,R23*%
X112837500Y-138250000D03*
X114662500Y-138250000D03*
%TD*%
D31*
%TO.C,C5*%
X122137500Y-79500000D03*
X123862500Y-79500000D03*
%TD*%
D22*
%TO.C,R14*%
X120837500Y-140250000D03*
X122662500Y-140250000D03*
%TD*%
D23*
%TO.C,R20*%
X113750000Y-66912500D03*
X113750000Y-65087500D03*
%TD*%
D30*
%TO.C,Q1*%
X117050000Y-68637500D03*
X118950000Y-68637500D03*
X118000000Y-66362500D03*
%TD*%
D22*
%TO.C,R22*%
X136337500Y-129250000D03*
X138162500Y-129250000D03*
%TD*%
D16*
%TO.C,C15*%
X118525000Y-131930000D03*
X118525000Y-133655000D03*
%TD*%
D17*
%TO.C,TP12*%
X140500000Y-87500000D03*
%TD*%
D12*
%TO.C,J3*%
X100100000Y-98775000D03*
X100100000Y-99625000D03*
X100100000Y-100475000D03*
X100100000Y-101325000D03*
X100100000Y-102175000D03*
X100100000Y-103025000D03*
X100100000Y-103875000D03*
X100100000Y-104725000D03*
X98750000Y-104725000D03*
X98750000Y-103875000D03*
X98750000Y-103025000D03*
X98750000Y-102175000D03*
X98750000Y-101325000D03*
X98750000Y-100475000D03*
X98750000Y-99625000D03*
X98750000Y-98775000D03*
D13*
X99120000Y-97425000D03*
X99120000Y-106075000D03*
D14*
X95740000Y-97425000D03*
X95740000Y-106075000D03*
%TD*%
D22*
%TO.C,R26*%
X133837500Y-133500000D03*
X135662500Y-133500000D03*
%TD*%
D31*
%TO.C,C20*%
X125387500Y-135500000D03*
X127112500Y-135500000D03*
%TD*%
D16*
%TO.C,C4*%
X113500000Y-74275000D03*
X113500000Y-76000000D03*
%TD*%
D17*
%TO.C,TP9*%
X113500000Y-72000000D03*
%TD*%
D34*
%TO.C,J6*%
X106960000Y-117680000D03*
X106960000Y-120180000D03*
X106960000Y-122180000D03*
X106960000Y-124680000D03*
D10*
X104250000Y-114610000D03*
X104250000Y-127750000D03*
%TD*%
D23*
%TO.C,R13*%
X131750000Y-129300000D03*
X131750000Y-127475000D03*
%TD*%
D10*
%TO.C,J2*%
X148500000Y-111260000D03*
X148500000Y-103640000D03*
%TD*%
D35*
%TO.C,C19*%
X128000000Y-114312500D03*
X128000000Y-111187500D03*
%TD*%
D16*
%TO.C,C13*%
X136500000Y-91887500D03*
X136500000Y-93612500D03*
%TD*%
D36*
%TO.C,Q2*%
X141375000Y-92095000D03*
X141375000Y-93365000D03*
X141375000Y-94635000D03*
X141375000Y-95905000D03*
X146625000Y-95905000D03*
X146625000Y-94635000D03*
X146625000Y-93365000D03*
X146625000Y-92095000D03*
%TD*%
D37*
%TO.C,U3*%
X133850000Y-95950000D03*
X133850000Y-95000000D03*
X133850000Y-94050000D03*
X131150000Y-94050000D03*
X131150000Y-95000000D03*
X131150000Y-95950000D03*
%TD*%
D30*
%TO.C,U2*%
X112550000Y-100387500D03*
X114450000Y-100387500D03*
X113500000Y-98112500D03*
%TD*%
D23*
%TO.C,R7*%
X144750000Y-80912500D03*
X144750000Y-79087500D03*
%TD*%
D38*
%TO.C,C24*%
X135250000Y-110117677D03*
D26*
X135250000Y-105117677D03*
%TD*%
D17*
%TO.C,TP11*%
X122250000Y-100250000D03*
%TD*%
D27*
%TO.C,R8*%
X138412500Y-89500000D03*
X136587500Y-89500000D03*
%TD*%
%TO.C,R17*%
X124162500Y-127000000D03*
X122337500Y-127000000D03*
%TD*%
D36*
%TO.C,U6*%
X118025000Y-60095000D03*
X118025000Y-61365000D03*
X118025000Y-62635000D03*
X118025000Y-63905000D03*
X123275000Y-63905000D03*
X123275000Y-62635000D03*
X123275000Y-61365000D03*
X123275000Y-60095000D03*
%TD*%
D31*
%TO.C,C2*%
X123137500Y-58000000D03*
X124862500Y-58000000D03*
%TD*%
D18*
%TO.C,C25*%
X110112500Y-142500000D03*
X108387500Y-142500000D03*
%TD*%
D23*
%TO.C,R10*%
X118250000Y-129162500D03*
X118250000Y-127337500D03*
%TD*%
D39*
%TO.C,U1*%
X126400000Y-133197500D03*
X126400000Y-131927500D03*
X126400000Y-130657500D03*
X126400000Y-129387500D03*
X121150000Y-129387500D03*
X121150000Y-130657500D03*
X121150000Y-131927500D03*
X121150000Y-133197500D03*
%TD*%
D23*
%TO.C,R18*%
X134000000Y-125300000D03*
X134000000Y-123475000D03*
%TD*%
D40*
%TO.C,R5*%
X142450000Y-88000000D03*
X145550000Y-88000000D03*
%TD*%
D37*
%TO.C,U9*%
X115600000Y-142450000D03*
X115600000Y-141500000D03*
X115600000Y-140550000D03*
X112900000Y-140550000D03*
X112900000Y-142450000D03*
%TD*%
D17*
%TO.C,TP1*%
X121000000Y-92750000D03*
%TD*%
%TO.C,TP15*%
X128750000Y-100500000D03*
%TD*%
D23*
%TO.C,R25*%
X128500000Y-58912500D03*
X128500000Y-57087500D03*
%TD*%
D41*
%TO.C,J7*%
X147750000Y-57920000D03*
D42*
X147750000Y-60460000D03*
X147750000Y-63000000D03*
%TD*%
D10*
%TO.C,H1*%
X100000000Y-50500000D03*
%TD*%
D17*
%TO.C,TP2*%
X134750000Y-60750000D03*
%TD*%
D36*
%TO.C,U8*%
X116875000Y-81595000D03*
X116875000Y-82865000D03*
X116875000Y-84135000D03*
X116875000Y-85405000D03*
X122125000Y-85405000D03*
X122125000Y-84135000D03*
X122125000Y-82865000D03*
X122125000Y-81595000D03*
%TD*%
D17*
%TO.C,TP5*%
X137000000Y-117750000D03*
%TD*%
D16*
%TO.C,C9*%
X111500000Y-68137500D03*
X111500000Y-69862500D03*
%TD*%
D27*
%TO.C,R19*%
X115412500Y-62750000D03*
X113587500Y-62750000D03*
%TD*%
D17*
%TO.C,TP8*%
X116000000Y-76250000D03*
%TD*%
D23*
%TO.C,R2*%
X121500000Y-68412500D03*
X121500000Y-66587500D03*
%TD*%
D43*
%TO.C,D2*%
X127750000Y-117750000D03*
X122750000Y-117750000D03*
%TD*%
D27*
%TO.C,R3*%
X120000000Y-79500000D03*
X118175000Y-79500000D03*
%TD*%
D17*
%TO.C,RV1*%
X130790000Y-138710000D03*
X128250000Y-141250000D03*
X125710000Y-138710000D03*
%TD*%
D31*
%TO.C,C14*%
X123637500Y-92750000D03*
X125362500Y-92750000D03*
%TD*%
D16*
%TO.C,C6*%
X124500000Y-85637500D03*
X124500000Y-87362500D03*
%TD*%
D31*
%TO.C,C10*%
X112637500Y-102500000D03*
X114362500Y-102500000D03*
%TD*%
%TO.C,C12*%
X130987500Y-98250000D03*
X132712500Y-98250000D03*
%TD*%
D44*
%TO.C,U4*%
X122550000Y-97850000D03*
X123500000Y-97850000D03*
X124450000Y-97850000D03*
X124450000Y-95150000D03*
X123500000Y-95150000D03*
X122550000Y-95150000D03*
%TD*%
D17*
%TO.C,TP7*%
X116000000Y-72000000D03*
%TD*%
D27*
%TO.C,R16*%
X131412500Y-133500000D03*
X129587500Y-133500000D03*
%TD*%
D17*
%TO.C,TP3*%
X107000000Y-93750000D03*
%TD*%
D24*
%TO.C,R1*%
X126000000Y-60337500D03*
X126000000Y-62162500D03*
%TD*%
M02*
