%TF.GenerationSoftware,KiCad,Pcbnew,9.0.4*%
%TF.CreationDate,2025-09-04T23:05:58-07:00*%
%TF.ProjectId,PiTrac Pi Connector,50695472-6163-4205-9069-20436f6e6e65,rev?*%
%TF.SameCoordinates,Original*%
%TF.FileFunction,Copper,L2,Bot*%
%TF.FilePolarity,Positive*%
%FSLAX46Y46*%
G04 Gerber Fmt 4.6, Leading zero omitted, Abs format (unit mm)*
G04 Created by KiCad (PCBNEW 9.0.4) date 2025-09-04 23:05:58*
%MOMM*%
%LPD*%
G01*
G04 APERTURE LIST*
G04 Aperture macros list*
%AMRoundRect*
0 Rectangle with rounded corners*
0 $1 Rounding radius*
0 $2 $3 $4 $5 $6 $7 $8 $9 X,Y pos of 4 corners*
0 Add a 4 corners polygon primitive as box body*
4,1,4,$2,$3,$4,$5,$6,$7,$8,$9,$2,$3,0*
0 Add four circle primitives for the rounded corners*
1,1,$1+$1,$2,$3*
1,1,$1+$1,$4,$5*
1,1,$1+$1,$6,$7*
1,1,$1+$1,$8,$9*
0 Add four rect primitives between the rounded corners*
20,1,$1+$1,$2,$3,$4,$5,0*
20,1,$1+$1,$4,$5,$6,$7,0*
20,1,$1+$1,$6,$7,$8,$9,0*
20,1,$1+$1,$8,$9,$2,$3,0*%
G04 Aperture macros list end*
%TA.AperFunction,ComponentPad*%
%ADD10C,0.654000*%
%TD*%
%TA.AperFunction,ComponentPad*%
%ADD11O,2.400000X0.900000*%
%TD*%
%TA.AperFunction,ComponentPad*%
%ADD12O,1.700000X0.900000*%
%TD*%
%TA.AperFunction,ComponentPad*%
%ADD13C,2.600000*%
%TD*%
%TA.AperFunction,ComponentPad*%
%ADD14C,1.000000*%
%TD*%
%TA.AperFunction,ComponentPad*%
%ADD15RoundRect,0.250000X-0.750000X0.750000X-0.750000X-0.750000X0.750000X-0.750000X0.750000X0.750000X0*%
%TD*%
%TA.AperFunction,ComponentPad*%
%ADD16C,2.000000*%
%TD*%
%TA.AperFunction,ComponentPad*%
%ADD17C,3.500000*%
%TD*%
%TA.AperFunction,ComponentPad*%
%ADD18C,1.500000*%
%TD*%
%TA.AperFunction,ComponentPad*%
%ADD19RoundRect,0.250000X0.750000X-0.750000X0.750000X0.750000X-0.750000X0.750000X-0.750000X-0.750000X0*%
%TD*%
%TA.AperFunction,ComponentPad*%
%ADD20R,1.700000X1.700000*%
%TD*%
%TA.AperFunction,ComponentPad*%
%ADD21C,1.700000*%
%TD*%
%TA.AperFunction,ViaPad*%
%ADD22C,0.508000*%
%TD*%
%TA.AperFunction,Conductor*%
%ADD23C,0.200000*%
%TD*%
G04 APERTURE END LIST*
D10*
%TO.P,J4,A1,A1*%
%TO.N,GND*%
X100060000Y-82700000D03*
%TO.P,J4,A4,A4*%
%TO.N,+5V*%
X100060000Y-83550000D03*
%TO.P,J4,A5,A5*%
%TO.N,unconnected-(J4-PadA5)*%
X100060000Y-84400000D03*
%TO.P,J4,A6,A6*%
%TO.N,unconnected-(J4-PadA6)*%
X100060000Y-85250000D03*
%TO.P,J4,A7,A7*%
%TO.N,unconnected-(J4-PadA7)*%
X100060000Y-86100000D03*
%TO.P,J4,A8,A8*%
%TO.N,unconnected-(J4-PadA8)*%
X100060000Y-86950000D03*
%TO.P,J4,A9,A9*%
%TO.N,+5V*%
X100060000Y-87800000D03*
%TO.P,J4,A12,A12*%
%TO.N,GND*%
X100060000Y-88650000D03*
%TO.P,J4,B1,B1*%
X98710000Y-88650000D03*
%TO.P,J4,B4,B4*%
%TO.N,+5V*%
X98710000Y-87800000D03*
%TO.P,J4,B5,B5*%
%TO.N,unconnected-(J4-PadB5)*%
X98710000Y-86950000D03*
%TO.P,J4,B6,B6*%
%TO.N,unconnected-(J4-PadB6)*%
X98710000Y-86100000D03*
%TO.P,J4,B7,B7*%
%TO.N,unconnected-(J4-PadB7)*%
X98710000Y-85250000D03*
%TO.P,J4,B8,B8*%
%TO.N,unconnected-(J4-PadB8)*%
X98710000Y-84400000D03*
%TO.P,J4,B9,B9*%
%TO.N,+5V*%
X98710000Y-83550000D03*
%TO.P,J4,B12,B12*%
%TO.N,GND*%
X98710000Y-82700000D03*
D11*
%TO.P,J4,SH1,SH1*%
X99080000Y-81350000D03*
%TO.P,J4,SH2,SH2*%
X99080000Y-90000000D03*
D12*
%TO.P,J4,SH3,SH3*%
X95700000Y-81350000D03*
%TO.P,J4,SH4,SH4*%
X95700000Y-90000000D03*
%TD*%
D13*
%TO.P,L1,1,1*%
%TO.N,+5V*%
X115980000Y-108500000D03*
%TO.P,L1,2,2*%
%TO.N,Net-(D2-A)*%
X115980000Y-113500000D03*
%TD*%
D14*
%TO.P,RV2,1,1*%
%TO.N,unconnected-(RV2-Pad1)*%
X147960000Y-76420000D03*
%TO.P,RV2,2,2*%
%TO.N,Net-(R7-Pad2)*%
X150500000Y-78960000D03*
%TO.P,RV2,3,3*%
%TO.N,Net-(U4-NO)*%
X147960000Y-81500000D03*
%TD*%
D15*
%TO.P,C17,1*%
%TO.N,VIR*%
X148000000Y-119632323D03*
D16*
%TO.P,C17,2*%
%TO.N,GND*%
X148000000Y-124632323D03*
%TD*%
D17*
%TO.P,J1,1,Pin_1*%
%TO.N,+5V*%
X99460000Y-63560000D03*
%TO.P,J1,2,Pin_2*%
%TO.N,GND*%
X99460000Y-71180000D03*
%TD*%
D10*
%TO.P,J3,A1,A1*%
%TO.N,GND*%
X100100000Y-98775000D03*
%TO.P,J3,A4,A4*%
%TO.N,+5V*%
X100100000Y-99625000D03*
%TO.P,J3,A5,A5*%
%TO.N,unconnected-(J3-PadA5)*%
X100100000Y-100475000D03*
%TO.P,J3,A6,A6*%
%TO.N,unconnected-(J3-PadA6)*%
X100100000Y-101325000D03*
%TO.P,J3,A7,A7*%
%TO.N,unconnected-(J3-PadA7)*%
X100100000Y-102175000D03*
%TO.P,J3,A8,A8*%
%TO.N,unconnected-(J3-PadA8)*%
X100100000Y-103025000D03*
%TO.P,J3,A9,A9*%
%TO.N,+5V*%
X100100000Y-103875000D03*
%TO.P,J3,A12,A12*%
%TO.N,GND*%
X100100000Y-104725000D03*
%TO.P,J3,B1,B1*%
X98750000Y-104725000D03*
%TO.P,J3,B4,B4*%
%TO.N,+5V*%
X98750000Y-103875000D03*
%TO.P,J3,B5,B5*%
%TO.N,unconnected-(J3-PadB5)*%
X98750000Y-103025000D03*
%TO.P,J3,B6,B6*%
%TO.N,unconnected-(J3-PadB6)*%
X98750000Y-102175000D03*
%TO.P,J3,B7,B7*%
%TO.N,unconnected-(J3-PadB7)*%
X98750000Y-101325000D03*
%TO.P,J3,B8,B8*%
%TO.N,unconnected-(J3-PadB8)*%
X98750000Y-100475000D03*
%TO.P,J3,B9,B9*%
%TO.N,+5V*%
X98750000Y-99625000D03*
%TO.P,J3,B12,B12*%
%TO.N,GND*%
X98750000Y-98775000D03*
D11*
%TO.P,J3,SH1,SH1*%
X99120000Y-97425000D03*
%TO.P,J3,SH2,SH2*%
X99120000Y-106075000D03*
D12*
%TO.P,J3,SH3,SH3*%
X95740000Y-97425000D03*
%TO.P,J3,SH4,SH4*%
X95740000Y-106075000D03*
%TD*%
D18*
%TO.P,J6,1,+V*%
%TO.N,+5V*%
X106960000Y-117680000D03*
%TO.P,J6,2,D-*%
%TO.N,unconnected-(J6-D--Pad2)*%
X106960000Y-120180000D03*
%TO.P,J6,3,D+*%
%TO.N,unconnected-(J6-D+-Pad3)*%
X106960000Y-122180000D03*
%TO.P,J6,4,GND*%
%TO.N,GND*%
X106960000Y-124680000D03*
D17*
%TO.P,J6,SH1,SH1*%
X104250000Y-114610000D03*
%TO.P,J6,SH2,SH2*%
X104250000Y-127750000D03*
%TD*%
%TO.P,J2,1,Pin_1*%
%TO.N,VIR*%
X148500000Y-111260000D03*
%TO.P,J2,2,Pin_2*%
%TO.N,/CC Sink/VIR-RTN*%
X148500000Y-103640000D03*
%TD*%
D19*
%TO.P,C24,1*%
%TO.N,VIR*%
X135250000Y-110117677D03*
D16*
%TO.P,C24,2*%
%TO.N,GND*%
X135250000Y-105117677D03*
%TD*%
D20*
%TO.P,J7,1,Pin_1*%
%TO.N,+3.3V*%
X147750000Y-57920000D03*
D21*
%TO.P,J7,2,Pin_2*%
%TO.N,/Connectors/STROBE*%
X147750000Y-60460000D03*
%TO.P,J7,3,Pin_3*%
%TO.N,GND*%
X147750000Y-63000000D03*
%TD*%
D14*
%TO.P,RV1,1,1*%
%TO.N,Net-(U1-FB)*%
X130790000Y-138710000D03*
%TO.P,RV1,2,2*%
%TO.N,Net-(R14-Pad2)*%
X128250000Y-141250000D03*
%TO.P,RV1,3,3*%
%TO.N,unconnected-(RV1-Pad3)*%
X125710000Y-138710000D03*
%TD*%
D22*
%TO.N,+5V*%
X122000000Y-78000000D03*
X123000000Y-57000000D03*
X115042500Y-133792500D03*
X123500000Y-91500000D03*
X117000000Y-86750000D03*
X137500000Y-53000000D03*
X122500000Y-68500000D03*
X112500000Y-68250000D03*
X130850000Y-99250000D03*
X107500000Y-64250000D03*
%TO.N,GND*%
X134500000Y-58250000D03*
X147000000Y-88500000D03*
X122978885Y-113593723D03*
X132000000Y-105250000D03*
X116750000Y-105000000D03*
X144500000Y-90000000D03*
X124750000Y-66000000D03*
X123750000Y-134000000D03*
X126500000Y-92750000D03*
X143000000Y-97000000D03*
X120000000Y-65250000D03*
X123750000Y-138000000D03*
X112115000Y-125000000D03*
X108750000Y-50750000D03*
X117500000Y-80750000D03*
X128250000Y-96000000D03*
X108500000Y-143500000D03*
X109500000Y-79750000D03*
X119115000Y-123225000D03*
X153000000Y-121750000D03*
X136500000Y-127000000D03*
X135000000Y-140000000D03*
X144750000Y-82250000D03*
X115750000Y-139500000D03*
X121750000Y-137750000D03*
X137000000Y-63500000D03*
X144000000Y-106500000D03*
X113750000Y-88000000D03*
X128500000Y-136500000D03*
X119115000Y-124225000D03*
X142500000Y-98000000D03*
X125000000Y-108500000D03*
X115500000Y-81500000D03*
X111250000Y-121000000D03*
X126000000Y-95750000D03*
X113115000Y-124000000D03*
X141500000Y-98000000D03*
X151250000Y-117750000D03*
X127250000Y-65750000D03*
X124500000Y-130250000D03*
X126000000Y-67000000D03*
X152000000Y-53500000D03*
X120750000Y-141250000D03*
X144498696Y-92009122D03*
X140000000Y-136250000D03*
X119000000Y-69750000D03*
X114115000Y-120225000D03*
X146250000Y-129250000D03*
X132750000Y-135500000D03*
X110250000Y-121000000D03*
X114615000Y-128000000D03*
X144000000Y-56750000D03*
X140000000Y-97000000D03*
X146500000Y-86500000D03*
X113500000Y-96750000D03*
X132750000Y-99300000D03*
X120115000Y-123225000D03*
X115500000Y-102500000D03*
X130000000Y-140500000D03*
X123750000Y-80500000D03*
X129500000Y-99300000D03*
X144500000Y-86500000D03*
X137250000Y-120000000D03*
X123500000Y-87250000D03*
X120750000Y-139250000D03*
X139000000Y-125000000D03*
X130000000Y-104000000D03*
X113524905Y-91444397D03*
X125500000Y-98000000D03*
X140750000Y-142000000D03*
X147500000Y-85750000D03*
X112750000Y-119500000D03*
X125500000Y-74250000D03*
X110500000Y-65500000D03*
X116615000Y-128000000D03*
X144500000Y-94000000D03*
X114480000Y-128975000D03*
X129250000Y-130500000D03*
X120750000Y-128637500D03*
X142000000Y-97000000D03*
X120250000Y-103500000D03*
X112115000Y-124000000D03*
X138000000Y-74000000D03*
X131000000Y-46750000D03*
X120115000Y-124225000D03*
X132500000Y-130500000D03*
X132137500Y-58200000D03*
X140000000Y-77500000D03*
X151250000Y-112250000D03*
X110000000Y-120000000D03*
X146500000Y-89500000D03*
X144000000Y-88500000D03*
X143500000Y-98000000D03*
X118000000Y-90000000D03*
X120000000Y-69000000D03*
X128500000Y-67000000D03*
X124500000Y-88500000D03*
X144434157Y-65151020D03*
X147000000Y-87500000D03*
X133000000Y-63750000D03*
X115615000Y-129000000D03*
X139000000Y-65750000D03*
X116730000Y-128975000D03*
X117500000Y-133750000D03*
X124500000Y-99250000D03*
X137250000Y-130500000D03*
X142000000Y-125750000D03*
X126250000Y-111250000D03*
X133000000Y-120250000D03*
X135750000Y-54500000D03*
X106000000Y-46500000D03*
X125500000Y-87250000D03*
X115115000Y-120225000D03*
X135250000Y-94000000D03*
X118115000Y-121225000D03*
X119115000Y-121225000D03*
X113500000Y-79750000D03*
X116500000Y-80750000D03*
X117115000Y-120225000D03*
X118750000Y-59250000D03*
X129069136Y-81704975D03*
X126500000Y-88500000D03*
X125500000Y-120500000D03*
X123250000Y-69250000D03*
X144000000Y-97000000D03*
X125000000Y-59000000D03*
X123500000Y-67000000D03*
X142250000Y-68750000D03*
X131000000Y-130500000D03*
X128000000Y-75500000D03*
X112115000Y-122000000D03*
X145250000Y-124250000D03*
X112115000Y-121000000D03*
X109233861Y-135725279D03*
X127000000Y-94500000D03*
X128000000Y-128000000D03*
X110000000Y-87000000D03*
X113115000Y-123000000D03*
X124750000Y-90750000D03*
X120500000Y-111500000D03*
X144000000Y-91000000D03*
X129750000Y-111250000D03*
X113115000Y-121000000D03*
X142750000Y-53000000D03*
X114000000Y-135750000D03*
X146500000Y-80210000D03*
X113250000Y-120250000D03*
X139250000Y-122000000D03*
X129000000Y-120500000D03*
X127500000Y-97500000D03*
X108500000Y-141500000D03*
X125000000Y-79500000D03*
X125250000Y-117250000D03*
X107250000Y-142500000D03*
X134500000Y-50750000D03*
X117750000Y-59250000D03*
X132750000Y-133500000D03*
X128250000Y-134500000D03*
X126500000Y-134250000D03*
X150750000Y-134750000D03*
X119750000Y-60250000D03*
X145500000Y-89500000D03*
X120115000Y-121225000D03*
X132500000Y-74500000D03*
X134750000Y-86250000D03*
X124000000Y-103250000D03*
X128500000Y-132500000D03*
X121000000Y-125500000D03*
X117500000Y-137250000D03*
X127000000Y-105500000D03*
X138250000Y-62500000D03*
X141250000Y-59250000D03*
X102210000Y-120680000D03*
X135750000Y-123000000D03*
X112500000Y-98000000D03*
X128000000Y-109500000D03*
X119000000Y-67500000D03*
X118500000Y-82000000D03*
X141000000Y-97000000D03*
X127500000Y-87250000D03*
X121750000Y-128637500D03*
X119775000Y-129292500D03*
X98000000Y-56500000D03*
X118115000Y-120225000D03*
X126000000Y-59000000D03*
X133850000Y-98250000D03*
X151373525Y-71318186D03*
X151500000Y-81710000D03*
X131000000Y-86500000D03*
X113115000Y-122000000D03*
X129500000Y-66000000D03*
X119750000Y-96250000D03*
X152750000Y-102500000D03*
X152500000Y-106750000D03*
X125250000Y-125750000D03*
X144000000Y-87500000D03*
X122750000Y-102250000D03*
X140500000Y-98000000D03*
X152750000Y-85000000D03*
X116000000Y-47000000D03*
X112115000Y-123019076D03*
X132750000Y-128500000D03*
X145750000Y-108250000D03*
X121500000Y-50750000D03*
X133250000Y-67750000D03*
X152500000Y-61750000D03*
X111750000Y-94000000D03*
X125250000Y-128000000D03*
X144500000Y-96000000D03*
X141503150Y-102267070D03*
X147500000Y-90500000D03*
X113250000Y-68750000D03*
X121000000Y-77500000D03*
X118000000Y-68750000D03*
X141469355Y-47638216D03*
X131750000Y-125250000D03*
X109750000Y-74500000D03*
X115500000Y-55750000D03*
X135250000Y-107500000D03*
X144500000Y-98000000D03*
X138000000Y-56500000D03*
X153000000Y-126750000D03*
X130500000Y-134500000D03*
X143500000Y-96000000D03*
X130225488Y-90454069D03*
X98750000Y-126500000D03*
X130500000Y-120250000D03*
X140250000Y-131500000D03*
X117500000Y-98750000D03*
X122000000Y-57000000D03*
X113115000Y-125000000D03*
X146000000Y-90500000D03*
X119500000Y-84500000D03*
X144000000Y-95000000D03*
X128000000Y-55000000D03*
X152750000Y-93750000D03*
X114500000Y-98000000D03*
X145500000Y-86500000D03*
X130500000Y-126500000D03*
X117000000Y-140500000D03*
X120115000Y-120225000D03*
X109500000Y-61500000D03*
X121250000Y-87000000D03*
X119115000Y-120225000D03*
X120750000Y-107250000D03*
X136750000Y-135500000D03*
X130500000Y-128500000D03*
X114250000Y-103500000D03*
X133925633Y-80250000D03*
X116500000Y-93750000D03*
X144000000Y-93000000D03*
X122750000Y-139000000D03*
X153000000Y-114500000D03*
X105500000Y-134500000D03*
X150750000Y-124500000D03*
X121750000Y-120500000D03*
X116500000Y-97500000D03*
X119750000Y-126000000D03*
X148000000Y-122500000D03*
X116115000Y-120225000D03*
X135500000Y-95000000D03*
X116500000Y-60000000D03*
X138250000Y-105000000D03*
%TO.N,Net-(U8-Q)*%
X116000000Y-73250000D03*
X118750000Y-84250000D03*
%TO.N,VIR*%
X132500000Y-131500000D03*
%TO.N,Net-(U4-NO)*%
X136250000Y-83000000D03*
X126500000Y-97250000D03*
%TO.N,/CC Sink/STROBE-SAFE*%
X124500000Y-104500000D03*
X117250000Y-141500000D03*
%TO.N,Net-(Q4-S-Pad1)*%
X131750000Y-126387500D03*
X116730000Y-121450000D03*
%TD*%
D23*
%TO.N,+5V*%
X139000000Y-77000000D02*
X151000000Y-65000000D01*
X121750000Y-91500000D02*
X117000000Y-86750000D01*
X152250000Y-82750000D02*
X152250000Y-66250000D01*
X130850000Y-99150000D02*
X129500000Y-97800000D01*
X128000000Y-61000000D02*
X127250000Y-60250000D01*
X126000000Y-57000000D02*
X123000000Y-57000000D01*
X129500000Y-61000000D02*
X128000000Y-61000000D01*
X148500000Y-55500000D02*
X140000000Y-55500000D01*
X140000000Y-55500000D02*
X137500000Y-53000000D01*
X122500000Y-68500000D02*
X122500000Y-74000000D01*
X151000000Y-65000000D02*
X151000000Y-58000000D01*
X108750000Y-127500000D02*
X108750000Y-119250000D01*
X138000000Y-84500000D02*
X150500000Y-84500000D01*
X130500000Y-67250000D02*
X130500000Y-62000000D01*
X122500000Y-68500000D02*
X129250000Y-68500000D01*
X122500000Y-74000000D02*
X122000000Y-74500000D01*
X111250000Y-64250000D02*
X107500000Y-64250000D01*
X151000000Y-58000000D02*
X148500000Y-55500000D01*
X112500000Y-65500000D02*
X111250000Y-64250000D01*
X112500000Y-68250000D02*
X112500000Y-65500000D01*
X152250000Y-66250000D02*
X151000000Y-65000000D01*
X127250000Y-60250000D02*
X127250000Y-58250000D01*
X150500000Y-84500000D02*
X152250000Y-82750000D01*
X127250000Y-58250000D02*
X126000000Y-57000000D01*
X129250000Y-68500000D02*
X130500000Y-67250000D01*
X130500000Y-62000000D02*
X129500000Y-61000000D01*
X130850000Y-99250000D02*
X130850000Y-99150000D01*
X129500000Y-93000000D02*
X138000000Y-84500000D01*
X115042500Y-133792500D02*
X108750000Y-127500000D01*
X138000000Y-78000000D02*
X122000000Y-78000000D01*
X139000000Y-77000000D02*
X138000000Y-78000000D01*
X122000000Y-74500000D02*
X122000000Y-78000000D01*
X108750000Y-119250000D02*
X107250000Y-117750000D01*
X129500000Y-97800000D02*
X129500000Y-93000000D01*
X123500000Y-91500000D02*
X121750000Y-91500000D01*
%TO.N,GND*%
X103460000Y-114680000D02*
X104960000Y-114680000D01*
%TO.N,Net-(U8-Q)*%
X118750000Y-84250000D02*
X119250000Y-83750000D01*
X118750000Y-73250000D02*
X116000000Y-73250000D01*
X120000000Y-74500000D02*
X118750000Y-73250000D01*
X119250000Y-78750000D02*
X120000000Y-78000000D01*
X119250000Y-83750000D02*
X119250000Y-78750000D01*
X120000000Y-78000000D02*
X120000000Y-74500000D01*
%TO.N,VIR*%
X139250000Y-130250000D02*
X139250000Y-126500000D01*
X139250000Y-126500000D02*
X146000000Y-119750000D01*
X138000000Y-131500000D02*
X139250000Y-130250000D01*
X132500000Y-131500000D02*
X138000000Y-131500000D01*
X146000000Y-119750000D02*
X148000000Y-119750000D01*
%TO.N,Net-(U4-NO)*%
X128000000Y-91250000D02*
X136250000Y-83000000D01*
X128000000Y-92500000D02*
X128000000Y-91250000D01*
X126750000Y-96250000D02*
X128000000Y-95000000D01*
X126500000Y-96500000D02*
X126750000Y-96250000D01*
X128000000Y-95000000D02*
X128000000Y-92500000D01*
X126500000Y-97250000D02*
X126500000Y-96500000D01*
%TO.N,/CC Sink/STROBE-SAFE*%
X118500000Y-142750000D02*
X135500000Y-142750000D01*
X152000000Y-126250000D02*
X152000000Y-108750000D01*
X150750000Y-107500000D02*
X143750000Y-107500000D01*
X117250000Y-141500000D02*
X118500000Y-142750000D01*
X135500000Y-142750000D02*
X152000000Y-126250000D01*
X152000000Y-108750000D02*
X150750000Y-107500000D01*
X126000000Y-104500000D02*
X124500000Y-104500000D01*
X128250000Y-102250000D02*
X126000000Y-104500000D01*
X143750000Y-107500000D02*
X138500000Y-102250000D01*
X138500000Y-102250000D02*
X128250000Y-102250000D01*
%TO.N,Net-(Q4-S-Pad1)*%
X122000000Y-122250000D02*
X117530000Y-122250000D01*
X132000000Y-123750000D02*
X123500000Y-123750000D01*
X132500000Y-125637500D02*
X132500000Y-124250000D01*
X123500000Y-123750000D02*
X122000000Y-122250000D01*
X132500000Y-124250000D02*
X132000000Y-123750000D01*
X117530000Y-122250000D02*
X116730000Y-121450000D01*
X131750000Y-126387500D02*
X132500000Y-125637500D01*
%TD*%
%TA.AperFunction,Conductor*%
%TO.N,GND*%
G36*
X153485148Y-45014852D02*
G01*
X153499500Y-45049500D01*
X153499500Y-143950500D01*
X153485148Y-143985148D01*
X153450500Y-143999500D01*
X94549500Y-143999500D01*
X94514852Y-143985148D01*
X94500500Y-143950500D01*
X94500500Y-141433051D01*
X116741500Y-141433051D01*
X116741500Y-141566948D01*
X116776152Y-141696273D01*
X116776153Y-141696275D01*
X116843095Y-141812220D01*
X116843097Y-141812222D01*
X116843099Y-141812226D01*
X116937774Y-141906901D01*
X116937778Y-141906903D01*
X116937779Y-141906904D01*
X117053724Y-141973846D01*
X117053726Y-141973847D01*
X117183051Y-142008499D01*
X117183052Y-142008500D01*
X117183055Y-142008500D01*
X117236865Y-142008500D01*
X117271513Y-142022852D01*
X118216329Y-142967668D01*
X118282332Y-143033671D01*
X118363168Y-143080341D01*
X118408248Y-143092420D01*
X118453327Y-143104500D01*
X118453329Y-143104500D01*
X135546673Y-143104500D01*
X135582735Y-143094836D01*
X135636832Y-143080341D01*
X135717668Y-143033671D01*
X140382459Y-138368880D01*
X145999500Y-138368880D01*
X145999500Y-138631120D01*
X146033730Y-138891116D01*
X146033731Y-138891120D01*
X146033732Y-138891127D01*
X146101599Y-139144412D01*
X146101602Y-139144419D01*
X146201957Y-139386697D01*
X146201959Y-139386700D01*
X146333074Y-139613800D01*
X146333084Y-139613815D01*
X146492709Y-139821841D01*
X146492720Y-139821853D01*
X146678146Y-140007279D01*
X146678158Y-140007290D01*
X146886184Y-140166915D01*
X146886193Y-140166921D01*
X146886197Y-140166924D01*
X147113303Y-140298043D01*
X147355581Y-140398398D01*
X147355584Y-140398398D01*
X147355587Y-140398400D01*
X147608872Y-140466267D01*
X147608873Y-140466267D01*
X147608884Y-140466270D01*
X147868880Y-140500500D01*
X147868883Y-140500500D01*
X148131117Y-140500500D01*
X148131120Y-140500500D01*
X148391116Y-140466270D01*
X148644419Y-140398398D01*
X148886697Y-140298043D01*
X149113803Y-140166924D01*
X149321851Y-140007282D01*
X149507282Y-139821851D01*
X149666924Y-139613803D01*
X149798043Y-139386697D01*
X149898398Y-139144419D01*
X149966270Y-138891116D01*
X150000500Y-138631120D01*
X150000500Y-138368880D01*
X149966270Y-138108884D01*
X149932941Y-137984496D01*
X149898400Y-137855587D01*
X149898396Y-137855577D01*
X149798043Y-137613303D01*
X149666924Y-137386197D01*
X149666921Y-137386193D01*
X149666915Y-137386184D01*
X149507290Y-137178158D01*
X149507279Y-137178146D01*
X149321853Y-136992720D01*
X149321841Y-136992709D01*
X149113815Y-136833084D01*
X149113800Y-136833074D01*
X148886700Y-136701959D01*
X148886701Y-136701959D01*
X148886697Y-136701957D01*
X148703209Y-136625953D01*
X148644422Y-136601603D01*
X148644412Y-136601599D01*
X148391127Y-136533732D01*
X148391120Y-136533731D01*
X148391116Y-136533730D01*
X148131120Y-136499500D01*
X147868880Y-136499500D01*
X147608884Y-136533730D01*
X147608880Y-136533730D01*
X147608872Y-136533732D01*
X147355587Y-136601599D01*
X147355577Y-136601603D01*
X147196435Y-136667522D01*
X147113303Y-136701957D01*
X147113300Y-136701958D01*
X147113299Y-136701959D01*
X146886199Y-136833074D01*
X146886184Y-136833084D01*
X146678158Y-136992709D01*
X146678146Y-136992720D01*
X146492720Y-137178146D01*
X146492709Y-137178158D01*
X146333084Y-137386184D01*
X146333074Y-137386199D01*
X146201959Y-137613299D01*
X146101603Y-137855577D01*
X146101599Y-137855587D01*
X146033732Y-138108872D01*
X146033730Y-138108880D01*
X146033730Y-138108884D01*
X145999500Y-138368880D01*
X140382459Y-138368880D01*
X152283671Y-126467668D01*
X152291305Y-126454445D01*
X152330341Y-126386832D01*
X152354500Y-126296671D01*
X152354500Y-108703329D01*
X152354500Y-108703327D01*
X152332799Y-108622341D01*
X152330341Y-108613168D01*
X152283671Y-108532332D01*
X152217668Y-108466329D01*
X150967668Y-107216329D01*
X150967666Y-107216328D01*
X150967664Y-107216326D01*
X150923636Y-107190907D01*
X150886832Y-107169659D01*
X150886829Y-107169658D01*
X150796673Y-107145500D01*
X150796671Y-107145500D01*
X143917135Y-107145500D01*
X143882487Y-107131148D01*
X140522717Y-103771378D01*
X146495499Y-103771378D01*
X146511337Y-103891678D01*
X146529798Y-104031898D01*
X146529799Y-104031902D01*
X146529800Y-104031909D01*
X146597804Y-104285703D01*
X146597806Y-104285709D01*
X146698361Y-104528471D01*
X146829741Y-104756027D01*
X146829751Y-104756042D01*
X146989698Y-104964489D01*
X146989708Y-104964501D01*
X147175498Y-105150291D01*
X147175510Y-105150301D01*
X147383957Y-105310248D01*
X147383966Y-105310254D01*
X147383970Y-105310257D01*
X147611530Y-105441639D01*
X147854292Y-105542194D01*
X147854296Y-105542195D01*
X148108090Y-105610199D01*
X148108091Y-105610199D01*
X148108102Y-105610202D01*
X148368618Y-105644500D01*
X148368621Y-105644500D01*
X148631378Y-105644500D01*
X148631382Y-105644500D01*
X148891898Y-105610202D01*
X149145708Y-105542194D01*
X149388470Y-105441639D01*
X149616030Y-105310257D01*
X149824495Y-105150297D01*
X150010297Y-104964495D01*
X150149046Y-104783673D01*
X150170248Y-104756042D01*
X150170249Y-104756039D01*
X150170257Y-104756030D01*
X150301639Y-104528470D01*
X150402194Y-104285708D01*
X150470202Y-104031898D01*
X150504500Y-103771382D01*
X150504500Y-103508618D01*
X150470202Y-103248102D01*
X150402194Y-102994292D01*
X150301639Y-102751530D01*
X150170257Y-102523970D01*
X150170254Y-102523966D01*
X150170248Y-102523957D01*
X150010301Y-102315510D01*
X150010291Y-102315498D01*
X149824501Y-102129708D01*
X149824489Y-102129698D01*
X149616042Y-101969751D01*
X149616027Y-101969741D01*
X149388470Y-101838361D01*
X149388471Y-101838361D01*
X149145709Y-101737806D01*
X149145703Y-101737804D01*
X148891909Y-101669800D01*
X148891902Y-101669799D01*
X148891898Y-101669798D01*
X148631382Y-101635500D01*
X148368618Y-101635500D01*
X148108102Y-101669798D01*
X148108098Y-101669798D01*
X148108090Y-101669800D01*
X147854296Y-101737804D01*
X147854290Y-101737806D01*
X147611528Y-101838361D01*
X147383972Y-101969741D01*
X147383957Y-101969751D01*
X147175510Y-102129698D01*
X147175498Y-102129708D01*
X146989708Y-102315498D01*
X146989698Y-102315510D01*
X146829751Y-102523957D01*
X146829741Y-102523972D01*
X146698361Y-102751528D01*
X146597806Y-102994290D01*
X146597804Y-102994296D01*
X146529800Y-103248090D01*
X146529798Y-103248098D01*
X146529798Y-103248102D01*
X146498656Y-103484648D01*
X146495500Y-103508621D01*
X146495500Y-103771378D01*
X146495499Y-103771378D01*
X140522717Y-103771378D01*
X138717670Y-101966331D01*
X138717664Y-101966326D01*
X138673636Y-101940907D01*
X138636832Y-101919659D01*
X138636829Y-101919658D01*
X138546673Y-101895500D01*
X138546671Y-101895500D01*
X128299685Y-101895500D01*
X128299669Y-101895499D01*
X128296672Y-101895499D01*
X128203329Y-101895499D01*
X128203327Y-101895499D01*
X128113170Y-101919657D01*
X128113166Y-101919658D01*
X128032331Y-101966329D01*
X128032331Y-101966330D01*
X125867513Y-104131148D01*
X125832865Y-104145500D01*
X124884923Y-104145500D01*
X124850275Y-104131148D01*
X124812229Y-104093102D01*
X124812226Y-104093099D01*
X124812222Y-104093097D01*
X124812220Y-104093095D01*
X124696275Y-104026153D01*
X124696273Y-104026152D01*
X124566948Y-103991500D01*
X124566945Y-103991500D01*
X124433055Y-103991500D01*
X124433052Y-103991500D01*
X124303726Y-104026152D01*
X124303724Y-104026153D01*
X124187779Y-104093095D01*
X124187770Y-104093102D01*
X124093102Y-104187770D01*
X124093095Y-104187779D01*
X124026153Y-104303724D01*
X124026152Y-104303726D01*
X123991500Y-104433051D01*
X123991500Y-104566948D01*
X124026152Y-104696273D01*
X124026153Y-104696275D01*
X124093095Y-104812220D01*
X124093097Y-104812222D01*
X124093099Y-104812226D01*
X124187774Y-104906901D01*
X124187778Y-104906903D01*
X124187779Y-104906904D01*
X124303724Y-104973846D01*
X124303726Y-104973847D01*
X124433051Y-105008499D01*
X124433052Y-105008500D01*
X124433055Y-105008500D01*
X124566948Y-105008500D01*
X124566948Y-105008499D01*
X124696274Y-104973847D01*
X124812226Y-104906901D01*
X124850275Y-104868852D01*
X124884923Y-104854500D01*
X126046673Y-104854500D01*
X126082735Y-104844836D01*
X126136832Y-104830341D01*
X126217668Y-104783671D01*
X128382487Y-102618852D01*
X128417135Y-102604500D01*
X138332865Y-102604500D01*
X138367513Y-102618852D01*
X143532332Y-107783671D01*
X143613168Y-107830341D01*
X143658248Y-107842420D01*
X143703327Y-107854500D01*
X143703329Y-107854500D01*
X143796671Y-107854500D01*
X150582865Y-107854500D01*
X150617513Y-107868852D01*
X151631148Y-108882487D01*
X151645500Y-108917135D01*
X151645500Y-126082865D01*
X151631148Y-126117513D01*
X135367513Y-142381148D01*
X135332865Y-142395500D01*
X118667135Y-142395500D01*
X118632487Y-142381148D01*
X117772852Y-141521513D01*
X117758500Y-141486865D01*
X117758500Y-141433052D01*
X117758499Y-141433051D01*
X117723847Y-141303726D01*
X117723846Y-141303723D01*
X117662681Y-141197785D01*
X117662679Y-141197782D01*
X117656901Y-141187774D01*
X117644809Y-141175682D01*
X127495500Y-141175682D01*
X127495500Y-141324317D01*
X127524492Y-141470068D01*
X127524496Y-141470083D01*
X127545799Y-141521513D01*
X127581371Y-141607390D01*
X127663941Y-141730966D01*
X127769034Y-141836059D01*
X127892610Y-141918629D01*
X128029920Y-141975505D01*
X128101767Y-141989796D01*
X128175682Y-142004499D01*
X128175685Y-142004499D01*
X128175688Y-142004500D01*
X128175689Y-142004500D01*
X128324311Y-142004500D01*
X128324312Y-142004500D01*
X128470080Y-141975505D01*
X128607390Y-141918629D01*
X128730966Y-141836059D01*
X128836059Y-141730966D01*
X128918629Y-141607390D01*
X128975505Y-141470080D01*
X129004500Y-141324312D01*
X129004500Y-141175688D01*
X128975505Y-141029920D01*
X128918629Y-140892610D01*
X128836059Y-140769034D01*
X128730966Y-140663941D01*
X128607390Y-140581371D01*
X128607388Y-140581370D01*
X128470083Y-140524496D01*
X128470081Y-140524495D01*
X128470080Y-140524495D01*
X128470077Y-140524494D01*
X128470068Y-140524492D01*
X128324317Y-140495500D01*
X128324312Y-140495500D01*
X128175688Y-140495500D01*
X128175682Y-140495500D01*
X128029931Y-140524492D01*
X128029916Y-140524496D01*
X127892611Y-140581370D01*
X127769034Y-140663940D01*
X127663940Y-140769034D01*
X127581370Y-140892611D01*
X127524496Y-141029916D01*
X127524492Y-141029931D01*
X127495500Y-141175682D01*
X117644809Y-141175682D01*
X117562226Y-141093099D01*
X117562222Y-141093097D01*
X117562220Y-141093095D01*
X117446275Y-141026153D01*
X117446273Y-141026152D01*
X117316948Y-140991500D01*
X117316945Y-140991500D01*
X117183055Y-140991500D01*
X117183052Y-140991500D01*
X117053726Y-141026152D01*
X117053724Y-141026153D01*
X116937779Y-141093095D01*
X116937770Y-141093102D01*
X116843102Y-141187770D01*
X116843095Y-141187779D01*
X116776153Y-141303724D01*
X116776152Y-141303726D01*
X116741500Y-141433051D01*
X94500500Y-141433051D01*
X94500500Y-138368880D01*
X97999500Y-138368880D01*
X97999500Y-138631120D01*
X98033730Y-138891116D01*
X98033731Y-138891120D01*
X98033732Y-138891127D01*
X98101599Y-139144412D01*
X98101602Y-139144419D01*
X98201957Y-139386697D01*
X98201959Y-139386700D01*
X98333074Y-139613800D01*
X98333084Y-139613815D01*
X98492709Y-139821841D01*
X98492720Y-139821853D01*
X98678146Y-140007279D01*
X98678158Y-140007290D01*
X98886184Y-140166915D01*
X98886193Y-140166921D01*
X98886197Y-140166924D01*
X99113303Y-140298043D01*
X99355581Y-140398398D01*
X99355584Y-140398398D01*
X99355587Y-140398400D01*
X99608872Y-140466267D01*
X99608873Y-140466267D01*
X99608884Y-140466270D01*
X99868880Y-140500500D01*
X99868883Y-140500500D01*
X100131117Y-140500500D01*
X100131120Y-140500500D01*
X100391116Y-140466270D01*
X100644419Y-140398398D01*
X100886697Y-140298043D01*
X101113803Y-140166924D01*
X101321851Y-140007282D01*
X101507282Y-139821851D01*
X101666924Y-139613803D01*
X101798043Y-139386697D01*
X101898398Y-139144419D01*
X101966270Y-138891116D01*
X101999899Y-138635682D01*
X124955500Y-138635682D01*
X124955500Y-138784317D01*
X124984492Y-138930068D01*
X124984494Y-138930077D01*
X124984495Y-138930080D01*
X125041371Y-139067390D01*
X125123941Y-139190966D01*
X125229034Y-139296059D01*
X125352610Y-139378629D01*
X125489920Y-139435505D01*
X125561767Y-139449796D01*
X125635682Y-139464499D01*
X125635685Y-139464499D01*
X125635688Y-139464500D01*
X125635689Y-139464500D01*
X125784311Y-139464500D01*
X125784312Y-139464500D01*
X125930080Y-139435505D01*
X126067390Y-139378629D01*
X126190966Y-139296059D01*
X126296059Y-139190966D01*
X126378629Y-139067390D01*
X126435505Y-138930080D01*
X126464500Y-138784312D01*
X126464500Y-138635688D01*
X126464499Y-138635682D01*
X130035500Y-138635682D01*
X130035500Y-138784317D01*
X130064492Y-138930068D01*
X130064494Y-138930077D01*
X130064495Y-138930080D01*
X130121371Y-139067390D01*
X130203941Y-139190966D01*
X130309034Y-139296059D01*
X130432610Y-139378629D01*
X130569920Y-139435505D01*
X130641767Y-139449796D01*
X130715682Y-139464499D01*
X130715685Y-139464499D01*
X130715688Y-139464500D01*
X130715689Y-139464500D01*
X130864311Y-139464500D01*
X130864312Y-139464500D01*
X131010080Y-139435505D01*
X131147390Y-139378629D01*
X131270966Y-139296059D01*
X131376059Y-139190966D01*
X131458629Y-139067390D01*
X131515505Y-138930080D01*
X131544500Y-138784312D01*
X131544500Y-138635688D01*
X131543591Y-138631120D01*
X131515507Y-138489931D01*
X131515505Y-138489920D01*
X131458629Y-138352610D01*
X131376059Y-138229034D01*
X131270966Y-138123941D01*
X131248431Y-138108884D01*
X131209594Y-138082934D01*
X131147390Y-138041371D01*
X131147388Y-138041370D01*
X131010083Y-137984496D01*
X131010081Y-137984495D01*
X131010080Y-137984495D01*
X131010077Y-137984494D01*
X131010068Y-137984492D01*
X130864317Y-137955500D01*
X130864312Y-137955500D01*
X130715688Y-137955500D01*
X130715682Y-137955500D01*
X130569931Y-137984492D01*
X130569916Y-137984496D01*
X130432611Y-138041370D01*
X130309034Y-138123940D01*
X130203940Y-138229034D01*
X130121370Y-138352611D01*
X130064496Y-138489916D01*
X130064492Y-138489931D01*
X130035500Y-138635682D01*
X126464499Y-138635682D01*
X126463591Y-138631120D01*
X126435507Y-138489931D01*
X126435505Y-138489920D01*
X126378629Y-138352610D01*
X126296059Y-138229034D01*
X126190966Y-138123941D01*
X126168431Y-138108884D01*
X126129594Y-138082934D01*
X126067390Y-138041371D01*
X126067388Y-138041370D01*
X125930083Y-137984496D01*
X125930081Y-137984495D01*
X125930080Y-137984495D01*
X125930077Y-137984494D01*
X125930068Y-137984492D01*
X125784317Y-137955500D01*
X125784312Y-137955500D01*
X125635688Y-137955500D01*
X125635682Y-137955500D01*
X125489931Y-137984492D01*
X125489916Y-137984496D01*
X125352611Y-138041370D01*
X125229034Y-138123940D01*
X125123940Y-138229034D01*
X125041370Y-138352611D01*
X124984496Y-138489916D01*
X124984492Y-138489931D01*
X124955500Y-138635682D01*
X101999899Y-138635682D01*
X102000500Y-138631120D01*
X102000500Y-138368880D01*
X101966270Y-138108884D01*
X101932941Y-137984496D01*
X101898400Y-137855587D01*
X101898396Y-137855577D01*
X101798043Y-137613303D01*
X101666924Y-137386197D01*
X101666921Y-137386193D01*
X101666915Y-137386184D01*
X101507290Y-137178158D01*
X101507279Y-137178146D01*
X101321853Y-136992720D01*
X101321841Y-136992709D01*
X101113815Y-136833084D01*
X101113800Y-136833074D01*
X100886700Y-136701959D01*
X100886701Y-136701959D01*
X100886697Y-136701957D01*
X100703209Y-136625953D01*
X100644422Y-136601603D01*
X100644412Y-136601599D01*
X100391127Y-136533732D01*
X100391120Y-136533731D01*
X100391116Y-136533730D01*
X100131120Y-136499500D01*
X99868880Y-136499500D01*
X99608884Y-136533730D01*
X99608880Y-136533730D01*
X99608872Y-136533732D01*
X99355587Y-136601599D01*
X99355577Y-136601603D01*
X99196435Y-136667522D01*
X99113303Y-136701957D01*
X99113300Y-136701958D01*
X99113299Y-136701959D01*
X98886199Y-136833074D01*
X98886184Y-136833084D01*
X98678158Y-136992709D01*
X98678146Y-136992720D01*
X98492720Y-137178146D01*
X98492709Y-137178158D01*
X98333084Y-137386184D01*
X98333074Y-137386199D01*
X98201959Y-137613299D01*
X98101603Y-137855577D01*
X98101599Y-137855587D01*
X98033732Y-138108872D01*
X98033730Y-138108880D01*
X98033730Y-138108884D01*
X97999500Y-138368880D01*
X94500500Y-138368880D01*
X94500500Y-120081061D01*
X105955500Y-120081061D01*
X105955500Y-120278938D01*
X105994100Y-120472991D01*
X105994105Y-120473009D01*
X106057721Y-120626590D01*
X106069824Y-120655809D01*
X106179754Y-120820331D01*
X106319669Y-120960246D01*
X106484191Y-121070176D01*
X106593345Y-121115389D01*
X106640038Y-121134730D01*
X106666556Y-121161249D01*
X106666556Y-121198752D01*
X106640038Y-121225270D01*
X106484192Y-121289823D01*
X106319669Y-121399753D01*
X106179753Y-121539669D01*
X106069822Y-121704194D01*
X105994105Y-121886990D01*
X105994100Y-121887008D01*
X105955500Y-122081061D01*
X105955500Y-122278938D01*
X105994100Y-122472991D01*
X105994105Y-122473009D01*
X106069822Y-122655805D01*
X106069824Y-122655809D01*
X106179754Y-122820331D01*
X106319669Y-122960246D01*
X106484191Y-123070176D01*
X106563917Y-123103199D01*
X106666990Y-123145894D01*
X106666992Y-123145894D01*
X106666998Y-123145897D01*
X106861065Y-123184500D01*
X107058935Y-123184500D01*
X107253002Y-123145897D01*
X107435809Y-123070176D01*
X107600331Y-122960246D01*
X107740246Y-122820331D01*
X107850176Y-122655809D01*
X107925897Y-122473002D01*
X107964500Y-122278935D01*
X107964500Y-122081065D01*
X107925897Y-121886998D01*
X107913430Y-121856901D01*
X107850177Y-121704194D01*
X107850176Y-121704191D01*
X107740246Y-121539669D01*
X107600331Y-121399754D01*
X107435809Y-121289824D01*
X107435806Y-121289822D01*
X107435805Y-121289822D01*
X107279962Y-121225270D01*
X107253443Y-121198752D01*
X107253443Y-121161249D01*
X107279960Y-121134730D01*
X107435809Y-121070176D01*
X107600331Y-120960246D01*
X107740246Y-120820331D01*
X107850176Y-120655809D01*
X107925897Y-120473002D01*
X107964500Y-120278935D01*
X107964500Y-120081065D01*
X107925897Y-119886998D01*
X107850176Y-119704191D01*
X107740246Y-119539669D01*
X107600331Y-119399754D01*
X107593964Y-119395500D01*
X107545983Y-119363440D01*
X107435809Y-119289824D01*
X107435806Y-119289822D01*
X107435805Y-119289822D01*
X107253009Y-119214105D01*
X107252991Y-119214100D01*
X107058938Y-119175500D01*
X107058935Y-119175500D01*
X106861065Y-119175500D01*
X106861061Y-119175500D01*
X106667008Y-119214100D01*
X106666990Y-119214105D01*
X106484194Y-119289822D01*
X106319669Y-119399753D01*
X106179753Y-119539669D01*
X106069822Y-119704194D01*
X105994105Y-119886990D01*
X105994100Y-119887008D01*
X105955500Y-120081061D01*
X94500500Y-120081061D01*
X94500500Y-117581061D01*
X105955500Y-117581061D01*
X105955500Y-117778938D01*
X105994100Y-117972991D01*
X105994105Y-117973009D01*
X106069822Y-118155805D01*
X106069824Y-118155809D01*
X106179754Y-118320331D01*
X106319669Y-118460246D01*
X106484191Y-118570176D01*
X106484196Y-118570178D01*
X106666990Y-118645894D01*
X106666992Y-118645894D01*
X106666998Y-118645897D01*
X106861065Y-118684500D01*
X107058935Y-118684500D01*
X107253002Y-118645897D01*
X107435809Y-118570176D01*
X107482118Y-118539232D01*
X107518899Y-118531916D01*
X107543988Y-118545327D01*
X108381148Y-119382486D01*
X108395500Y-119417134D01*
X108395500Y-127453329D01*
X108395500Y-127546671D01*
X108419659Y-127636832D01*
X108440907Y-127673636D01*
X108466326Y-127717664D01*
X108466331Y-127717670D01*
X114519648Y-133770987D01*
X114534000Y-133805635D01*
X114534000Y-133859448D01*
X114568652Y-133988773D01*
X114568653Y-133988775D01*
X114635595Y-134104720D01*
X114635597Y-134104722D01*
X114635599Y-134104726D01*
X114730274Y-134199401D01*
X114730278Y-134199403D01*
X114730279Y-134199404D01*
X114846224Y-134266346D01*
X114846226Y-134266347D01*
X114975551Y-134300999D01*
X114975552Y-134301000D01*
X114975555Y-134301000D01*
X115109448Y-134301000D01*
X115109448Y-134300999D01*
X115238774Y-134266347D01*
X115354726Y-134199401D01*
X115449401Y-134104726D01*
X115516347Y-133988774D01*
X115550999Y-133859448D01*
X115551000Y-133859448D01*
X115551000Y-133725552D01*
X115550999Y-133725551D01*
X115516347Y-133596226D01*
X115516346Y-133596224D01*
X115449404Y-133480279D01*
X115449403Y-133480278D01*
X115449401Y-133480274D01*
X115354726Y-133385599D01*
X115354722Y-133385597D01*
X115354720Y-133385595D01*
X115238775Y-133318653D01*
X115238773Y-133318652D01*
X115109448Y-133284000D01*
X115109445Y-133284000D01*
X115055635Y-133284000D01*
X115020987Y-133269648D01*
X113184390Y-131433051D01*
X131991500Y-131433051D01*
X131991500Y-131566948D01*
X132026152Y-131696273D01*
X132026153Y-131696275D01*
X132093095Y-131812220D01*
X132093097Y-131812222D01*
X132093099Y-131812226D01*
X132187774Y-131906901D01*
X132187778Y-131906903D01*
X132187779Y-131906904D01*
X132303724Y-131973846D01*
X132303726Y-131973847D01*
X132433051Y-132008499D01*
X132433052Y-132008500D01*
X132433055Y-132008500D01*
X132566948Y-132008500D01*
X132566948Y-132008499D01*
X132696274Y-131973847D01*
X132812226Y-131906901D01*
X132850275Y-131868852D01*
X132884923Y-131854500D01*
X138046673Y-131854500D01*
X138082735Y-131844836D01*
X138136832Y-131830341D01*
X138217668Y-131783671D01*
X139533671Y-130467668D01*
X139580341Y-130386832D01*
X139604500Y-130296671D01*
X139604500Y-126667135D01*
X139618852Y-126632487D01*
X146132487Y-120118852D01*
X146167135Y-120104500D01*
X146696501Y-120104500D01*
X146731149Y-120118852D01*
X146745501Y-120153500D01*
X146745501Y-120430583D01*
X146751958Y-120490660D01*
X146751961Y-120490669D01*
X146802656Y-120626587D01*
X146802657Y-120626589D01*
X146802658Y-120626590D01*
X146889596Y-120742727D01*
X147005733Y-120829665D01*
X147005734Y-120829665D01*
X147005735Y-120829666D01*
X147141657Y-120880363D01*
X147159855Y-120882319D01*
X147201745Y-120886823D01*
X148798254Y-120886822D01*
X148798260Y-120886822D01*
X148858337Y-120880364D01*
X148858339Y-120880363D01*
X148858342Y-120880363D01*
X148994267Y-120829665D01*
X149110404Y-120742727D01*
X149197342Y-120626590D01*
X149248040Y-120490665D01*
X149254500Y-120430578D01*
X149254499Y-118834069D01*
X149254499Y-118834068D01*
X149254499Y-118834062D01*
X149248041Y-118773985D01*
X149248039Y-118773980D01*
X149214665Y-118684499D01*
X149197343Y-118638058D01*
X149197342Y-118638056D01*
X149110404Y-118521919D01*
X148994267Y-118434981D01*
X148994266Y-118434980D01*
X148994264Y-118434979D01*
X148858342Y-118384282D01*
X148798261Y-118377823D01*
X147201739Y-118377823D01*
X147141662Y-118384281D01*
X147141653Y-118384284D01*
X147005735Y-118434979D01*
X146889596Y-118521919D01*
X146802656Y-118638058D01*
X146751959Y-118773980D01*
X146745500Y-118834061D01*
X146745500Y-119346500D01*
X146731148Y-119381148D01*
X146696500Y-119395500D01*
X146049684Y-119395500D01*
X146049668Y-119395499D01*
X146046671Y-119395499D01*
X145953329Y-119395499D01*
X145953327Y-119395499D01*
X145863170Y-119419657D01*
X145863166Y-119419658D01*
X145782331Y-119466329D01*
X145782331Y-119466330D01*
X138966331Y-126282329D01*
X138966326Y-126282335D01*
X138919659Y-126363168D01*
X138919658Y-126363170D01*
X138895500Y-126453327D01*
X138895500Y-130082865D01*
X138881148Y-130117513D01*
X137867513Y-131131148D01*
X137832865Y-131145500D01*
X132884923Y-131145500D01*
X132850275Y-131131148D01*
X132812229Y-131093102D01*
X132812226Y-131093099D01*
X132812222Y-131093097D01*
X132812220Y-131093095D01*
X132696275Y-131026153D01*
X132696273Y-131026152D01*
X132566948Y-130991500D01*
X132566945Y-130991500D01*
X132433055Y-130991500D01*
X132433052Y-130991500D01*
X132303726Y-131026152D01*
X132303724Y-131026153D01*
X132187779Y-131093095D01*
X132187770Y-131093102D01*
X132093102Y-131187770D01*
X132093095Y-131187779D01*
X132026153Y-131303724D01*
X132026152Y-131303726D01*
X131991500Y-131433051D01*
X113184390Y-131433051D01*
X109118852Y-127367513D01*
X109104500Y-127332865D01*
X109104500Y-121383051D01*
X116221500Y-121383051D01*
X116221500Y-121516948D01*
X116256152Y-121646273D01*
X116256153Y-121646275D01*
X116323095Y-121762220D01*
X116323097Y-121762222D01*
X116323099Y-121762226D01*
X116417774Y-121856901D01*
X116417778Y-121856903D01*
X116417779Y-121856904D01*
X116533724Y-121923846D01*
X116533726Y-121923847D01*
X116663051Y-121958499D01*
X116663052Y-121958500D01*
X116663055Y-121958500D01*
X116716865Y-121958500D01*
X116751513Y-121972852D01*
X117246329Y-122467668D01*
X117312332Y-122533671D01*
X117393168Y-122580341D01*
X117438248Y-122592420D01*
X117483327Y-122604500D01*
X117483329Y-122604500D01*
X117576671Y-122604500D01*
X121832865Y-122604500D01*
X121867513Y-122618852D01*
X123214613Y-123965951D01*
X123214618Y-123965957D01*
X123216329Y-123967668D01*
X123282332Y-124033671D01*
X123363168Y-124080341D01*
X123408248Y-124092420D01*
X123453327Y-124104500D01*
X123453329Y-124104500D01*
X123546671Y-124104500D01*
X131832865Y-124104500D01*
X131867513Y-124118852D01*
X132131148Y-124382487D01*
X132145500Y-124417135D01*
X132145500Y-125470365D01*
X132131148Y-125505013D01*
X131771513Y-125864648D01*
X131736865Y-125879000D01*
X131683052Y-125879000D01*
X131553726Y-125913652D01*
X131553724Y-125913653D01*
X131437779Y-125980595D01*
X131437770Y-125980602D01*
X131343102Y-126075270D01*
X131343095Y-126075279D01*
X131276153Y-126191224D01*
X131276152Y-126191226D01*
X131241500Y-126320551D01*
X131241500Y-126454448D01*
X131276152Y-126583773D01*
X131276153Y-126583775D01*
X131343095Y-126699720D01*
X131343097Y-126699722D01*
X131343099Y-126699726D01*
X131437774Y-126794401D01*
X131437778Y-126794403D01*
X131437779Y-126794404D01*
X131553724Y-126861346D01*
X131553726Y-126861347D01*
X131683051Y-126895999D01*
X131683052Y-126896000D01*
X131683055Y-126896000D01*
X131816948Y-126896000D01*
X131816948Y-126895999D01*
X131946274Y-126861347D01*
X132062226Y-126794401D01*
X132156901Y-126699726D01*
X132223847Y-126583774D01*
X132258500Y-126454445D01*
X132258500Y-126400635D01*
X132272852Y-126365987D01*
X132521326Y-126117513D01*
X132783671Y-125855168D01*
X132830341Y-125774332D01*
X132854500Y-125684171D01*
X132854500Y-125590829D01*
X132854500Y-124203329D01*
X132854500Y-124203327D01*
X132831864Y-124118852D01*
X132830341Y-124113168D01*
X132784444Y-124033671D01*
X132783673Y-124032335D01*
X132783668Y-124032329D01*
X132217670Y-123466331D01*
X132217664Y-123466326D01*
X132173636Y-123440907D01*
X132136832Y-123419659D01*
X132136829Y-123419658D01*
X132046673Y-123395500D01*
X132046671Y-123395500D01*
X123667134Y-123395500D01*
X123632486Y-123381148D01*
X122217670Y-121966331D01*
X122217664Y-121966326D01*
X122173636Y-121940907D01*
X122136832Y-121919659D01*
X122136829Y-121919658D01*
X122046673Y-121895500D01*
X122046671Y-121895500D01*
X117697135Y-121895500D01*
X117662487Y-121881148D01*
X117252852Y-121471513D01*
X117238500Y-121436865D01*
X117238500Y-121383052D01*
X117238499Y-121383051D01*
X117203847Y-121253726D01*
X117203846Y-121253724D01*
X117136904Y-121137779D01*
X117136903Y-121137778D01*
X117136901Y-121137774D01*
X117042226Y-121043099D01*
X117042222Y-121043097D01*
X117042220Y-121043095D01*
X116926275Y-120976153D01*
X116926273Y-120976152D01*
X116796948Y-120941500D01*
X116796945Y-120941500D01*
X116663055Y-120941500D01*
X116663052Y-120941500D01*
X116533726Y-120976152D01*
X116533724Y-120976153D01*
X116417779Y-121043095D01*
X116417770Y-121043102D01*
X116323102Y-121137770D01*
X116323095Y-121137779D01*
X116256153Y-121253724D01*
X116256152Y-121253726D01*
X116221500Y-121383051D01*
X109104500Y-121383051D01*
X109104500Y-119203327D01*
X109092420Y-119158248D01*
X109080341Y-119113168D01*
X109033671Y-119032332D01*
X108967668Y-118966329D01*
X108965962Y-118964623D01*
X108965951Y-118964613D01*
X107952453Y-117951114D01*
X107938101Y-117916466D01*
X107939041Y-117906916D01*
X107964500Y-117778935D01*
X107964500Y-117581065D01*
X107925897Y-117386998D01*
X107850176Y-117204191D01*
X107740246Y-117039669D01*
X107600331Y-116899754D01*
X107435809Y-116789824D01*
X107435806Y-116789822D01*
X107435805Y-116789822D01*
X107253009Y-116714105D01*
X107252991Y-116714100D01*
X107058938Y-116675500D01*
X107058935Y-116675500D01*
X106861065Y-116675500D01*
X106861061Y-116675500D01*
X106667008Y-116714100D01*
X106666990Y-116714105D01*
X106484194Y-116789822D01*
X106319669Y-116899753D01*
X106179753Y-117039669D01*
X106069822Y-117204194D01*
X105994105Y-117386990D01*
X105994100Y-117387008D01*
X105955500Y-117581061D01*
X94500500Y-117581061D01*
X94500500Y-113377658D01*
X114425500Y-113377658D01*
X114425500Y-113622341D01*
X114463776Y-113864010D01*
X114463777Y-113864013D01*
X114539388Y-114096722D01*
X114650468Y-114314730D01*
X114650471Y-114314734D01*
X114650472Y-114314736D01*
X114794294Y-114512689D01*
X114794296Y-114512691D01*
X114794299Y-114512695D01*
X114967304Y-114685700D01*
X114967307Y-114685702D01*
X114967311Y-114685706D01*
X115165264Y-114829528D01*
X115165266Y-114829529D01*
X115165269Y-114829531D01*
X115383277Y-114940611D01*
X115383279Y-114940612D01*
X115615987Y-115016223D01*
X115857658Y-115054500D01*
X115857659Y-115054500D01*
X116102341Y-115054500D01*
X116102342Y-115054500D01*
X116344013Y-115016223D01*
X116576721Y-114940612D01*
X116794736Y-114829528D01*
X116992689Y-114685706D01*
X117165706Y-114512689D01*
X117309528Y-114314736D01*
X117420612Y-114096721D01*
X117496223Y-113864013D01*
X117534500Y-113622342D01*
X117534500Y-113377658D01*
X117496223Y-113135987D01*
X117420612Y-112903279D01*
X117420611Y-112903277D01*
X117309531Y-112685269D01*
X117309529Y-112685266D01*
X117309528Y-112685264D01*
X117165706Y-112487311D01*
X117165702Y-112487307D01*
X117165700Y-112487304D01*
X116992695Y-112314299D01*
X116992696Y-112314299D01*
X116794730Y-112170468D01*
X116576722Y-112059388D01*
X116344013Y-111983777D01*
X116344010Y-111983776D01*
X116158364Y-111954373D01*
X116102342Y-111945500D01*
X115857658Y-111945500D01*
X115812178Y-111952703D01*
X115615989Y-111983776D01*
X115615986Y-111983777D01*
X115383277Y-112059388D01*
X115165269Y-112170468D01*
X114967304Y-112314299D01*
X114794299Y-112487304D01*
X114650468Y-112685269D01*
X114539388Y-112903277D01*
X114463777Y-113135986D01*
X114463776Y-113135989D01*
X114425500Y-113377658D01*
X94500500Y-113377658D01*
X94500500Y-111391378D01*
X146495499Y-111391378D01*
X146495500Y-111391382D01*
X146529798Y-111651898D01*
X146529799Y-111651902D01*
X146529800Y-111651909D01*
X146597804Y-111905703D01*
X146597806Y-111905709D01*
X146698361Y-112148471D01*
X146829741Y-112376027D01*
X146829751Y-112376042D01*
X146989698Y-112584489D01*
X146989708Y-112584501D01*
X147175498Y-112770291D01*
X147175510Y-112770301D01*
X147383957Y-112930248D01*
X147383966Y-112930254D01*
X147383970Y-112930257D01*
X147611530Y-113061639D01*
X147854292Y-113162194D01*
X147854296Y-113162195D01*
X148108090Y-113230199D01*
X148108091Y-113230199D01*
X148108102Y-113230202D01*
X148368618Y-113264500D01*
X148368621Y-113264500D01*
X148631378Y-113264500D01*
X148631382Y-113264500D01*
X148891898Y-113230202D01*
X149145708Y-113162194D01*
X149388470Y-113061639D01*
X149616030Y-112930257D01*
X149824495Y-112770297D01*
X150010297Y-112584495D01*
X150170257Y-112376030D01*
X150301639Y-112148470D01*
X150402194Y-111905708D01*
X150470202Y-111651898D01*
X150504500Y-111391382D01*
X150504500Y-111128618D01*
X150470202Y-110868102D01*
X150402194Y-110614292D01*
X150301639Y-110371530D01*
X150170257Y-110143970D01*
X150170254Y-110143966D01*
X150170248Y-110143957D01*
X150010301Y-109935510D01*
X150010291Y-109935498D01*
X149824501Y-109749708D01*
X149824489Y-109749698D01*
X149616042Y-109589751D01*
X149616027Y-109589741D01*
X149388470Y-109458361D01*
X149388471Y-109458361D01*
X149145709Y-109357806D01*
X149145703Y-109357804D01*
X148891909Y-109289800D01*
X148891902Y-109289799D01*
X148891898Y-109289798D01*
X148631382Y-109255500D01*
X148368618Y-109255500D01*
X148108102Y-109289798D01*
X148108098Y-109289798D01*
X148108090Y-109289800D01*
X147854296Y-109357804D01*
X147854290Y-109357806D01*
X147611528Y-109458361D01*
X147383972Y-109589741D01*
X147383957Y-109589751D01*
X147175510Y-109749698D01*
X147175498Y-109749708D01*
X146989708Y-109935498D01*
X146989698Y-109935510D01*
X146829751Y-110143957D01*
X146829741Y-110143972D01*
X146698361Y-110371528D01*
X146597806Y-110614290D01*
X146597804Y-110614296D01*
X146529800Y-110868090D01*
X146529798Y-110868098D01*
X146529798Y-110868102D01*
X146495500Y-111128618D01*
X146495500Y-111128621D01*
X146495500Y-111391378D01*
X146495499Y-111391378D01*
X94500500Y-111391378D01*
X94500500Y-108377658D01*
X114425500Y-108377658D01*
X114425500Y-108622341D01*
X114463776Y-108864010D01*
X114463777Y-108864013D01*
X114539388Y-109096722D01*
X114650468Y-109314730D01*
X114650471Y-109314734D01*
X114650472Y-109314736D01*
X114794294Y-109512689D01*
X114794296Y-109512691D01*
X114794299Y-109512695D01*
X114967304Y-109685700D01*
X114967307Y-109685702D01*
X114967311Y-109685706D01*
X115165264Y-109829528D01*
X115165266Y-109829529D01*
X115165269Y-109829531D01*
X115373242Y-109935498D01*
X115383279Y-109940612D01*
X115615987Y-110016223D01*
X115857658Y-110054500D01*
X115857659Y-110054500D01*
X116102341Y-110054500D01*
X116102342Y-110054500D01*
X116344013Y-110016223D01*
X116576721Y-109940612D01*
X116794736Y-109829528D01*
X116992689Y-109685706D01*
X117165706Y-109512689D01*
X117306128Y-109319415D01*
X133995500Y-109319415D01*
X133995500Y-110915937D01*
X134001958Y-110976014D01*
X134001961Y-110976023D01*
X134052656Y-111111941D01*
X134052657Y-111111943D01*
X134052658Y-111111944D01*
X134139596Y-111228081D01*
X134255733Y-111315019D01*
X134255734Y-111315019D01*
X134255735Y-111315020D01*
X134391657Y-111365717D01*
X134409855Y-111367673D01*
X134451745Y-111372177D01*
X136048254Y-111372176D01*
X136048260Y-111372176D01*
X136108337Y-111365718D01*
X136108339Y-111365717D01*
X136108342Y-111365717D01*
X136244267Y-111315019D01*
X136360404Y-111228081D01*
X136447342Y-111111944D01*
X136447642Y-111111139D01*
X136448110Y-111109887D01*
X136448110Y-111109886D01*
X136498040Y-110976019D01*
X136504499Y-110915938D01*
X136504499Y-110915937D01*
X136504500Y-110915932D01*
X136504499Y-109319423D01*
X136504499Y-109319422D01*
X136504499Y-109319416D01*
X136498041Y-109259339D01*
X136498039Y-109259334D01*
X136447342Y-109123410D01*
X136360404Y-109007273D01*
X136244267Y-108920335D01*
X136244266Y-108920334D01*
X136244264Y-108920333D01*
X136108342Y-108869636D01*
X136048261Y-108863177D01*
X134451739Y-108863177D01*
X134391662Y-108869635D01*
X134391653Y-108869638D01*
X134255735Y-108920333D01*
X134139596Y-109007273D01*
X134052656Y-109123412D01*
X134001959Y-109259334D01*
X133995500Y-109319415D01*
X117306128Y-109319415D01*
X117309528Y-109314736D01*
X117420612Y-109096721D01*
X117496223Y-108864013D01*
X117534500Y-108622342D01*
X117534500Y-108377658D01*
X117496223Y-108135987D01*
X117420612Y-107903279D01*
X117359669Y-107783671D01*
X117309531Y-107685269D01*
X117309529Y-107685266D01*
X117309528Y-107685264D01*
X117165706Y-107487311D01*
X117165702Y-107487307D01*
X117165700Y-107487304D01*
X116992695Y-107314299D01*
X116992696Y-107314299D01*
X116794730Y-107170468D01*
X116576722Y-107059388D01*
X116344013Y-106983777D01*
X116344010Y-106983776D01*
X116158364Y-106954373D01*
X116102342Y-106945500D01*
X115857658Y-106945500D01*
X115812178Y-106952703D01*
X115615989Y-106983776D01*
X115615986Y-106983777D01*
X115383277Y-107059388D01*
X115165269Y-107170468D01*
X114967304Y-107314299D01*
X114794299Y-107487304D01*
X114650468Y-107685269D01*
X114539388Y-107903277D01*
X114463777Y-108135986D01*
X114463776Y-108135989D01*
X114425500Y-108377658D01*
X94500500Y-108377658D01*
X94500500Y-99548440D01*
X98168500Y-99548440D01*
X98168500Y-99701559D01*
X98208127Y-99849449D01*
X98208128Y-99849453D01*
X98284684Y-99982050D01*
X98317986Y-100015352D01*
X98332338Y-100050000D01*
X98317986Y-100084648D01*
X98284685Y-100117949D01*
X98284684Y-100117949D01*
X98208128Y-100250546D01*
X98208127Y-100250550D01*
X98168500Y-100398440D01*
X98168500Y-100551559D01*
X98208127Y-100699449D01*
X98208128Y-100699453D01*
X98284684Y-100832050D01*
X98317986Y-100865352D01*
X98332338Y-100900000D01*
X98317986Y-100934648D01*
X98284685Y-100967949D01*
X98284684Y-100967949D01*
X98208128Y-101100546D01*
X98208127Y-101100550D01*
X98168500Y-101248440D01*
X98168500Y-101401559D01*
X98208127Y-101549449D01*
X98208128Y-101549453D01*
X98284684Y-101682050D01*
X98317986Y-101715352D01*
X98332338Y-101750000D01*
X98317986Y-101784648D01*
X98284685Y-101817949D01*
X98284684Y-101817949D01*
X98208128Y-101950546D01*
X98208127Y-101950550D01*
X98168500Y-102098440D01*
X98168500Y-102251559D01*
X98208127Y-102399449D01*
X98208128Y-102399453D01*
X98284684Y-102532050D01*
X98317986Y-102565352D01*
X98332338Y-102600000D01*
X98317986Y-102634648D01*
X98284685Y-102667949D01*
X98284684Y-102667949D01*
X98208128Y-102800546D01*
X98208127Y-102800550D01*
X98168500Y-102948440D01*
X98168500Y-103101559D01*
X98208127Y-103249449D01*
X98208128Y-103249453D01*
X98284684Y-103382050D01*
X98317986Y-103415352D01*
X98332338Y-103450000D01*
X98317986Y-103484648D01*
X98284685Y-103517949D01*
X98284684Y-103517949D01*
X98208128Y-103650546D01*
X98208127Y-103650550D01*
X98168500Y-103798440D01*
X98168500Y-103951559D01*
X98208127Y-104099449D01*
X98208128Y-104099453D01*
X98234714Y-104145500D01*
X98284684Y-104232050D01*
X98392950Y-104340316D01*
X98441482Y-104368336D01*
X98525546Y-104416871D01*
X98525548Y-104416871D01*
X98525549Y-104416872D01*
X98642190Y-104448125D01*
X98673440Y-104456499D01*
X98673441Y-104456500D01*
X98673444Y-104456500D01*
X98826559Y-104456500D01*
X98826559Y-104456499D01*
X98974451Y-104416872D01*
X99107050Y-104340316D01*
X99215316Y-104232050D01*
X99291872Y-104099451D01*
X99331499Y-103951559D01*
X99331500Y-103951559D01*
X99331500Y-103798441D01*
X99331499Y-103798440D01*
X99291872Y-103650550D01*
X99291871Y-103650546D01*
X99215315Y-103517949D01*
X99182014Y-103484648D01*
X99167662Y-103450000D01*
X99182014Y-103415352D01*
X99215315Y-103382051D01*
X99215316Y-103382050D01*
X99291872Y-103249451D01*
X99331499Y-103101559D01*
X99331500Y-103101559D01*
X99331500Y-102948441D01*
X99331499Y-102948440D01*
X99291872Y-102800550D01*
X99291871Y-102800546D01*
X99215315Y-102667949D01*
X99182014Y-102634648D01*
X99167662Y-102600000D01*
X99182014Y-102565352D01*
X99215315Y-102532051D01*
X99215316Y-102532050D01*
X99291872Y-102399451D01*
X99331499Y-102251559D01*
X99331500Y-102251559D01*
X99331500Y-102098441D01*
X99331499Y-102098440D01*
X99291872Y-101950550D01*
X99291871Y-101950546D01*
X99215315Y-101817949D01*
X99182014Y-101784648D01*
X99167662Y-101750000D01*
X99182014Y-101715352D01*
X99215315Y-101682051D01*
X99215316Y-101682050D01*
X99291872Y-101549451D01*
X99331499Y-101401559D01*
X99331500Y-101401559D01*
X99331500Y-101248441D01*
X99331499Y-101248440D01*
X99291872Y-101100550D01*
X99291871Y-101100546D01*
X99215315Y-100967949D01*
X99182014Y-100934648D01*
X99167662Y-100900000D01*
X99182014Y-100865352D01*
X99215315Y-100832051D01*
X99215316Y-100832050D01*
X99291872Y-100699451D01*
X99331499Y-100551559D01*
X99331500Y-100551559D01*
X99331500Y-100398441D01*
X99331499Y-100398440D01*
X99291872Y-100250550D01*
X99291871Y-100250546D01*
X99215315Y-100117949D01*
X99182014Y-100084648D01*
X99167662Y-100050000D01*
X99182014Y-100015352D01*
X99215315Y-99982051D01*
X99215316Y-99982050D01*
X99291872Y-99849451D01*
X99331499Y-99701559D01*
X99331500Y-99701559D01*
X99331500Y-99548441D01*
X99331499Y-99548440D01*
X99518500Y-99548440D01*
X99518500Y-99701559D01*
X99558127Y-99849449D01*
X99558128Y-99849453D01*
X99634684Y-99982050D01*
X99667986Y-100015352D01*
X99682338Y-100050000D01*
X99667986Y-100084648D01*
X99634685Y-100117949D01*
X99634684Y-100117949D01*
X99558128Y-100250546D01*
X99558127Y-100250550D01*
X99518500Y-100398440D01*
X99518500Y-100551559D01*
X99558127Y-100699449D01*
X99558128Y-100699453D01*
X99634684Y-100832050D01*
X99667986Y-100865352D01*
X99682338Y-100900000D01*
X99667986Y-100934648D01*
X99634685Y-100967949D01*
X99634684Y-100967949D01*
X99558128Y-101100546D01*
X99558127Y-101100550D01*
X99518500Y-101248440D01*
X99518500Y-101401559D01*
X99558127Y-101549449D01*
X99558128Y-101549453D01*
X99634684Y-101682050D01*
X99667986Y-101715352D01*
X99682338Y-101750000D01*
X99667986Y-101784648D01*
X99634685Y-101817949D01*
X99634684Y-101817949D01*
X99558128Y-101950546D01*
X99558127Y-101950550D01*
X99518500Y-102098440D01*
X99518500Y-102251559D01*
X99558127Y-102399449D01*
X99558128Y-102399453D01*
X99634684Y-102532050D01*
X99667986Y-102565352D01*
X99682338Y-102600000D01*
X99667986Y-102634648D01*
X99634685Y-102667949D01*
X99634684Y-102667949D01*
X99558128Y-102800546D01*
X99558127Y-102800550D01*
X99518500Y-102948440D01*
X99518500Y-103101559D01*
X99558127Y-103249449D01*
X99558128Y-103249453D01*
X99634684Y-103382050D01*
X99667986Y-103415352D01*
X99682338Y-103450000D01*
X99667986Y-103484648D01*
X99634685Y-103517949D01*
X99634684Y-103517949D01*
X99558128Y-103650546D01*
X99558127Y-103650550D01*
X99518500Y-103798440D01*
X99518500Y-103951559D01*
X99558127Y-104099449D01*
X99558128Y-104099453D01*
X99584714Y-104145500D01*
X99634684Y-104232050D01*
X99742950Y-104340316D01*
X99791482Y-104368336D01*
X99875546Y-104416871D01*
X99875548Y-104416871D01*
X99875549Y-104416872D01*
X99992190Y-104448125D01*
X100023440Y-104456499D01*
X100023441Y-104456500D01*
X100023444Y-104456500D01*
X100176559Y-104456500D01*
X100176559Y-104456499D01*
X100324451Y-104416872D01*
X100457050Y-104340316D01*
X100565316Y-104232050D01*
X100641872Y-104099451D01*
X100681499Y-103951559D01*
X100681500Y-103951559D01*
X100681500Y-103798441D01*
X100681499Y-103798440D01*
X100641872Y-103650550D01*
X100641871Y-103650546D01*
X100565315Y-103517949D01*
X100532014Y-103484648D01*
X100517662Y-103450000D01*
X100532014Y-103415352D01*
X100565315Y-103382051D01*
X100565316Y-103382050D01*
X100641872Y-103249451D01*
X100681499Y-103101559D01*
X100681500Y-103101559D01*
X100681500Y-102948441D01*
X100681499Y-102948440D01*
X100641872Y-102800550D01*
X100641871Y-102800546D01*
X100565315Y-102667949D01*
X100532014Y-102634648D01*
X100517662Y-102600000D01*
X100532014Y-102565352D01*
X100565315Y-102532051D01*
X100565316Y-102532050D01*
X100641872Y-102399451D01*
X100681499Y-102251559D01*
X100681500Y-102251559D01*
X100681500Y-102098441D01*
X100681499Y-102098440D01*
X100641872Y-101950550D01*
X100641871Y-101950546D01*
X100565315Y-101817949D01*
X100532014Y-101784648D01*
X100517662Y-101750000D01*
X100532014Y-101715352D01*
X100565315Y-101682051D01*
X100565316Y-101682050D01*
X100641872Y-101549451D01*
X100681499Y-101401559D01*
X100681500Y-101401559D01*
X100681500Y-101248441D01*
X100681499Y-101248440D01*
X100641872Y-101100550D01*
X100641871Y-101100546D01*
X100565315Y-100967949D01*
X100532014Y-100934648D01*
X100517662Y-100900000D01*
X100532014Y-100865352D01*
X100565315Y-100832051D01*
X100565316Y-100832050D01*
X100641872Y-100699451D01*
X100681499Y-100551559D01*
X100681500Y-100551559D01*
X100681500Y-100398441D01*
X100681499Y-100398440D01*
X100641872Y-100250550D01*
X100641871Y-100250546D01*
X100565315Y-100117949D01*
X100532014Y-100084648D01*
X100517662Y-100050000D01*
X100532014Y-100015352D01*
X100565315Y-99982051D01*
X100565316Y-99982050D01*
X100641872Y-99849451D01*
X100681499Y-99701559D01*
X100681500Y-99701559D01*
X100681500Y-99548441D01*
X100681499Y-99548440D01*
X100654124Y-99446274D01*
X100641872Y-99400549D01*
X100641871Y-99400548D01*
X100641871Y-99400546D01*
X100565315Y-99267949D01*
X100457050Y-99159684D01*
X100324453Y-99083128D01*
X100324449Y-99083127D01*
X100176559Y-99043500D01*
X100176556Y-99043500D01*
X100023444Y-99043500D01*
X100023441Y-99043500D01*
X99875550Y-99083127D01*
X99875546Y-99083128D01*
X99742949Y-99159684D01*
X99742949Y-99159685D01*
X99634685Y-99267949D01*
X99634684Y-99267949D01*
X99558128Y-99400546D01*
X99558127Y-99400550D01*
X99518500Y-99548440D01*
X99331499Y-99548440D01*
X99304124Y-99446274D01*
X99291872Y-99400549D01*
X99291871Y-99400548D01*
X99291871Y-99400546D01*
X99215315Y-99267949D01*
X99107050Y-99159684D01*
X98974453Y-99083128D01*
X98974449Y-99083127D01*
X98826559Y-99043500D01*
X98826556Y-99043500D01*
X98673444Y-99043500D01*
X98673441Y-99043500D01*
X98525550Y-99083127D01*
X98525546Y-99083128D01*
X98392949Y-99159684D01*
X98392949Y-99159685D01*
X98284685Y-99267949D01*
X98284684Y-99267949D01*
X98208128Y-99400546D01*
X98208127Y-99400550D01*
X98168500Y-99548440D01*
X94500500Y-99548440D01*
X94500500Y-97183051D01*
X125991500Y-97183051D01*
X125991500Y-97316948D01*
X126026152Y-97446273D01*
X126026153Y-97446275D01*
X126093095Y-97562220D01*
X126093097Y-97562222D01*
X126093099Y-97562226D01*
X126187774Y-97656901D01*
X126187778Y-97656903D01*
X126187779Y-97656904D01*
X126303724Y-97723846D01*
X126303726Y-97723847D01*
X126433051Y-97758499D01*
X126433052Y-97758500D01*
X126433055Y-97758500D01*
X126566948Y-97758500D01*
X126566948Y-97758499D01*
X126696274Y-97723847D01*
X126812226Y-97656901D01*
X126906901Y-97562226D01*
X126973847Y-97446274D01*
X127008499Y-97316948D01*
X127008500Y-97316948D01*
X127008500Y-97183052D01*
X127008499Y-97183051D01*
X126973847Y-97053726D01*
X126973846Y-97053724D01*
X126906904Y-96937779D01*
X126906903Y-96937778D01*
X126906901Y-96937774D01*
X126868852Y-96899725D01*
X126854500Y-96865077D01*
X126854500Y-96667134D01*
X126868852Y-96632486D01*
X126967666Y-96533672D01*
X126967668Y-96533671D01*
X128283671Y-95217668D01*
X128330341Y-95136832D01*
X128354500Y-95046671D01*
X128354500Y-92453329D01*
X128354500Y-91417135D01*
X128368852Y-91382487D01*
X136228487Y-83522852D01*
X136263135Y-83508500D01*
X136316948Y-83508500D01*
X136316948Y-83508499D01*
X136446274Y-83473847D01*
X136562226Y-83406901D01*
X136656901Y-83312226D01*
X136723847Y-83196274D01*
X136758499Y-83066948D01*
X136758500Y-83066948D01*
X136758500Y-82933052D01*
X136758499Y-82933051D01*
X136723847Y-82803726D01*
X136723846Y-82803724D01*
X136656904Y-82687779D01*
X136656903Y-82687778D01*
X136656901Y-82687774D01*
X136562226Y-82593099D01*
X136562222Y-82593097D01*
X136562220Y-82593095D01*
X136446275Y-82526153D01*
X136446273Y-82526152D01*
X136316948Y-82491500D01*
X136316945Y-82491500D01*
X136183055Y-82491500D01*
X136183052Y-82491500D01*
X136053726Y-82526152D01*
X136053724Y-82526153D01*
X135937779Y-82593095D01*
X135937770Y-82593102D01*
X135843102Y-82687770D01*
X135843095Y-82687779D01*
X135776153Y-82803724D01*
X135776152Y-82803726D01*
X135741500Y-82933051D01*
X135741500Y-82986865D01*
X135727148Y-83021513D01*
X127716331Y-91032329D01*
X127716326Y-91032335D01*
X127669659Y-91113168D01*
X127669658Y-91113170D01*
X127645500Y-91203327D01*
X127645500Y-94832865D01*
X127631148Y-94867513D01*
X126469123Y-96029537D01*
X126275439Y-96223220D01*
X126275440Y-96223221D01*
X126216326Y-96282335D01*
X126169659Y-96363168D01*
X126169658Y-96363170D01*
X126145500Y-96453327D01*
X126145500Y-96865077D01*
X126131148Y-96899725D01*
X126093102Y-96937770D01*
X126093095Y-96937779D01*
X126026153Y-97053724D01*
X126026152Y-97053726D01*
X125991500Y-97183051D01*
X94500500Y-97183051D01*
X94500500Y-83473440D01*
X98128500Y-83473440D01*
X98128500Y-83626559D01*
X98168127Y-83774449D01*
X98168128Y-83774453D01*
X98244684Y-83907050D01*
X98277986Y-83940352D01*
X98292338Y-83975000D01*
X98277986Y-84009648D01*
X98244685Y-84042949D01*
X98244684Y-84042949D01*
X98168128Y-84175546D01*
X98168127Y-84175550D01*
X98128500Y-84323440D01*
X98128500Y-84476559D01*
X98168127Y-84624449D01*
X98168128Y-84624453D01*
X98244684Y-84757050D01*
X98277986Y-84790352D01*
X98292338Y-84825000D01*
X98277986Y-84859648D01*
X98244685Y-84892949D01*
X98244684Y-84892949D01*
X98168128Y-85025546D01*
X98168127Y-85025550D01*
X98128500Y-85173440D01*
X98128500Y-85326559D01*
X98168127Y-85474449D01*
X98168128Y-85474453D01*
X98244684Y-85607050D01*
X98277986Y-85640352D01*
X98292338Y-85675000D01*
X98277986Y-85709648D01*
X98244685Y-85742949D01*
X98244684Y-85742949D01*
X98168128Y-85875546D01*
X98168127Y-85875550D01*
X98128500Y-86023440D01*
X98128500Y-86176559D01*
X98168127Y-86324449D01*
X98168128Y-86324453D01*
X98244684Y-86457050D01*
X98277986Y-86490352D01*
X98292338Y-86525000D01*
X98277986Y-86559648D01*
X98244685Y-86592949D01*
X98244684Y-86592949D01*
X98168128Y-86725546D01*
X98168127Y-86725550D01*
X98128500Y-86873440D01*
X98128500Y-87026559D01*
X98168127Y-87174449D01*
X98168128Y-87174453D01*
X98244684Y-87307050D01*
X98277986Y-87340352D01*
X98292338Y-87375000D01*
X98277986Y-87409648D01*
X98244685Y-87442949D01*
X98244684Y-87442949D01*
X98168128Y-87575546D01*
X98168127Y-87575550D01*
X98128500Y-87723440D01*
X98128500Y-87876559D01*
X98168127Y-88024449D01*
X98168128Y-88024453D01*
X98244684Y-88157050D01*
X98352950Y-88265316D01*
X98401482Y-88293336D01*
X98485546Y-88341871D01*
X98485548Y-88341871D01*
X98485549Y-88341872D01*
X98602190Y-88373125D01*
X98633440Y-88381499D01*
X98633441Y-88381500D01*
X98633444Y-88381500D01*
X98786559Y-88381500D01*
X98786559Y-88381499D01*
X98934451Y-88341872D01*
X99067050Y-88265316D01*
X99175316Y-88157050D01*
X99251872Y-88024451D01*
X99291499Y-87876559D01*
X99291500Y-87876559D01*
X99291500Y-87723441D01*
X99291499Y-87723440D01*
X99251872Y-87575550D01*
X99251871Y-87575546D01*
X99175315Y-87442949D01*
X99142014Y-87409648D01*
X99127662Y-87375000D01*
X99142014Y-87340352D01*
X99175315Y-87307051D01*
X99175316Y-87307050D01*
X99251872Y-87174451D01*
X99291499Y-87026559D01*
X99291500Y-87026559D01*
X99291500Y-86873441D01*
X99291499Y-86873440D01*
X99251872Y-86725550D01*
X99251871Y-86725546D01*
X99175315Y-86592949D01*
X99142014Y-86559648D01*
X99127662Y-86525000D01*
X99142014Y-86490352D01*
X99175315Y-86457051D01*
X99175316Y-86457050D01*
X99251872Y-86324451D01*
X99291499Y-86176559D01*
X99291500Y-86176559D01*
X99291500Y-86023441D01*
X99291499Y-86023440D01*
X99251872Y-85875550D01*
X99251871Y-85875546D01*
X99175315Y-85742949D01*
X99142014Y-85709648D01*
X99127662Y-85675000D01*
X99142014Y-85640352D01*
X99175315Y-85607051D01*
X99175316Y-85607050D01*
X99251872Y-85474451D01*
X99291499Y-85326559D01*
X99291500Y-85326559D01*
X99291500Y-85173441D01*
X99291499Y-85173440D01*
X99251872Y-85025550D01*
X99251871Y-85025546D01*
X99175315Y-84892949D01*
X99142014Y-84859648D01*
X99127662Y-84825000D01*
X99142014Y-84790352D01*
X99175315Y-84757051D01*
X99175316Y-84757050D01*
X99251872Y-84624451D01*
X99291499Y-84476559D01*
X99291500Y-84476559D01*
X99291500Y-84323441D01*
X99291499Y-84323440D01*
X99269902Y-84242839D01*
X99251872Y-84175549D01*
X99251871Y-84175548D01*
X99251871Y-84175546D01*
X99203336Y-84091482D01*
X99175316Y-84042950D01*
X99142014Y-84009648D01*
X99127662Y-83975000D01*
X99142014Y-83940352D01*
X99175315Y-83907051D01*
X99175316Y-83907050D01*
X99251872Y-83774451D01*
X99291499Y-83626559D01*
X99291500Y-83626559D01*
X99291500Y-83473441D01*
X99291499Y-83473440D01*
X99478500Y-83473440D01*
X99478500Y-83626559D01*
X99518127Y-83774449D01*
X99518128Y-83774453D01*
X99594684Y-83907050D01*
X99627986Y-83940352D01*
X99642338Y-83975000D01*
X99627986Y-84009648D01*
X99594685Y-84042949D01*
X99594684Y-84042949D01*
X99518128Y-84175546D01*
X99518127Y-84175550D01*
X99478500Y-84323440D01*
X99478500Y-84476559D01*
X99518127Y-84624449D01*
X99518128Y-84624453D01*
X99594684Y-84757050D01*
X99627986Y-84790352D01*
X99642338Y-84825000D01*
X99627986Y-84859648D01*
X99594685Y-84892949D01*
X99594684Y-84892949D01*
X99518128Y-85025546D01*
X99518127Y-85025550D01*
X99478500Y-85173440D01*
X99478500Y-85326559D01*
X99518127Y-85474449D01*
X99518128Y-85474453D01*
X99594684Y-85607050D01*
X99627986Y-85640352D01*
X99642338Y-85675000D01*
X99627986Y-85709648D01*
X99594685Y-85742949D01*
X99594684Y-85742949D01*
X99518128Y-85875546D01*
X99518127Y-85875550D01*
X99478500Y-86023440D01*
X99478500Y-86176559D01*
X99518127Y-86324449D01*
X99518128Y-86324453D01*
X99594684Y-86457050D01*
X99627986Y-86490352D01*
X99642338Y-86525000D01*
X99627986Y-86559648D01*
X99594685Y-86592949D01*
X99594684Y-86592949D01*
X99518128Y-86725546D01*
X99518127Y-86725550D01*
X99478500Y-86873440D01*
X99478500Y-87026559D01*
X99518127Y-87174449D01*
X99518128Y-87174453D01*
X99594684Y-87307050D01*
X99627986Y-87340352D01*
X99642338Y-87375000D01*
X99627986Y-87409648D01*
X99594685Y-87442949D01*
X99594684Y-87442949D01*
X99518128Y-87575546D01*
X99518127Y-87575550D01*
X99478500Y-87723440D01*
X99478500Y-87876559D01*
X99518127Y-88024449D01*
X99518128Y-88024453D01*
X99594684Y-88157050D01*
X99702950Y-88265316D01*
X99751482Y-88293336D01*
X99835546Y-88341871D01*
X99835548Y-88341871D01*
X99835549Y-88341872D01*
X99952190Y-88373125D01*
X99983440Y-88381499D01*
X99983441Y-88381500D01*
X99983444Y-88381500D01*
X100136559Y-88381500D01*
X100136559Y-88381499D01*
X100284451Y-88341872D01*
X100417050Y-88265316D01*
X100525316Y-88157050D01*
X100601872Y-88024451D01*
X100641499Y-87876559D01*
X100641500Y-87876559D01*
X100641500Y-87723441D01*
X100641499Y-87723440D01*
X100601872Y-87575550D01*
X100601871Y-87575546D01*
X100525315Y-87442949D01*
X100492014Y-87409648D01*
X100477662Y-87375000D01*
X100492014Y-87340352D01*
X100525315Y-87307051D01*
X100525316Y-87307050D01*
X100601872Y-87174451D01*
X100641499Y-87026559D01*
X100641500Y-87026559D01*
X100641500Y-86873441D01*
X100641499Y-86873440D01*
X100601872Y-86725550D01*
X100601871Y-86725546D01*
X100589629Y-86704343D01*
X100577336Y-86683051D01*
X116491500Y-86683051D01*
X116491500Y-86816948D01*
X116526152Y-86946273D01*
X116526153Y-86946275D01*
X116593095Y-87062220D01*
X116593097Y-87062222D01*
X116593099Y-87062226D01*
X116687774Y-87156901D01*
X116687778Y-87156903D01*
X116687779Y-87156904D01*
X116803724Y-87223846D01*
X116803726Y-87223847D01*
X116933051Y-87258499D01*
X116933052Y-87258500D01*
X116933055Y-87258500D01*
X116986865Y-87258500D01*
X117021513Y-87272852D01*
X121464613Y-91715951D01*
X121464618Y-91715957D01*
X121466329Y-91717668D01*
X121532332Y-91783671D01*
X121613168Y-91830341D01*
X121658248Y-91842420D01*
X121703327Y-91854500D01*
X121703329Y-91854500D01*
X123115077Y-91854500D01*
X123149725Y-91868852D01*
X123187774Y-91906901D01*
X123187778Y-91906903D01*
X123187779Y-91906904D01*
X123303724Y-91973846D01*
X123303726Y-91973847D01*
X123433051Y-92008499D01*
X123433052Y-92008500D01*
X123433055Y-92008500D01*
X123566948Y-92008500D01*
X123566948Y-92008499D01*
X123696274Y-91973847D01*
X123812226Y-91906901D01*
X123906901Y-91812226D01*
X123973847Y-91696274D01*
X124008499Y-91566948D01*
X124008500Y-91566948D01*
X124008500Y-91433052D01*
X124008499Y-91433051D01*
X123973847Y-91303726D01*
X123973846Y-91303724D01*
X123906904Y-91187779D01*
X123906903Y-91187778D01*
X123906901Y-91187774D01*
X123812226Y-91093099D01*
X123812222Y-91093097D01*
X123812220Y-91093095D01*
X123696275Y-91026153D01*
X123696273Y-91026152D01*
X123566948Y-90991500D01*
X123566945Y-90991500D01*
X123433055Y-90991500D01*
X123433052Y-90991500D01*
X123303726Y-91026152D01*
X123303724Y-91026153D01*
X123187779Y-91093095D01*
X123187770Y-91093102D01*
X123149725Y-91131148D01*
X123115077Y-91145500D01*
X121917134Y-91145500D01*
X121882486Y-91131148D01*
X117522852Y-86771513D01*
X117508500Y-86736865D01*
X117508500Y-86683052D01*
X117508499Y-86683051D01*
X117473847Y-86553726D01*
X117473846Y-86553724D01*
X117406904Y-86437779D01*
X117406903Y-86437778D01*
X117406901Y-86437774D01*
X117312226Y-86343099D01*
X117312222Y-86343097D01*
X117312220Y-86343095D01*
X117196275Y-86276153D01*
X117196273Y-86276152D01*
X117066948Y-86241500D01*
X117066945Y-86241500D01*
X116933055Y-86241500D01*
X116933052Y-86241500D01*
X116803726Y-86276152D01*
X116803724Y-86276153D01*
X116687779Y-86343095D01*
X116687770Y-86343102D01*
X116593102Y-86437770D01*
X116593095Y-86437779D01*
X116526153Y-86553724D01*
X116526152Y-86553726D01*
X116491500Y-86683051D01*
X100577336Y-86683051D01*
X100525315Y-86592949D01*
X100492014Y-86559648D01*
X100477662Y-86525000D01*
X100492014Y-86490352D01*
X100525315Y-86457051D01*
X100525316Y-86457050D01*
X100601872Y-86324451D01*
X100641499Y-86176559D01*
X100641500Y-86176559D01*
X100641500Y-86023441D01*
X100641499Y-86023440D01*
X100601872Y-85875550D01*
X100601871Y-85875546D01*
X100525315Y-85742949D01*
X100492014Y-85709648D01*
X100477662Y-85675000D01*
X100492014Y-85640352D01*
X100525315Y-85607051D01*
X100525316Y-85607050D01*
X100601872Y-85474451D01*
X100641499Y-85326559D01*
X100641500Y-85326559D01*
X100641500Y-85173441D01*
X100641499Y-85173440D01*
X100601872Y-85025550D01*
X100601871Y-85025546D01*
X100525315Y-84892949D01*
X100492014Y-84859648D01*
X100477662Y-84825000D01*
X100492014Y-84790352D01*
X100525315Y-84757051D01*
X100525316Y-84757050D01*
X100601872Y-84624451D01*
X100641499Y-84476559D01*
X100641500Y-84476559D01*
X100641500Y-84323441D01*
X100641499Y-84323440D01*
X100619902Y-84242839D01*
X100601872Y-84175549D01*
X100601871Y-84175548D01*
X100601871Y-84175546D01*
X100553336Y-84091482D01*
X100525316Y-84042950D01*
X100492014Y-84009648D01*
X100477662Y-83975000D01*
X100492014Y-83940352D01*
X100525315Y-83907051D01*
X100525316Y-83907050D01*
X100601872Y-83774451D01*
X100641499Y-83626559D01*
X100641500Y-83626559D01*
X100641500Y-83473441D01*
X100641499Y-83473440D01*
X100601872Y-83325550D01*
X100601871Y-83325546D01*
X100553336Y-83241482D01*
X100525316Y-83192950D01*
X100417050Y-83084684D01*
X100284453Y-83008128D01*
X100284449Y-83008127D01*
X100136559Y-82968500D01*
X100136556Y-82968500D01*
X99983444Y-82968500D01*
X99983441Y-82968500D01*
X99835550Y-83008127D01*
X99835546Y-83008128D01*
X99702949Y-83084684D01*
X99702949Y-83084685D01*
X99594685Y-83192949D01*
X99594684Y-83192949D01*
X99518128Y-83325546D01*
X99518127Y-83325550D01*
X99478500Y-83473440D01*
X99291499Y-83473440D01*
X99251872Y-83325550D01*
X99251871Y-83325546D01*
X99203336Y-83241482D01*
X99175316Y-83192950D01*
X99067050Y-83084684D01*
X98934453Y-83008128D01*
X98934449Y-83008127D01*
X98786559Y-82968500D01*
X98786556Y-82968500D01*
X98633444Y-82968500D01*
X98633441Y-82968500D01*
X98485550Y-83008127D01*
X98485546Y-83008128D01*
X98352949Y-83084684D01*
X98352949Y-83084685D01*
X98244685Y-83192949D01*
X98244684Y-83192949D01*
X98168128Y-83325546D01*
X98168127Y-83325550D01*
X98128500Y-83473440D01*
X94500500Y-83473440D01*
X94500500Y-73183051D01*
X115491500Y-73183051D01*
X115491500Y-73316948D01*
X115526152Y-73446273D01*
X115526153Y-73446275D01*
X115593095Y-73562220D01*
X115593097Y-73562222D01*
X115593099Y-73562226D01*
X115687774Y-73656901D01*
X115687778Y-73656903D01*
X115687779Y-73656904D01*
X115803724Y-73723846D01*
X115803726Y-73723847D01*
X115933051Y-73758499D01*
X115933052Y-73758500D01*
X115933055Y-73758500D01*
X116066948Y-73758500D01*
X116066948Y-73758499D01*
X116196274Y-73723847D01*
X116312226Y-73656901D01*
X116350275Y-73618852D01*
X116384923Y-73604500D01*
X118582865Y-73604500D01*
X118617513Y-73618852D01*
X119631148Y-74632487D01*
X119645500Y-74667135D01*
X119645500Y-77832865D01*
X119631148Y-77867513D01*
X118966331Y-78532329D01*
X118966326Y-78532335D01*
X118919659Y-78613168D01*
X118919658Y-78613170D01*
X118895500Y-78703327D01*
X118895500Y-83582865D01*
X118881148Y-83617513D01*
X118771513Y-83727148D01*
X118736865Y-83741500D01*
X118683052Y-83741500D01*
X118553726Y-83776152D01*
X118553724Y-83776153D01*
X118437779Y-83843095D01*
X118437770Y-83843102D01*
X118343102Y-83937770D01*
X118343095Y-83937779D01*
X118276153Y-84053724D01*
X118276152Y-84053726D01*
X118241500Y-84183051D01*
X118241500Y-84316948D01*
X118276152Y-84446273D01*
X118276153Y-84446275D01*
X118343095Y-84562220D01*
X118343097Y-84562222D01*
X118343099Y-84562226D01*
X118437774Y-84656901D01*
X118437778Y-84656903D01*
X118437779Y-84656904D01*
X118553724Y-84723846D01*
X118553726Y-84723847D01*
X118683051Y-84758499D01*
X118683052Y-84758500D01*
X118683055Y-84758500D01*
X118816948Y-84758500D01*
X118816948Y-84758499D01*
X118946274Y-84723847D01*
X119062226Y-84656901D01*
X119156901Y-84562226D01*
X119223847Y-84446274D01*
X119258499Y-84316948D01*
X119258500Y-84316948D01*
X119258500Y-84263135D01*
X119272852Y-84228487D01*
X119370191Y-84131148D01*
X119533671Y-83967668D01*
X119580341Y-83886832D01*
X119604500Y-83796671D01*
X119604500Y-81425682D01*
X147205500Y-81425682D01*
X147205500Y-81574317D01*
X147234492Y-81720068D01*
X147234494Y-81720077D01*
X147234495Y-81720080D01*
X147291371Y-81857390D01*
X147373941Y-81980966D01*
X147479034Y-82086059D01*
X147602610Y-82168629D01*
X147739920Y-82225505D01*
X147811767Y-82239796D01*
X147885682Y-82254499D01*
X147885685Y-82254499D01*
X147885688Y-82254500D01*
X147885689Y-82254500D01*
X148034311Y-82254500D01*
X148034312Y-82254500D01*
X148180080Y-82225505D01*
X148317390Y-82168629D01*
X148440966Y-82086059D01*
X148546059Y-81980966D01*
X148628629Y-81857390D01*
X148685505Y-81720080D01*
X148714500Y-81574312D01*
X148714500Y-81425688D01*
X148685505Y-81279920D01*
X148628629Y-81142610D01*
X148546059Y-81019034D01*
X148440966Y-80913941D01*
X148317390Y-80831371D01*
X148317388Y-80831370D01*
X148180083Y-80774496D01*
X148180081Y-80774495D01*
X148180080Y-80774495D01*
X148180077Y-80774494D01*
X148180068Y-80774492D01*
X148034317Y-80745500D01*
X148034312Y-80745500D01*
X147885688Y-80745500D01*
X147885682Y-80745500D01*
X147739931Y-80774492D01*
X147739916Y-80774496D01*
X147602611Y-80831370D01*
X147479034Y-80913940D01*
X147373940Y-81019034D01*
X147291370Y-81142611D01*
X147234496Y-81279916D01*
X147234492Y-81279931D01*
X147205500Y-81425682D01*
X119604500Y-81425682D01*
X119604500Y-78917135D01*
X119617529Y-78885682D01*
X149745500Y-78885682D01*
X149745500Y-79034317D01*
X149774492Y-79180068D01*
X149774494Y-79180077D01*
X149774495Y-79180080D01*
X149831371Y-79317390D01*
X149913941Y-79440966D01*
X150019034Y-79546059D01*
X150142610Y-79628629D01*
X150279920Y-79685505D01*
X150351767Y-79699796D01*
X150425682Y-79714499D01*
X150425685Y-79714499D01*
X150425688Y-79714500D01*
X150425689Y-79714500D01*
X150574311Y-79714500D01*
X150574312Y-79714500D01*
X150720080Y-79685505D01*
X150857390Y-79628629D01*
X150980966Y-79546059D01*
X151086059Y-79440966D01*
X151168629Y-79317390D01*
X151225505Y-79180080D01*
X151254500Y-79034312D01*
X151254500Y-78885688D01*
X151225505Y-78739920D01*
X151168629Y-78602610D01*
X151086059Y-78479034D01*
X150980966Y-78373941D01*
X150857390Y-78291371D01*
X150857388Y-78291370D01*
X150720083Y-78234496D01*
X150720081Y-78234495D01*
X150720080Y-78234495D01*
X150720077Y-78234494D01*
X150720068Y-78234492D01*
X150574317Y-78205500D01*
X150574312Y-78205500D01*
X150425688Y-78205500D01*
X150425682Y-78205500D01*
X150279931Y-78234492D01*
X150279916Y-78234496D01*
X150142611Y-78291370D01*
X150019034Y-78373940D01*
X149913940Y-78479034D01*
X149831370Y-78602611D01*
X149774496Y-78739916D01*
X149774492Y-78739931D01*
X149745500Y-78885682D01*
X119617529Y-78885682D01*
X119618852Y-78882487D01*
X119652706Y-78848633D01*
X119898729Y-78602610D01*
X120283671Y-78217668D01*
X120330341Y-78136832D01*
X120354500Y-78046671D01*
X120354500Y-77953329D01*
X120354500Y-77933051D01*
X121491500Y-77933051D01*
X121491500Y-78066948D01*
X121526152Y-78196273D01*
X121526153Y-78196275D01*
X121593095Y-78312220D01*
X121593097Y-78312222D01*
X121593099Y-78312226D01*
X121687774Y-78406901D01*
X121687778Y-78406903D01*
X121687779Y-78406904D01*
X121803724Y-78473846D01*
X121803726Y-78473847D01*
X121933051Y-78508499D01*
X121933052Y-78508500D01*
X121933055Y-78508500D01*
X122066948Y-78508500D01*
X122066948Y-78508499D01*
X122196274Y-78473847D01*
X122312226Y-78406901D01*
X122350275Y-78368852D01*
X122384923Y-78354500D01*
X138046673Y-78354500D01*
X138082735Y-78344836D01*
X138136832Y-78330341D01*
X138217668Y-78283671D01*
X139283671Y-77217668D01*
X140155657Y-76345682D01*
X147205500Y-76345682D01*
X147205500Y-76494317D01*
X147234492Y-76640068D01*
X147234496Y-76640083D01*
X147291370Y-76777388D01*
X147291371Y-76777390D01*
X147373941Y-76900966D01*
X147479034Y-77006059D01*
X147602610Y-77088629D01*
X147739920Y-77145505D01*
X147811767Y-77159796D01*
X147885682Y-77174499D01*
X147885685Y-77174499D01*
X147885688Y-77174500D01*
X147885689Y-77174500D01*
X148034311Y-77174500D01*
X148034312Y-77174500D01*
X148180080Y-77145505D01*
X148317390Y-77088629D01*
X148440966Y-77006059D01*
X148546059Y-76900966D01*
X148628629Y-76777390D01*
X148685505Y-76640080D01*
X148714500Y-76494312D01*
X148714500Y-76345688D01*
X148685505Y-76199920D01*
X148628629Y-76062610D01*
X148546059Y-75939034D01*
X148440966Y-75833941D01*
X148317390Y-75751371D01*
X148317388Y-75751370D01*
X148180083Y-75694496D01*
X148180081Y-75694495D01*
X148180080Y-75694495D01*
X148180077Y-75694494D01*
X148180068Y-75694492D01*
X148034317Y-75665500D01*
X148034312Y-75665500D01*
X147885688Y-75665500D01*
X147885682Y-75665500D01*
X147739931Y-75694492D01*
X147739916Y-75694496D01*
X147602611Y-75751370D01*
X147479034Y-75833940D01*
X147373940Y-75939034D01*
X147291370Y-76062611D01*
X147234496Y-76199916D01*
X147234492Y-76199931D01*
X147205500Y-76345682D01*
X140155657Y-76345682D01*
X150965352Y-65535987D01*
X151000000Y-65521635D01*
X151034648Y-65535987D01*
X151881148Y-66382487D01*
X151895500Y-66417135D01*
X151895500Y-82582865D01*
X151881148Y-82617513D01*
X150367513Y-84131148D01*
X150332865Y-84145500D01*
X137953327Y-84145500D01*
X137863170Y-84169658D01*
X137863168Y-84169659D01*
X137782335Y-84216326D01*
X137782329Y-84216331D01*
X129216331Y-92782329D01*
X129216326Y-92782335D01*
X129169659Y-92863168D01*
X129169658Y-92863170D01*
X129145500Y-92953327D01*
X129145500Y-92953329D01*
X129145500Y-97753329D01*
X129145500Y-97846671D01*
X129169659Y-97936832D01*
X129190907Y-97973636D01*
X129216326Y-98017664D01*
X129216331Y-98017670D01*
X130329994Y-99131333D01*
X130344346Y-99165981D01*
X130342677Y-99178661D01*
X130341500Y-99183054D01*
X130341500Y-99316948D01*
X130376152Y-99446273D01*
X130376153Y-99446275D01*
X130443095Y-99562220D01*
X130443097Y-99562222D01*
X130443099Y-99562226D01*
X130537774Y-99656901D01*
X130537778Y-99656903D01*
X130537779Y-99656904D01*
X130653724Y-99723846D01*
X130653726Y-99723847D01*
X130783051Y-99758499D01*
X130783052Y-99758500D01*
X130783055Y-99758500D01*
X130916948Y-99758500D01*
X130916948Y-99758499D01*
X131046274Y-99723847D01*
X131162226Y-99656901D01*
X131256901Y-99562226D01*
X131323847Y-99446274D01*
X131358499Y-99316948D01*
X131358500Y-99316948D01*
X131358500Y-99183052D01*
X131358499Y-99183051D01*
X131323847Y-99053726D01*
X131323846Y-99053724D01*
X131256904Y-98937779D01*
X131256903Y-98937778D01*
X131256901Y-98937774D01*
X131162226Y-98843099D01*
X131162222Y-98843097D01*
X131162220Y-98843095D01*
X131046275Y-98776153D01*
X131046273Y-98776152D01*
X130964998Y-98754375D01*
X130943032Y-98741693D01*
X129868852Y-97667513D01*
X129854500Y-97632865D01*
X129854500Y-93167135D01*
X129868852Y-93132487D01*
X138132487Y-84868852D01*
X138167135Y-84854500D01*
X150546673Y-84854500D01*
X150582735Y-84844836D01*
X150636832Y-84830341D01*
X150717668Y-84783671D01*
X152533671Y-82967668D01*
X152580341Y-82886832D01*
X152604500Y-82796671D01*
X152604500Y-66203329D01*
X152604500Y-66203327D01*
X152592420Y-66158248D01*
X152580341Y-66113168D01*
X152533671Y-66032332D01*
X152467668Y-65966329D01*
X151368852Y-64867513D01*
X151354500Y-64832865D01*
X151354500Y-57953327D01*
X151342420Y-57908248D01*
X151330341Y-57863168D01*
X151283671Y-57782332D01*
X151217668Y-57716329D01*
X148717668Y-55216329D01*
X148717666Y-55216328D01*
X148717664Y-55216326D01*
X148673636Y-55190907D01*
X148636832Y-55169659D01*
X148636829Y-55169658D01*
X148546673Y-55145500D01*
X148546671Y-55145500D01*
X140167135Y-55145500D01*
X140132487Y-55131148D01*
X138022852Y-53021513D01*
X138008500Y-52986865D01*
X138008500Y-52933052D01*
X138008499Y-52933051D01*
X137973847Y-52803726D01*
X137973846Y-52803724D01*
X137906904Y-52687779D01*
X137906903Y-52687778D01*
X137906901Y-52687774D01*
X137812226Y-52593099D01*
X137812222Y-52593097D01*
X137812220Y-52593095D01*
X137696275Y-52526153D01*
X137696273Y-52526152D01*
X137566948Y-52491500D01*
X137566945Y-52491500D01*
X137433055Y-52491500D01*
X137433052Y-52491500D01*
X137303726Y-52526152D01*
X137303724Y-52526153D01*
X137187779Y-52593095D01*
X137187770Y-52593102D01*
X137093102Y-52687770D01*
X137093095Y-52687779D01*
X137026153Y-52803724D01*
X137026152Y-52803726D01*
X136991500Y-52933051D01*
X136991500Y-53066948D01*
X137026152Y-53196273D01*
X137026153Y-53196275D01*
X137093095Y-53312220D01*
X137093097Y-53312222D01*
X137093099Y-53312226D01*
X137187774Y-53406901D01*
X137187778Y-53406903D01*
X137187779Y-53406904D01*
X137303724Y-53473846D01*
X137303726Y-53473847D01*
X137433051Y-53508499D01*
X137433052Y-53508500D01*
X137433055Y-53508500D01*
X137486865Y-53508500D01*
X137521513Y-53522852D01*
X139716329Y-55717668D01*
X139782332Y-55783671D01*
X139863168Y-55830341D01*
X139908248Y-55842420D01*
X139953327Y-55854500D01*
X139953329Y-55854500D01*
X140046671Y-55854500D01*
X148332865Y-55854500D01*
X148367513Y-55868852D01*
X150631148Y-58132487D01*
X150645500Y-58167135D01*
X150645500Y-64832865D01*
X150631148Y-64867513D01*
X137867513Y-77631148D01*
X137832865Y-77645500D01*
X122403500Y-77645500D01*
X122368852Y-77631148D01*
X122354500Y-77596500D01*
X122354500Y-74667135D01*
X122368852Y-74632487D01*
X122783668Y-74217671D01*
X122783671Y-74217668D01*
X122784444Y-74216329D01*
X122830341Y-74136832D01*
X122854500Y-74046671D01*
X122854500Y-68903500D01*
X122868852Y-68868852D01*
X122903500Y-68854500D01*
X129296673Y-68854500D01*
X129332735Y-68844836D01*
X129386832Y-68830341D01*
X129467668Y-68783671D01*
X130783671Y-67467668D01*
X130830341Y-67386832D01*
X130854500Y-67296671D01*
X130854500Y-62050627D01*
X130854501Y-62050614D01*
X130854501Y-61953327D01*
X130830342Y-61863170D01*
X130830341Y-61863166D01*
X130783670Y-61782331D01*
X129717670Y-60716331D01*
X129717664Y-60716326D01*
X129673636Y-60690907D01*
X129636832Y-60669659D01*
X129636829Y-60669658D01*
X129546673Y-60645500D01*
X129546671Y-60645500D01*
X128167135Y-60645500D01*
X128132487Y-60631148D01*
X127874413Y-60373074D01*
X146645500Y-60373074D01*
X146645500Y-60546925D01*
X146672696Y-60718635D01*
X146672697Y-60718638D01*
X146726420Y-60883982D01*
X146805343Y-61038878D01*
X146805346Y-61038882D01*
X146805347Y-61038884D01*
X146907535Y-61179533D01*
X146907537Y-61179535D01*
X146907540Y-61179539D01*
X147030460Y-61302459D01*
X147030463Y-61302461D01*
X147030467Y-61302465D01*
X147171116Y-61404653D01*
X147171118Y-61404654D01*
X147171121Y-61404656D01*
X147326017Y-61483579D01*
X147326019Y-61483580D01*
X147491362Y-61537303D01*
X147663074Y-61564500D01*
X147663075Y-61564500D01*
X147836925Y-61564500D01*
X147836926Y-61564500D01*
X148008638Y-61537303D01*
X148173981Y-61483580D01*
X148328884Y-61404653D01*
X148469533Y-61302465D01*
X148592465Y-61179533D01*
X148694653Y-61038884D01*
X148773580Y-60883981D01*
X148827303Y-60718638D01*
X148854500Y-60546926D01*
X148854500Y-60373074D01*
X148827303Y-60201362D01*
X148773580Y-60036019D01*
X148694653Y-59881116D01*
X148592465Y-59740467D01*
X148592461Y-59740463D01*
X148592459Y-59740460D01*
X148469539Y-59617540D01*
X148469540Y-59617540D01*
X148328878Y-59515343D01*
X148173982Y-59436420D01*
X148008638Y-59382697D01*
X148008635Y-59382696D01*
X147876731Y-59361804D01*
X147836926Y-59355500D01*
X147663074Y-59355500D01*
X147630759Y-59360618D01*
X147491364Y-59382696D01*
X147491361Y-59382697D01*
X147326017Y-59436420D01*
X147171121Y-59515343D01*
X147030460Y-59617540D01*
X146907540Y-59740460D01*
X146805343Y-59881121D01*
X146726420Y-60036017D01*
X146672697Y-60201361D01*
X146672696Y-60201364D01*
X146645500Y-60373074D01*
X127874413Y-60373074D01*
X127618852Y-60117513D01*
X127604500Y-60082865D01*
X127604500Y-58203327D01*
X127589363Y-58146839D01*
X127580341Y-58113168D01*
X127533671Y-58032332D01*
X127467668Y-57966329D01*
X126546272Y-57044933D01*
X146645500Y-57044933D01*
X146645500Y-57044934D01*
X146645500Y-57044936D01*
X146645500Y-58795063D01*
X146660266Y-58869301D01*
X146716515Y-58953484D01*
X146750234Y-58976014D01*
X146800699Y-59009734D01*
X146874933Y-59024500D01*
X148625066Y-59024499D01*
X148699301Y-59009734D01*
X148783484Y-58953484D01*
X148839734Y-58869301D01*
X148854500Y-58795067D01*
X148854499Y-57044934D01*
X148839734Y-56970699D01*
X148814578Y-56933051D01*
X148783484Y-56886515D01*
X148733019Y-56852796D01*
X148699301Y-56830266D01*
X148625067Y-56815500D01*
X148625063Y-56815500D01*
X146874936Y-56815500D01*
X146800698Y-56830266D01*
X146716515Y-56886515D01*
X146660267Y-56970698D01*
X146660266Y-56970699D01*
X146645500Y-57044933D01*
X126546272Y-57044933D01*
X126217668Y-56716329D01*
X126217666Y-56716328D01*
X126217664Y-56716326D01*
X126168217Y-56687779D01*
X126136832Y-56669659D01*
X126136829Y-56669658D01*
X126046673Y-56645500D01*
X126046671Y-56645500D01*
X123384923Y-56645500D01*
X123350275Y-56631148D01*
X123312229Y-56593102D01*
X123312226Y-56593099D01*
X123312222Y-56593097D01*
X123312220Y-56593095D01*
X123196275Y-56526153D01*
X123196273Y-56526152D01*
X123066948Y-56491500D01*
X123066945Y-56491500D01*
X122933055Y-56491500D01*
X122933052Y-56491500D01*
X122803726Y-56526152D01*
X122803724Y-56526153D01*
X122687779Y-56593095D01*
X122687770Y-56593102D01*
X122593102Y-56687770D01*
X122593095Y-56687779D01*
X122526153Y-56803724D01*
X122526152Y-56803726D01*
X122491500Y-56933051D01*
X122491500Y-57066948D01*
X122526152Y-57196273D01*
X122526153Y-57196275D01*
X122593095Y-57312220D01*
X122593097Y-57312222D01*
X122593099Y-57312226D01*
X122687774Y-57406901D01*
X122687778Y-57406903D01*
X122687779Y-57406904D01*
X122803724Y-57473846D01*
X122803726Y-57473847D01*
X122933051Y-57508499D01*
X122933052Y-57508500D01*
X122933055Y-57508500D01*
X123066948Y-57508500D01*
X123066948Y-57508499D01*
X123196274Y-57473847D01*
X123312226Y-57406901D01*
X123350275Y-57368852D01*
X123384923Y-57354500D01*
X125832865Y-57354500D01*
X125867513Y-57368852D01*
X126881148Y-58382487D01*
X126895500Y-58417135D01*
X126895500Y-60203329D01*
X126895500Y-60296671D01*
X126919659Y-60386832D01*
X126940907Y-60423636D01*
X126966326Y-60467664D01*
X126966328Y-60467666D01*
X126966329Y-60467668D01*
X127716329Y-61217668D01*
X127782332Y-61283671D01*
X127863168Y-61330341D01*
X127908248Y-61342420D01*
X127953327Y-61354500D01*
X127953329Y-61354500D01*
X129332865Y-61354500D01*
X129367513Y-61368852D01*
X130131148Y-62132487D01*
X130145500Y-62167135D01*
X130145500Y-67082865D01*
X130131148Y-67117513D01*
X129117513Y-68131148D01*
X129082865Y-68145500D01*
X122884923Y-68145500D01*
X122850275Y-68131148D01*
X122812229Y-68093102D01*
X122812226Y-68093099D01*
X122812222Y-68093097D01*
X122812220Y-68093095D01*
X122696275Y-68026153D01*
X122696273Y-68026152D01*
X122566948Y-67991500D01*
X122566945Y-67991500D01*
X122433055Y-67991500D01*
X122433052Y-67991500D01*
X122303726Y-68026152D01*
X122303724Y-68026153D01*
X122187779Y-68093095D01*
X122187770Y-68093102D01*
X122093102Y-68187770D01*
X122093095Y-68187779D01*
X122026153Y-68303724D01*
X122026152Y-68303726D01*
X121991500Y-68433051D01*
X121991500Y-68566948D01*
X122026152Y-68696273D01*
X122026153Y-68696275D01*
X122093095Y-68812220D01*
X122093097Y-68812222D01*
X122093099Y-68812226D01*
X122093102Y-68812229D01*
X122131148Y-68850275D01*
X122145500Y-68884923D01*
X122145500Y-73832865D01*
X122131148Y-73867513D01*
X121716331Y-74282329D01*
X121716326Y-74282335D01*
X121669659Y-74363168D01*
X121669658Y-74363170D01*
X121645500Y-74453327D01*
X121645500Y-77615077D01*
X121631148Y-77649725D01*
X121593102Y-77687770D01*
X121593095Y-77687779D01*
X121526153Y-77803724D01*
X121526152Y-77803726D01*
X121491500Y-77933051D01*
X120354500Y-77933051D01*
X120354500Y-74453329D01*
X120354500Y-74453327D01*
X120342420Y-74408248D01*
X120330341Y-74363168D01*
X120283671Y-74282332D01*
X120217668Y-74216329D01*
X118967668Y-72966329D01*
X118967666Y-72966328D01*
X118967664Y-72966326D01*
X118918217Y-72937779D01*
X118886832Y-72919659D01*
X118886829Y-72919658D01*
X118796673Y-72895500D01*
X118796671Y-72895500D01*
X116384923Y-72895500D01*
X116350275Y-72881148D01*
X116312229Y-72843102D01*
X116312226Y-72843099D01*
X116312222Y-72843097D01*
X116312220Y-72843095D01*
X116196275Y-72776153D01*
X116196273Y-72776152D01*
X116066948Y-72741500D01*
X116066945Y-72741500D01*
X115933055Y-72741500D01*
X115933052Y-72741500D01*
X115803726Y-72776152D01*
X115803724Y-72776153D01*
X115687779Y-72843095D01*
X115687770Y-72843102D01*
X115593102Y-72937770D01*
X115593095Y-72937779D01*
X115526153Y-73053724D01*
X115526152Y-73053726D01*
X115491500Y-73183051D01*
X94500500Y-73183051D01*
X94500500Y-63691378D01*
X97455499Y-63691378D01*
X97455500Y-63691382D01*
X97489798Y-63951898D01*
X97489799Y-63951902D01*
X97489800Y-63951909D01*
X97557804Y-64205703D01*
X97557806Y-64205709D01*
X97658361Y-64448471D01*
X97789741Y-64676027D01*
X97789751Y-64676042D01*
X97949698Y-64884489D01*
X97949708Y-64884501D01*
X98135498Y-65070291D01*
X98135510Y-65070301D01*
X98343957Y-65230248D01*
X98343966Y-65230254D01*
X98343970Y-65230257D01*
X98571530Y-65361639D01*
X98814292Y-65462194D01*
X98814296Y-65462195D01*
X99068090Y-65530199D01*
X99068091Y-65530199D01*
X99068102Y-65530202D01*
X99328618Y-65564500D01*
X99328621Y-65564500D01*
X99591378Y-65564500D01*
X99591382Y-65564500D01*
X99851898Y-65530202D01*
X100105708Y-65462194D01*
X100348470Y-65361639D01*
X100576030Y-65230257D01*
X100594182Y-65216329D01*
X100629417Y-65189291D01*
X100784495Y-65070297D01*
X100970297Y-64884495D01*
X101130257Y-64676030D01*
X101261639Y-64448470D01*
X101362194Y-64205708D01*
X101368265Y-64183051D01*
X106991500Y-64183051D01*
X106991500Y-64316948D01*
X107026152Y-64446273D01*
X107026153Y-64446275D01*
X107093095Y-64562220D01*
X107093097Y-64562222D01*
X107093099Y-64562226D01*
X107187774Y-64656901D01*
X107187778Y-64656903D01*
X107187779Y-64656904D01*
X107303724Y-64723846D01*
X107303726Y-64723847D01*
X107433051Y-64758499D01*
X107433052Y-64758500D01*
X107433055Y-64758500D01*
X107566948Y-64758500D01*
X107566948Y-64758499D01*
X107696274Y-64723847D01*
X107812226Y-64656901D01*
X107850275Y-64618852D01*
X107884923Y-64604500D01*
X111082865Y-64604500D01*
X111117513Y-64618852D01*
X112131148Y-65632487D01*
X112145500Y-65667135D01*
X112145500Y-67865077D01*
X112131148Y-67899725D01*
X112093102Y-67937770D01*
X112093095Y-67937779D01*
X112026153Y-68053724D01*
X112026152Y-68053726D01*
X111991500Y-68183051D01*
X111991500Y-68316948D01*
X112026152Y-68446273D01*
X112026153Y-68446275D01*
X112093095Y-68562220D01*
X112093097Y-68562222D01*
X112093099Y-68562226D01*
X112187774Y-68656901D01*
X112187778Y-68656903D01*
X112187779Y-68656904D01*
X112303724Y-68723846D01*
X112303726Y-68723847D01*
X112433051Y-68758499D01*
X112433052Y-68758500D01*
X112433055Y-68758500D01*
X112566948Y-68758500D01*
X112566948Y-68758499D01*
X112696274Y-68723847D01*
X112812226Y-68656901D01*
X112906901Y-68562226D01*
X112973847Y-68446274D01*
X113008499Y-68316948D01*
X113008500Y-68316948D01*
X113008500Y-68183052D01*
X113008499Y-68183051D01*
X112973847Y-68053726D01*
X112973846Y-68053724D01*
X112906904Y-67937779D01*
X112906903Y-67937778D01*
X112906901Y-67937774D01*
X112868852Y-67899725D01*
X112854500Y-67865077D01*
X112854500Y-65453327D01*
X112842420Y-65408248D01*
X112830341Y-65363168D01*
X112783671Y-65282332D01*
X112717668Y-65216329D01*
X111467668Y-63966329D01*
X111467666Y-63966328D01*
X111467664Y-63966326D01*
X111418217Y-63937779D01*
X111386832Y-63919659D01*
X111386829Y-63919658D01*
X111296673Y-63895500D01*
X111296671Y-63895500D01*
X107884923Y-63895500D01*
X107850275Y-63881148D01*
X107812229Y-63843102D01*
X107812226Y-63843099D01*
X107812222Y-63843097D01*
X107812220Y-63843095D01*
X107696275Y-63776153D01*
X107696273Y-63776152D01*
X107566948Y-63741500D01*
X107566945Y-63741500D01*
X107433055Y-63741500D01*
X107433052Y-63741500D01*
X107303726Y-63776152D01*
X107303724Y-63776153D01*
X107187779Y-63843095D01*
X107187770Y-63843102D01*
X107093102Y-63937770D01*
X107093095Y-63937779D01*
X107026153Y-64053724D01*
X107026152Y-64053726D01*
X106991500Y-64183051D01*
X101368265Y-64183051D01*
X101402918Y-64053726D01*
X101430199Y-63951909D01*
X101430198Y-63951909D01*
X101430202Y-63951898D01*
X101464500Y-63691382D01*
X101464500Y-63428618D01*
X101430202Y-63168102D01*
X101362194Y-62914292D01*
X101261639Y-62671530D01*
X101130257Y-62443970D01*
X101130254Y-62443966D01*
X101130248Y-62443957D01*
X100970301Y-62235510D01*
X100970291Y-62235498D01*
X100784501Y-62049708D01*
X100784489Y-62049698D01*
X100576042Y-61889751D01*
X100576027Y-61889741D01*
X100348470Y-61758361D01*
X100348471Y-61758361D01*
X100105709Y-61657806D01*
X100105703Y-61657804D01*
X99851909Y-61589800D01*
X99851902Y-61589799D01*
X99851898Y-61589798D01*
X99591382Y-61555500D01*
X99328618Y-61555500D01*
X99068102Y-61589798D01*
X99068098Y-61589798D01*
X99068090Y-61589800D01*
X98814296Y-61657804D01*
X98814290Y-61657806D01*
X98571528Y-61758361D01*
X98343972Y-61889741D01*
X98343957Y-61889751D01*
X98135510Y-62049698D01*
X98135498Y-62049708D01*
X97949708Y-62235498D01*
X97949698Y-62235510D01*
X97789751Y-62443957D01*
X97789741Y-62443972D01*
X97658361Y-62671528D01*
X97557806Y-62914290D01*
X97557804Y-62914296D01*
X97489800Y-63168090D01*
X97455500Y-63428621D01*
X97455500Y-63691378D01*
X97455499Y-63691378D01*
X94500500Y-63691378D01*
X94500500Y-50368880D01*
X97999500Y-50368880D01*
X97999500Y-50631120D01*
X98033730Y-50891116D01*
X98033731Y-50891120D01*
X98033732Y-50891127D01*
X98101599Y-51144412D01*
X98101602Y-51144419D01*
X98201957Y-51386697D01*
X98201959Y-51386700D01*
X98333074Y-51613800D01*
X98333084Y-51613815D01*
X98492709Y-51821841D01*
X98492720Y-51821853D01*
X98678146Y-52007279D01*
X98678158Y-52007290D01*
X98886184Y-52166915D01*
X98886193Y-52166921D01*
X98886197Y-52166924D01*
X99113303Y-52298043D01*
X99355581Y-52398398D01*
X99355584Y-52398398D01*
X99355587Y-52398400D01*
X99608872Y-52466267D01*
X99608873Y-52466267D01*
X99608884Y-52466270D01*
X99868880Y-52500500D01*
X99868883Y-52500500D01*
X100131117Y-52500500D01*
X100131120Y-52500500D01*
X100391116Y-52466270D01*
X100644419Y-52398398D01*
X100886697Y-52298043D01*
X101113803Y-52166924D01*
X101321851Y-52007282D01*
X101507282Y-51821851D01*
X101666924Y-51613803D01*
X101798043Y-51386697D01*
X101898398Y-51144419D01*
X101966270Y-50891116D01*
X102000500Y-50631120D01*
X102000500Y-50368880D01*
X145999500Y-50368880D01*
X145999500Y-50631120D01*
X146033730Y-50891116D01*
X146033731Y-50891120D01*
X146033732Y-50891127D01*
X146101599Y-51144412D01*
X146101602Y-51144419D01*
X146201957Y-51386697D01*
X146201959Y-51386700D01*
X146333074Y-51613800D01*
X146333084Y-51613815D01*
X146492709Y-51821841D01*
X146492720Y-51821853D01*
X146678146Y-52007279D01*
X146678158Y-52007290D01*
X146886184Y-52166915D01*
X146886193Y-52166921D01*
X146886197Y-52166924D01*
X147113303Y-52298043D01*
X147355581Y-52398398D01*
X147355584Y-52398398D01*
X147355587Y-52398400D01*
X147608872Y-52466267D01*
X147608873Y-52466267D01*
X147608884Y-52466270D01*
X147868880Y-52500500D01*
X147868883Y-52500500D01*
X148131117Y-52500500D01*
X148131120Y-52500500D01*
X148391116Y-52466270D01*
X148644419Y-52398398D01*
X148886697Y-52298043D01*
X149113803Y-52166924D01*
X149321851Y-52007282D01*
X149507282Y-51821851D01*
X149666924Y-51613803D01*
X149798043Y-51386697D01*
X149898398Y-51144419D01*
X149966270Y-50891116D01*
X150000500Y-50631120D01*
X150000500Y-50368880D01*
X149966270Y-50108884D01*
X149898398Y-49855581D01*
X149798043Y-49613303D01*
X149666924Y-49386197D01*
X149666921Y-49386193D01*
X149666915Y-49386184D01*
X149507290Y-49178158D01*
X149507279Y-49178146D01*
X149321853Y-48992720D01*
X149321841Y-48992709D01*
X149113815Y-48833084D01*
X149113800Y-48833074D01*
X148886700Y-48701959D01*
X148886701Y-48701959D01*
X148886697Y-48701957D01*
X148703209Y-48625953D01*
X148644422Y-48601603D01*
X148644412Y-48601599D01*
X148391127Y-48533732D01*
X148391120Y-48533731D01*
X148391116Y-48533730D01*
X148131120Y-48499500D01*
X147868880Y-48499500D01*
X147608884Y-48533730D01*
X147608880Y-48533730D01*
X147608872Y-48533732D01*
X147355587Y-48601599D01*
X147355577Y-48601603D01*
X147196435Y-48667522D01*
X147113303Y-48701957D01*
X147113300Y-48701958D01*
X147113299Y-48701959D01*
X146886199Y-48833074D01*
X146886184Y-48833084D01*
X146678158Y-48992709D01*
X146678146Y-48992720D01*
X146492720Y-49178146D01*
X146492709Y-49178158D01*
X146333084Y-49386184D01*
X146333074Y-49386199D01*
X146201959Y-49613299D01*
X146101603Y-49855577D01*
X146101599Y-49855587D01*
X146033732Y-50108872D01*
X146033730Y-50108880D01*
X146033730Y-50108884D01*
X145999500Y-50368880D01*
X102000500Y-50368880D01*
X101966270Y-50108884D01*
X101898398Y-49855581D01*
X101798043Y-49613303D01*
X101666924Y-49386197D01*
X101666921Y-49386193D01*
X101666915Y-49386184D01*
X101507290Y-49178158D01*
X101507279Y-49178146D01*
X101321853Y-48992720D01*
X101321841Y-48992709D01*
X101113815Y-48833084D01*
X101113800Y-48833074D01*
X100886700Y-48701959D01*
X100886701Y-48701959D01*
X100886697Y-48701957D01*
X100703209Y-48625953D01*
X100644422Y-48601603D01*
X100644412Y-48601599D01*
X100391127Y-48533732D01*
X100391120Y-48533731D01*
X100391116Y-48533730D01*
X100131120Y-48499500D01*
X99868880Y-48499500D01*
X99608884Y-48533730D01*
X99608880Y-48533730D01*
X99608872Y-48533732D01*
X99355587Y-48601599D01*
X99355577Y-48601603D01*
X99196435Y-48667522D01*
X99113303Y-48701957D01*
X99113300Y-48701958D01*
X99113299Y-48701959D01*
X98886199Y-48833074D01*
X98886184Y-48833084D01*
X98678158Y-48992709D01*
X98678146Y-48992720D01*
X98492720Y-49178146D01*
X98492709Y-49178158D01*
X98333084Y-49386184D01*
X98333074Y-49386199D01*
X98201959Y-49613299D01*
X98101603Y-49855577D01*
X98101599Y-49855587D01*
X98033732Y-50108872D01*
X98033730Y-50108880D01*
X98033730Y-50108884D01*
X97999500Y-50368880D01*
X94500500Y-50368880D01*
X94500500Y-45049500D01*
X94514852Y-45014852D01*
X94549500Y-45000500D01*
X153450500Y-45000500D01*
X153485148Y-45014852D01*
G37*
%TD.AperFunction*%
%TD*%
M02*
