%TF.GenerationSoftware,KiCad,Pcbnew,9.0.4*%
%TF.CreationDate,2025-09-04T23:05:58-07:00*%
%TF.ProjectId,PiTrac Pi Connector,50695472-6163-4205-9069-20436f6e6e65,rev?*%
%TF.SameCoordinates,Original*%
%TF.FileFunction,Soldermask,Bot*%
%TF.FilePolarity,Negative*%
%FSLAX46Y46*%
G04 Gerber Fmt 4.6, Leading zero omitted, Abs format (unit mm)*
G04 Created by KiCad (PCBNEW 9.0.4) date 2025-09-04 23:05:58*
%MOMM*%
%LPD*%
G01*
G04 APERTURE LIST*
G04 Aperture macros list*
%AMRoundRect*
0 Rectangle with rounded corners*
0 $1 Rounding radius*
0 $2 $3 $4 $5 $6 $7 $8 $9 X,Y pos of 4 corners*
0 Add a 4 corners polygon primitive as box body*
4,1,4,$2,$3,$4,$5,$6,$7,$8,$9,$2,$3,0*
0 Add four circle primitives for the rounded corners*
1,1,$1+$1,$2,$3*
1,1,$1+$1,$4,$5*
1,1,$1+$1,$6,$7*
1,1,$1+$1,$8,$9*
0 Add four rect primitives between the rounded corners*
20,1,$1+$1,$2,$3,$4,$5,0*
20,1,$1+$1,$4,$5,$6,$7,0*
20,1,$1+$1,$6,$7,$8,$9,0*
20,1,$1+$1,$8,$9,$2,$3,0*%
G04 Aperture macros list end*
%ADD10C,3.500000*%
%ADD11C,0.654000*%
%ADD12O,2.400000X0.900000*%
%ADD13O,1.700000X0.900000*%
%ADD14C,2.600000*%
%ADD15C,1.000000*%
%ADD16RoundRect,0.250000X-0.750000X0.750000X-0.750000X-0.750000X0.750000X-0.750000X0.750000X0.750000X0*%
%ADD17C,2.000000*%
%ADD18C,1.500000*%
%ADD19RoundRect,0.250000X0.750000X-0.750000X0.750000X0.750000X-0.750000X0.750000X-0.750000X-0.750000X0*%
%ADD20R,1.700000X1.700000*%
%ADD21C,1.700000*%
G04 APERTURE END LIST*
D10*
%TO.C,H2*%
X148000000Y-50500000D03*
%TD*%
D11*
%TO.C,J4*%
X100060000Y-82700000D03*
X100060000Y-83550000D03*
X100060000Y-84400000D03*
X100060000Y-85250000D03*
X100060000Y-86100000D03*
X100060000Y-86950000D03*
X100060000Y-87800000D03*
X100060000Y-88650000D03*
X98710000Y-88650000D03*
X98710000Y-87800000D03*
X98710000Y-86950000D03*
X98710000Y-86100000D03*
X98710000Y-85250000D03*
X98710000Y-84400000D03*
X98710000Y-83550000D03*
X98710000Y-82700000D03*
D12*
X99080000Y-81350000D03*
X99080000Y-90000000D03*
D13*
X95700000Y-81350000D03*
X95700000Y-90000000D03*
%TD*%
D10*
%TO.C,H3*%
X148000000Y-138500000D03*
%TD*%
%TO.C,H4*%
X100000000Y-138500000D03*
%TD*%
D14*
%TO.C,L1*%
X115980000Y-108500000D03*
X115980000Y-113500000D03*
%TD*%
D15*
%TO.C,RV2*%
X147960000Y-76420000D03*
X150500000Y-78960000D03*
X147960000Y-81500000D03*
%TD*%
D16*
%TO.C,C17*%
X148000000Y-119632323D03*
D17*
X148000000Y-124632323D03*
%TD*%
D10*
%TO.C,J1*%
X99460000Y-63560000D03*
X99460000Y-71180000D03*
%TD*%
D11*
%TO.C,J3*%
X100100000Y-98775000D03*
X100100000Y-99625000D03*
X100100000Y-100475000D03*
X100100000Y-101325000D03*
X100100000Y-102175000D03*
X100100000Y-103025000D03*
X100100000Y-103875000D03*
X100100000Y-104725000D03*
X98750000Y-104725000D03*
X98750000Y-103875000D03*
X98750000Y-103025000D03*
X98750000Y-102175000D03*
X98750000Y-101325000D03*
X98750000Y-100475000D03*
X98750000Y-99625000D03*
X98750000Y-98775000D03*
D12*
X99120000Y-97425000D03*
X99120000Y-106075000D03*
D13*
X95740000Y-97425000D03*
X95740000Y-106075000D03*
%TD*%
D18*
%TO.C,J6*%
X106960000Y-117680000D03*
X106960000Y-120180000D03*
X106960000Y-122180000D03*
X106960000Y-124680000D03*
D10*
X104250000Y-114610000D03*
X104250000Y-127750000D03*
%TD*%
%TO.C,J2*%
X148500000Y-111260000D03*
X148500000Y-103640000D03*
%TD*%
D19*
%TO.C,C24*%
X135250000Y-110117677D03*
D17*
X135250000Y-105117677D03*
%TD*%
D20*
%TO.C,J7*%
X147750000Y-57920000D03*
D21*
X147750000Y-60460000D03*
X147750000Y-63000000D03*
%TD*%
D10*
%TO.C,H1*%
X100000000Y-50500000D03*
%TD*%
D15*
%TO.C,RV1*%
X130790000Y-138710000D03*
X128250000Y-141250000D03*
X125710000Y-138710000D03*
%TD*%
M02*
