M48
; DRILL file {KiCad 9.0.4} date 2025-09-04T23:06:00-0700
; FORMAT={-:-/ absolute / metric / decimal}
; #@! TF.CreationDate,2025-09-04T23:06:00-07:00
; #@! TF.GenerationSoftware,Kicad,Pcbnew,9.0.4
; #@! TF.FileFunction,Plated,1,2,PTH
FMAT,2
METRIC
; #@! TA.AperFunction,Plated,PTH,ViaDrill
T1C0.254
; #@! TA.AperFunction,Plated,PTH,ComponentDrill
T2C0.400
; #@! TA.AperFunction,Plated,PTH,ComponentDrill
T3C0.550
; #@! TA.AperFunction,Plated,PTH,ComponentDrill
T4C0.600
; #@! TA.AperFunction,Plated,PTH,ComponentDrill
T5C0.920
; #@! TA.AperFunction,Plated,PTH,ComponentDrill
T6C1.000
; #@! TA.AperFunction,Plated,PTH,ComponentDrill
T7C1.300
; #@! TA.AperFunction,Plated,PTH,ComponentDrill
T8C2.000
; #@! TA.AperFunction,Plated,PTH,ComponentDrill
T9C2.300
%
G90
G05
T1
X98.0Y-56.5
X98.75Y-126.5
X102.21Y-120.68
X105.5Y-134.5
X106.0Y-46.5
X107.25Y-142.5
X107.5Y-64.25
X108.5Y-141.5
X108.5Y-143.5
X108.75Y-50.75
X109.234Y-135.725
X109.5Y-61.5
X109.5Y-79.75
X109.75Y-74.5
X110.0Y-87.0
X110.0Y-120.0
X110.25Y-121.0
X110.5Y-65.5
X111.25Y-121.0
X111.75Y-94.0
X112.115Y-121.0
X112.115Y-122.0
X112.115Y-123.019
X112.115Y-124.0
X112.115Y-125.0
X112.5Y-68.25
X112.5Y-98.0
X112.75Y-119.5
X113.115Y-121.0
X113.115Y-122.0
X113.115Y-123.0
X113.115Y-124.0
X113.115Y-125.0
X113.25Y-68.75
X113.25Y-120.25
X113.5Y-79.75
X113.5Y-96.75
X113.525Y-91.444
X113.75Y-88.0
X114.0Y-135.75
X114.115Y-120.225
X114.25Y-103.5
X114.48Y-128.975
X114.5Y-98.0
X114.615Y-128.0
X115.042Y-133.792
X115.115Y-120.225
X115.5Y-55.75
X115.5Y-81.5
X115.5Y-102.5
X115.615Y-129.0
X115.75Y-139.5
X116.0Y-47.0
X116.0Y-73.25
X116.115Y-120.225
X116.5Y-60.0
X116.5Y-80.75
X116.5Y-93.75
X116.5Y-97.5
X116.615Y-128.0
X116.73Y-121.45
X116.73Y-128.975
X116.75Y-105.0
X117.0Y-86.75
X117.0Y-140.5
X117.115Y-120.225
X117.25Y-141.5
X117.5Y-80.75
X117.5Y-98.75
X117.5Y-133.75
X117.5Y-137.25
X117.75Y-59.25
X118.0Y-68.75
X118.0Y-90.0
X118.115Y-120.225
X118.115Y-121.225
X118.5Y-82.0
X118.75Y-59.25
X118.75Y-84.25
X119.0Y-67.5
X119.0Y-69.75
X119.115Y-120.225
X119.115Y-121.225
X119.115Y-123.225
X119.115Y-124.225
X119.5Y-84.5
X119.75Y-60.25
X119.75Y-96.25
X119.75Y-126.0
X119.775Y-129.292
X120.0Y-65.25
X120.0Y-69.0
X120.115Y-120.225
X120.115Y-121.225
X120.115Y-123.225
X120.115Y-124.225
X120.25Y-103.5
X120.5Y-111.5
X120.75Y-107.25
X120.75Y-128.637
X120.75Y-139.25
X120.75Y-141.25
X121.0Y-77.5
X121.0Y-125.5
X121.25Y-87.0
X121.5Y-50.75
X121.75Y-120.5
X121.75Y-128.637
X121.75Y-137.75
X122.0Y-57.0
X122.0Y-78.0
X122.5Y-68.5
X122.75Y-102.25
X122.75Y-139.0
X122.979Y-113.594
X123.0Y-57.0
X123.25Y-69.25
X123.5Y-67.0
X123.5Y-87.25
X123.5Y-91.5
X123.75Y-80.5
X123.75Y-134.0
X123.75Y-138.0
X124.0Y-103.25
X124.5Y-88.5
X124.5Y-99.25
X124.5Y-104.5
X124.5Y-130.25
X124.75Y-66.0
X124.75Y-90.75
X125.0Y-59.0
X125.0Y-79.5
X125.0Y-108.5
X125.25Y-117.25
X125.25Y-125.75
X125.25Y-128.0
X125.5Y-74.25
X125.5Y-87.25
X125.5Y-98.0
X125.5Y-120.5
X126.0Y-59.0
X126.0Y-67.0
X126.0Y-95.75
X126.25Y-111.25
X126.5Y-88.5
X126.5Y-92.75
X126.5Y-97.25
X126.5Y-134.25
X127.0Y-94.5
X127.0Y-105.5
X127.25Y-65.75
X127.5Y-87.25
X127.5Y-97.5
X128.0Y-55.0
X128.0Y-75.5
X128.0Y-109.5
X128.0Y-128.0
X128.25Y-96.0
X128.25Y-134.5
X128.5Y-67.0
X128.5Y-132.5
X128.5Y-136.5
X129.0Y-120.5
X129.069Y-81.705
X129.25Y-130.5
X129.5Y-66.0
X129.5Y-99.3
X129.75Y-111.25
X130.0Y-104.0
X130.0Y-140.5
X130.225Y-90.454
X130.5Y-120.25
X130.5Y-126.5
X130.5Y-128.5
X130.5Y-134.5
X130.85Y-99.25
X131.0Y-46.75
X131.0Y-86.5
X131.0Y-130.5
X131.75Y-125.25
X131.75Y-126.387
X132.0Y-105.25
X132.137Y-58.2
X132.5Y-74.5
X132.5Y-130.5
X132.5Y-131.5
X132.75Y-99.3
X132.75Y-128.5
X132.75Y-133.5
X132.75Y-135.5
X133.0Y-63.75
X133.0Y-120.25
X133.25Y-67.75
X133.85Y-98.25
X133.926Y-80.25
X134.5Y-50.75
X134.5Y-58.25
X134.75Y-86.25
X135.0Y-140.0
X135.25Y-94.0
X135.25Y-107.5
X135.5Y-95.0
X135.75Y-54.5
X135.75Y-123.0
X136.25Y-83.0
X136.5Y-127.0
X136.75Y-135.5
X137.0Y-63.5
X137.25Y-120.0
X137.25Y-130.5
X137.5Y-53.0
X138.0Y-56.5
X138.0Y-74.0
X138.25Y-62.5
X138.25Y-105.0
X139.0Y-65.75
X139.0Y-125.0
X139.25Y-122.0
X140.0Y-77.5
X140.0Y-97.0
X140.0Y-136.25
X140.25Y-131.5
X140.5Y-98.0
X140.75Y-142.0
X141.0Y-97.0
X141.25Y-59.25
X141.469Y-47.638
X141.5Y-98.0
X141.503Y-102.267
X142.0Y-97.0
X142.0Y-125.75
X142.25Y-68.75
X142.5Y-98.0
X142.75Y-53.0
X143.0Y-97.0
X143.5Y-96.0
X143.5Y-98.0
X144.0Y-56.75
X144.0Y-87.5
X144.0Y-88.5
X144.0Y-91.0
X144.0Y-93.0
X144.0Y-95.0
X144.0Y-97.0
X144.0Y-106.5
X144.434Y-65.151
X144.499Y-92.009
X144.5Y-86.5
X144.5Y-90.0
X144.5Y-94.0
X144.5Y-96.0
X144.5Y-98.0
X144.75Y-82.25
X145.25Y-124.25
X145.5Y-86.5
X145.5Y-89.5
X145.75Y-108.25
X146.0Y-90.5
X146.25Y-129.25
X146.5Y-80.21
X146.5Y-86.5
X146.5Y-89.5
X147.0Y-87.5
X147.0Y-88.5
X147.5Y-85.75
X147.5Y-90.5
X148.0Y-122.5
X150.75Y-124.5
X150.75Y-134.75
X151.25Y-112.25
X151.25Y-117.75
X151.374Y-71.318
X151.5Y-81.71
X152.0Y-53.5
X152.5Y-61.75
X152.5Y-106.75
X152.75Y-85.0
X152.75Y-93.75
X152.75Y-102.5
X153.0Y-114.5
X153.0Y-121.75
X153.0Y-126.75
T2
X98.71Y-82.7
X98.71Y-83.55
X98.71Y-84.4
X98.71Y-85.25
X98.71Y-86.1
X98.71Y-86.95
X98.71Y-87.8
X98.71Y-88.65
X98.75Y-98.775
X98.75Y-99.625
X98.75Y-100.475
X98.75Y-101.325
X98.75Y-102.175
X98.75Y-103.025
X98.75Y-103.875
X98.75Y-104.725
X100.06Y-82.7
X100.06Y-83.55
X100.06Y-84.4
X100.06Y-85.25
X100.06Y-86.1
X100.06Y-86.95
X100.06Y-87.8
X100.06Y-88.65
X100.1Y-98.775
X100.1Y-99.625
X100.1Y-100.475
X100.1Y-101.325
X100.1Y-102.175
X100.1Y-103.025
X100.1Y-103.875
X100.1Y-104.725
T3
X125.71Y-138.71
X128.25Y-141.25
X130.79Y-138.71
X147.96Y-76.42
X147.96Y-81.5
X150.5Y-78.96
T5
X106.96Y-117.68
X106.96Y-120.18
X106.96Y-122.18
X106.96Y-124.68
T6
X135.25Y-105.118
X135.25Y-110.118
X147.75Y-57.92
X147.75Y-60.46
X147.75Y-63.0
X148.0Y-119.632
X148.0Y-124.632
T7
X115.98Y-108.5
X115.98Y-113.5
T8
X99.46Y-63.56
X99.46Y-71.18
X148.5Y-103.64
X148.5Y-111.26
T9
X104.25Y-114.61
X104.25Y-127.75
T4
G00X96.1Y-81.35
M15
G01X95.3Y-81.35
M16
G05
G00X96.1Y-90.0
M15
G01X95.3Y-90.0
M16
G05
G00X96.14Y-97.425
M15
G01X95.34Y-97.425
M16
G05
G00X96.14Y-106.075
M15
G01X95.34Y-106.075
M16
G05
G00X99.83Y-81.35
M15
G01X98.33Y-81.35
M16
G05
G00X99.83Y-90.0
M15
G01X98.33Y-90.0
M16
G05
G00X99.87Y-97.425
M15
G01X98.37Y-97.425
M16
G05
G00X99.87Y-106.075
M15
G01X98.37Y-106.075
M16
G05
M30
